<?xml version="1.0" encoding="UTF-8" standalone="no"?>
<svg
   width="739"
   height="740"
   viewBox="0 0 739 740"
   fill="none"
   version="1.1"
   id="svg392"
   sodipodi:docname="hero-decor-right.svg"
   inkscape:version="1.1 (c4e8f9e, 2021-05-24)"
   xmlns:inkscape="http://www.inkscape.org/namespaces/inkscape"
   xmlns:sodipodi="http://sodipodi.sourceforge.net/DTD/sodipodi-0.dtd"
   xmlns="http://www.w3.org/2000/svg"
   xmlns:svg="http://www.w3.org/2000/svg">
  <sodipodi:namedview
     id="namedview394"
     pagecolor="#ffffff"
     bordercolor="#666666"
     borderopacity="1.0"
     inkscape:pageshadow="2"
     inkscape:pageopacity="0.0"
     inkscape:pagecheckerboard="0"
     showgrid="false"
     inkscape:zoom="0.42235244"
     inkscape:cx="263.99753"
     inkscape:cy="159.81913"
     inkscape:window-width="1296"
     inkscape:window-height="811"
     inkscape:window-x="0"
     inkscape:window-y="23"
     inkscape:window-maximized="0"
     inkscape:current-layer="svg392" />
  <g
     clip-path="url(#clip0_160_425)"
     id="g378">
    <path
       d="M 764.844,230.819 717.744,98.9173 595.36,82.8809 566.659,10.2961 431.101,27.8165 l 6.801,-62.1227 h 326.942 c 0,0 0,266.2402 0,265.1252 z"
       fill="#2d1f30"
       id="path348" />
    <path
       d="m 728.446,131.278 -1.059,-1.034 c 4.323,-4.385 7.742,-9.509 10.162,-15.231 5.092,-12.02 5.181,-25.2952 0.267,-37.389 C 732.894,65.5302 723.546,56.0797 711.497,51 699.448,45.9203 686.141,45.8243 674.018,50.7342 661.903,55.6441 652.422,64.9691 647.33,76.989 c -1.724,4.0756 -2.894,8.3505 -3.463,12.6919 l -1.466,-0.192 c 0.585,-4.4816 1.791,-8.8747 3.567,-13.0758 5.248,-12.3817 15.01,-21.9873 27.495,-27.0448 12.486,-5.0575 26.2,-4.9616 38.612,0.2732 12.411,5.2347 22.04,14.9732 27.11,27.4288 5.07,12.4555 4.973,26.1367 -0.274,38.5187 -2.494,5.892 -6.017,11.171 -10.473,15.689 z"
       fill="#ffffff"
       id="path350" />
    <path
       d="m 692.558,146.377 c -6.631,0 -13.337,-1.314 -19.746,-4.017 -20.834,-8.778 -33.342,-30.522 -30.404,-52.871 l 1.466,0.192 c -2.85,21.692 9.288,42.793 29.515,51.321 18.629,7.856 39.825,3.633 54.006,-10.757 l 1.058,1.033 c -9.725,9.872 -22.662,15.099 -35.888,15.099 z"
       fill="#2d1f30"
       id="path352" />
    <path
       d="m 208.64,-34.3062 83.062,57.8035 11.02,-57.8035 z"
       fill="#2d1f30"
       id="path354" />
    <path
       d="m 654.694,373.862 77.8,99.94 -44.761,32.959 25.578,35.085 -114.036,-9.569 -2.131,137.152 -14.329,0.325 c 1.828,1.166 3.138,2.938 3.479,5.308 l 185.633,0.746 2.132,-335.968 z"
       fill="#2d1f30"
       id="path356" />
    <path
       d="m 683.521,437.572 -63.153,-25.738 26.533,-64.78 41.039,16.73 -0.555,1.366 -39.677,-16.169 -25.408,62.041 60.415,24.623 6.757,-16.509 1.369,0.562 z"
       fill="#ff6868"
       id="path358" />
    <path
       d="m 690.841,419.698 -1.369,-0.562 18.65,-45.532 -20.737,-8.454 0.555,-1.366 22.114,9.008 z"
       fill="#ffffff"
       id="path360" />
    <path
       d="m 634.896,271.766 57.596,-53.358 29.485,38.282 z"
       fill="#2d1f30"
       id="path362" />
    <path
       d="M 372.27,58.5975 349.741,-11.6099 403.769,7.08454 Z"
       fill="#2d1f30"
       id="path364" />
    <path
       d="m 577.501,637.777 -16.408,-57.405 50.179,25.841 z"
       fill="#ff6868"
       id="path366" />
    <path
       d="m 546.039,38.0868 -69.673,39.552 27.998,-79.10413 z"
       fill="#ff6868"
       id="path368" />
    <path
       d="m 644.177,633.908 -1.435,-0.347 12.53,-51.424 44.369,28.447 -4.426,-36.783 29.804,-13.836 0.622,1.336 -28.827,13.386 4.67,38.836 -45.265,-29.024 z"
       fill="#ff6868"
       id="path370" />
    <path
       d="m 617.548,263.963 -0.384,-1.425 65.573,-17.764 -33.608,-25.236 43.192,-22.121 0.674,1.307 -41.083,21.05 34.133,25.635 z"
       fill="#ff6868"
       id="path372" />
    <path
       d="M 13.8437,658.226 13,657.015 39.5772,638.638 25.604,612.302 54.7346,587 l 0.9695,1.115 -28.2424,24.527 14.0324,26.462 z"
       fill="#ff6868"
       id="path374" />
    <rect
       x="13"
       y="454"
       width="730"
       height="265"
       fill="url(#paint0_linear_160_425)"
       id="rect376" />
  </g>
  <defs
     id="defs390">
    <linearGradient
       id="paint0_linear_160_425"
       x1="377.047"
       y1="454"
       x2="377.375"
       y2="644.20203"
       gradientUnits="userSpaceOnUse">
      <stop
         stop-color="#FDE7EF"
         id="stop380" />
      <stop
         stop-color="#FDE7EF"
         stop-opacity="0"
         id="stop382" />
      <stop
         offset="1"
         stop-color="#FDE7EF"
         id="stop384" />
    </linearGradient>
    <clipPath
       id="clip0_160_425">
      <rect
         width="796.117"
         height="711.89301"
         fill="#ffffff"
         transform="translate(-22.0587,-36.0854)"
         id="rect387"
         x="0"
         y="0" />
    </clipPath>
  </defs>
</svg>
