<svg width="524" height="744" viewBox="0 0 524 744" fill="none" xmlns="http://www.w3.org/2000/svg">
<path d="M-11.8794 143.274L45.8563 44.1317L224.207 73.6942L154.689 -56H-11.8794C-11.8794 -56 -11.8794 144.116 -11.8794 143.274Z" fill="#2D1F30"/>
<path d="M116.28 93.7212C96.9043 93.7212 79.7709 79.7004 76.5366 60.0167C75.8261 55.6753 75.8187 51.2971 76.5292 47L77.9872 47.2363C77.3063 51.3783 77.3063 55.5941 77.9946 59.773C81.4583 80.8448 101.456 95.1757 122.579 91.7278C138.972 89.0476 151.842 76.2746 154.596 59.9355L156.054 60.1791C153.197 77.1384 139.838 90.3988 122.815 93.1823C120.617 93.544 118.434 93.7138 116.273 93.7138L116.28 93.7212Z" fill="#FF6868"/>
<path d="M15.1272 217.764L63.5597 153.987L138.932 219.528L15.1272 217.764Z" fill="#2D1F30"/>
<path d="M328.888 649.883L187.143 581.839L70.1466 632.769L91.2249 499.974L16.637 468.772L103.496 398.07L-18 372.554L-8.9559 652.01L328.888 649.883Z" fill="#2D1F30"/>
<path d="M33.8962 247.06L64.8845 198.493L122.568 267.01L33.8962 247.06Z" fill="#FF6868"/>
<path d="M156.524 59.8825L155.066 59.6388C155.77 55.4525 155.777 51.185 155.081 46.947C153.401 36.736 147.843 27.7948 139.421 21.7553C130.998 15.7232 120.725 13.3163 110.497 14.9923C94.0299 17.6872 81.152 30.5193 78.458 46.9322L77 46.696C79.7976 29.6554 93.1639 16.3286 110.26 13.5378C120.881 11.8027 131.546 14.2982 140.286 20.5592C149.027 26.8276 154.8 36.1084 156.547 46.7107C157.272 51.1038 157.265 55.5337 156.532 59.8825H156.524Z" fill="white"/>
<path d="M420.581 735.04L373 728.233L400.547 661.327L401.886 662.044L375.206 726.84L420.766 733.359L420.581 735.04Z" fill="white"/>
<path d="M478.783 743.366L420.581 735.04L420.766 733.359L477.858 741.525L521.776 623.436L420.396 617.085L401.886 662.044L400.547 661.327L419.486 615.337L523.959 621.882L478.783 743.366Z" fill="#FF6868"/>
<rect x="-47" y="479" width="571" height="264" fill="url(#paint0_linear_206_372)"/>
<defs>
<linearGradient id="paint0_linear_206_372" x1="238" y1="467.5" x2="244.975" y2="669.759" gradientUnits="userSpaceOnUse">
<stop stop-color="#FDE7EF"/>
<stop stop-color="#FDE7EF" stop-opacity="0"/>
<stop offset="1" stop-color="#FDE7EF"/>
</linearGradient>
</defs>
</svg>
