<svg width="581" height="545" viewBox="0 0 581 545" fill="none" xmlns="http://www.w3.org/2000/svg">
<path d="M429.697 448.933L169.838 445.826C169.838 445.826 135.823 463.678 143.986 479.976C153.053 498.081 227.574 525.771 295.005 525.771C386.452 525.771 436.498 505.588 445.343 482.306C449.791 470.594 429.697 448.933 429.697 448.933Z" fill="#113E48"/>
<path d="M299.362 406.666C411.764 406.666 502.883 315.765 502.883 203.634C502.883 91.5023 411.764 0.601807 299.362 0.601807C186.96 0.601807 95.8399 91.5023 95.8399 203.634C95.8399 315.765 186.96 406.666 299.362 406.666Z" fill="#1599BE"/>
<path d="M503.838 218.138C503.838 218.138 501.81 217.37 500.981 217.466C498.073 217.813 500.226 221.269 500.226 221.269C500.226 221.269 499.508 220.995 499.027 221.062C497.148 221.313 496.748 225.152 496.748 225.152C496.748 225.152 489.784 222.605 490.198 226.585C490.457 229.095 497.784 231.849 497.784 231.849C497.784 231.849 498.783 233.96 499.109 235.762C499.109 235.762 499.945 240.982 498.828 242.363C497.584 243.913 490.279 246.143 490.279 246.143C489.791 244.319 489.436 242.355 489.672 241.004C490.183 238.125 493.136 228.157 488.525 225.957C484.788 224.17 483.012 238.501 481.827 241.115C480.192 244.74 473.768 251.341 472.694 257.469C471.014 267.067 473.612 269.909 473.612 269.909L464.805 278.755L460.964 276.074C460.964 276.074 443.038 298.069 423.196 316.092L420.391 313.655C421.287 314.534 422.182 315.383 423.085 316.195C423.078 316.202 423.063 316.217 423.056 316.225L420.399 313.655C398.447 292.074 378.716 251.282 360.28 238.774C346.654 229.523 319.433 226.26 318.027 226.105L316.599 214.055C320.921 209.404 327.375 195.804 327.375 195.804C327.375 195.804 336.804 196.941 338.513 181.761C340.023 182.1 294.284 136.258 294.284 136.258L262.157 177.907C263.748 198.07 271.815 195.235 271.815 195.235C274.05 202.737 278.135 209.463 282.694 214.232L281.532 226.193C277.936 226.592 273.051 227.53 269.565 228.201H269.469C258.449 230.343 248.198 233.894 240.168 239.564C221.969 252.411 202.622 292.074 180.671 313.655L178.014 316.225C178.014 316.225 177.992 316.202 177.984 316.195C178.887 315.383 179.783 314.534 180.678 313.655L177.873 316.092C158.031 298.069 140.106 276.074 140.106 276.074L135.835 278.592L127.324 270.013C127.324 270.013 129.315 265.228 128.375 257.461C127.627 251.282 120.878 244.733 119.242 241.107C118.065 238.494 116.289 224.163 112.551 225.95C107.933 228.15 110.894 238.125 111.404 240.997C111.974 244.216 110.857 246.165 110.857 246.165L101.243 242.385L101.968 235.755C102.294 233.953 102.715 232.351 103.093 231.184C103.374 230.32 110.62 229.087 110.879 226.577C111.286 222.598 104.329 225.145 104.329 225.145C104.329 225.145 103.929 221.305 102.049 221.054C101.561 220.988 100.85 221.261 100.85 221.261C100.85 221.261 103.004 217.806 100.095 217.459C99.2666 217.363 97.7271 218.256 97.7271 218.256C89.2677 218.382 87.3138 236.087 87.9651 242.887C88.4832 248.299 89.2751 256.834 100.836 270.19C105.35 275.403 115.519 293.632 116.348 295.116L111.767 298.785C111.767 298.785 155.004 366.933 178.465 365.471C196.509 364.349 227.172 333.442 235.838 324.25L236.704 362.089L231.982 383.936C231.982 383.936 155.67 340.205 141.305 386.402C133.319 412.081 167.43 436.719 204.154 455.118C204.154 455.118 201.89 466.459 214.427 474.241C227.12 482.119 253.031 482.636 269.439 482.052C279.416 485.478 285.714 487.354 285.714 487.354L290.206 480.199C297.186 479.114 302.322 477.851 303.869 477.453L307.555 485.715L329.61 478.952C345.071 479.476 371.263 479.173 385.858 472.698C393.451 469.331 397.5 459.711 393.984 454.542C431.892 436.963 466.374 413.425 459.047 387.864C447.975 349.25 397.988 370.388 368.747 381.781L366.149 354.854L365.113 323.955C373.609 332.985 404.501 364.349 422.641 365.478C446.102 366.94 489.339 298.793 489.339 298.793L484.758 295.123C485.587 293.639 495.756 275.41 500.271 270.197C511.831 256.841 512.623 248.299 513.141 242.894C513.793 236.094 514.488 221.269 503.868 218.138H503.838Z" fill="white"/>
<path d="M175.09 365.228C176.807 365.331 178.532 365.323 180.264 365.257C198.478 362.326 227.438 333.132 235.816 324.243L236.682 345.13L231.96 383.929C231.96 383.929 245.297 392.228 251.625 393.786C258.36 395.447 280.008 400.645 286.935 401.073C293.626 401.487 306.319 402.417 312.913 401.073C319.826 399.663 347.631 388.972 354.462 387.289C364.069 384.926 370.856 380.932 368.709 381.766L366.112 354.839L365.076 323.94C373.572 332.97 404.464 364.334 422.604 365.464C446.065 366.926 489.302 298.778 489.302 298.778L460.964 276.082C460.964 276.082 443.038 298.077 423.196 316.099L420.391 313.663C421.287 314.541 422.182 315.391 423.085 316.203C423.078 316.21 423.063 316.225 423.055 316.232L420.398 313.663C398.447 292.082 378.716 251.289 360.28 238.782C351.428 232.772 337.521 229.243 328.477 227.463C327.87 245.781 300.59 261.05 300.59 261.05C300.59 261.05 273.754 246.719 272.066 227.958C272.059 227.84 270.542 228.024 269.565 228.209H269.469C258.448 230.35 248.198 233.902 240.168 239.572C221.969 252.419 202.622 292.082 180.671 313.663L178.014 316.232C178.014 316.232 177.992 316.21 177.984 316.203C178.887 315.391 179.783 314.541 180.678 313.663L177.873 316.099C158.031 298.077 140.106 276.082 140.106 276.082L111.767 298.778C111.767 298.778 151.118 360.798 175.113 365.22L175.09 365.228Z" fill="#113E48"/>
<path d="M299.754 222.435C299.709 222.435 299.665 222.435 299.613 222.435C283.272 222.324 270.446 204.538 267.7 178.187L269.173 178.032C271.837 203.6 284.071 220.848 299.621 220.951C299.665 220.951 299.709 220.951 299.754 220.951C314.275 220.951 326.627 204.258 330.513 179.346L331.978 179.575C327.974 205.232 315.037 222.428 299.754 222.428V222.435Z" fill="#113E48"/>
<path d="M277.477 138.68C277.055 146.646 278.639 158.437 292.264 167.393C295.432 169.475 306.267 174.717 311.499 174.828C311.625 174.828 311.433 168.36 311.433 168.36C311.433 168.36 316.902 173.617 321.321 176.15C328.033 179.996 343.42 182.27 343.42 182.27C343.42 182.27 345.174 160.106 341.451 147.576C332.074 115.998 298.903 113.776 286.824 123.027C283.324 125.707 277.906 130.558 277.477 138.68Z" fill="#113E48"/>
<path d="M177.614 365.951C153.849 365.951 112.788 301.665 111.034 298.903C110.834 298.586 110.901 298.165 111.197 297.936L139.536 275.24C139.854 274.989 140.313 275.033 140.572 275.351C140.749 275.572 158.778 297.619 178.413 315.427L177.414 316.52C159.459 300.24 142.851 280.431 139.891 276.85L112.64 298.675C116.837 305.164 156.654 365.796 178.31 364.459C199.307 363.153 234.906 323.571 235.268 323.165L236.371 324.147C234.898 325.801 200.002 364.585 178.406 365.929C178.147 365.943 177.881 365.951 177.614 365.951Z" fill="#113E48"/>
<path d="M127.795 269.255L126.737 270.287L135.746 279.478L136.804 278.445L127.795 269.255Z" fill="#113E48"/>
<path d="M124.919 276.636L123.69 275.809C123.749 275.727 129.307 267.31 127.546 257.321C126.873 253.489 123.927 249.332 121.566 245.995C120.226 244.105 119.072 242.473 118.472 241.144C118.124 240.369 117.762 238.819 117.31 236.855C116.467 233.222 115.06 227.146 113.358 226.333C113.166 226.237 112.988 226.245 112.773 226.348C109.295 228.009 110.931 235.496 111.723 239.092C111.856 239.697 111.967 240.214 112.033 240.598C112.625 243.957 110.96 249.162 110.894 249.384L109.487 248.934C109.502 248.882 111.108 243.854 110.583 240.856C110.516 240.48 110.405 239.985 110.279 239.402C109.347 235.127 107.608 227.175 112.137 225.012C112.759 224.717 113.403 224.709 114.002 224.997C116.171 226.038 117.436 230.83 118.754 236.522C119.175 238.331 119.538 239.896 119.827 240.539C120.367 241.735 121.485 243.315 122.78 245.146C125.229 248.609 128.279 252.913 129.011 257.07C130.876 267.665 125.17 276.274 124.926 276.636H124.919Z" fill="#113E48"/>
<path d="M115.652 295.3C115.541 295.108 104.773 275.713 100.169 270.397C88.4758 256.893 87.632 248.018 87.1214 242.71C86.6033 237.32 87.632 225.115 92.3983 219.799C93.8933 218.131 95.6474 217.267 97.6013 217.237L97.6235 218.714C96.0989 218.736 94.7149 219.43 93.5011 220.781C89.09 225.699 88.1131 237.563 88.5868 242.532C89.1122 248.025 89.9042 256.273 101.28 269.43C105.979 274.864 116.489 293.78 116.94 294.584L115.645 295.3H115.652Z" fill="#113E48"/>
<path d="M113.136 273.283L111.708 272.892C111.722 272.833 113.291 266.956 110.738 260.045C110.079 258.251 107.955 255.601 105.905 253.031C103.722 250.292 101.657 247.708 101.183 245.973C99.8881 241.174 100.969 234.743 102.286 230.682C103.492 226.983 103.707 223.557 102.834 222.162C102.59 221.77 102.279 221.564 101.849 221.512C99.7031 221.224 96.7131 230.077 95.2181 238.449L93.7601 238.191C94.3226 235.053 97.3422 219.43 102.049 220.05C102.908 220.168 103.618 220.626 104.092 221.379C105.446 223.528 104.78 227.832 103.7 231.14C102.442 235.001 101.405 241.107 102.619 245.589C103.011 247.029 105.069 249.613 107.067 252.108C109.191 254.766 111.389 257.52 112.129 259.536C114.853 266.919 113.203 273.032 113.136 273.291V273.283Z" fill="#113E48"/>
<path d="M103.448 232.262L102.923 230.881C105.787 229.804 109.894 227.648 110.035 226.23C110.109 225.536 109.887 225.278 109.717 225.145C108.814 224.443 106.105 224.967 104.477 225.566L103.966 224.177C104.447 224 108.718 222.501 110.627 223.978C111.108 224.347 111.648 225.063 111.515 226.378C111.227 229.198 104.751 231.775 103.448 232.262Z" fill="#113E48"/>
<path d="M92.0727 233.916L90.6221 233.628C90.9921 231.797 94.3892 215.768 100.081 216.447C101.287 216.588 101.813 217.193 102.042 217.665C102.738 219.12 101.524 221.143 101.383 221.372L100.125 220.597C100.51 219.976 100.961 218.825 100.71 218.308C100.606 218.101 100.34 217.968 99.9104 217.917C96.6318 217.533 93.3679 227.522 92.0801 233.923L92.0727 233.916Z" fill="#113E48"/>
<path d="M110.42 246.645C109.102 246.645 104.788 246.276 100.917 241.838L102.034 240.871C106.09 245.515 110.642 245.168 110.694 245.161L110.827 246.63C110.827 246.63 110.657 246.645 110.427 246.645H110.42Z" fill="#113E48"/>
<path d="M173.425 320.581L172.537 319.399C185.496 309.698 197.471 292.399 209.046 275.661C219.719 260.223 229.806 245.648 239.65 238.693C251.699 230.188 269.076 226.813 281.54 225.477L281.695 226.946C264.081 228.836 249.834 233.311 240.501 239.904C230.872 246.704 220.858 261.175 210.26 276.503C198.618 293.337 186.577 310.739 173.425 320.581Z" fill="#113E48"/>
<path d="M281.799 229.944L280.356 229.626C282.021 222.029 282.036 213.893 282.036 213.812H283.516C283.516 213.893 283.494 222.192 281.799 229.944Z" fill="#113E48"/>
<path d="M317.65 229.021C315.955 219.305 316.54 213.11 316.569 212.844L318.042 212.992C318.042 213.051 317.45 219.268 319.108 228.763L317.65 229.014V229.021Z" fill="#113E48"/>
<path d="M294.44 153.49C293.285 163.295 285.189 171.469 277.269 175.758C272.94 178.106 256.813 183.577 256.813 183.577C256.813 183.577 251.603 159.227 260.092 140.533C269.609 119.587 289.622 122.37 289.622 122.37C289.622 122.37 295.639 143.361 294.447 153.49H294.44Z" fill="#113E48"/>
<path d="M328.44 196.402C328.063 196.402 327.671 196.38 327.278 196.335L327.449 194.866C329.565 195.11 331.43 194.571 332.992 193.264C337.795 189.233 338.417 179.31 338.424 179.206L339.905 179.288C339.882 179.723 339.239 189.949 333.947 194.394C332.356 195.73 330.505 196.402 328.44 196.402Z" fill="#113E48"/>
<path d="M298.94 201.371C297.06 201.371 295.099 200.987 294.61 199.488C294.166 198.122 294.344 195.9 294.544 193.33C294.877 189.085 295.291 183.813 292.952 181.059C288.882 176.26 276.33 179.952 276.204 179.989L275.774 178.579C276.33 178.409 289.378 174.569 294.077 180.107C296.801 183.319 296.364 188.937 296.009 193.448C295.831 195.767 295.654 197.952 296.009 199.038C296.357 200.108 299.865 200.027 302.255 199.554L302.544 201.001C302.011 201.105 300.501 201.378 298.925 201.378L298.94 201.371Z" fill="#113E48"/>
<path d="M321.446 181.702C313.638 176.962 306.356 180.993 306.282 181.038L305.549 179.753C305.874 179.568 313.675 175.256 322.216 180.439L321.446 181.702Z" fill="#113E48"/>
<path d="M271.556 196.335C261.542 195.974 261.091 177.826 261.076 177.05L262.556 177.021C262.556 177.198 262.993 194.541 271.615 194.859L271.563 196.335H271.556Z" fill="#113E48"/>
<path d="M285.078 185.253C281.525 185.253 278.32 184.345 278.128 184.286L278.542 182.868C278.609 182.891 285.196 184.751 289.577 183.068L290.11 184.448C288.549 185.046 286.78 185.253 285.085 185.253H285.078Z" fill="#113E48"/>
<path d="M314.023 186.331C310.471 186.331 307.266 185.423 307.066 185.364L307.48 183.947C307.547 183.969 314.134 185.829 318.515 184.146L319.048 185.527C317.487 186.125 315.718 186.331 314.023 186.331Z" fill="#113E48"/>
<path d="M299.776 209.655C295.942 209.655 293.204 207.986 293.034 207.883L293.818 206.628C294.04 206.768 299.31 209.943 305.305 206.783L305.993 208.09C303.773 209.256 301.641 209.655 299.769 209.655H299.776Z" fill="#113E48"/>
<path d="M300.583 269.282C300.479 269.282 300.376 269.26 300.279 269.215C299.968 269.075 269.224 254.929 266.567 228.674L268.04 228.526C270.46 252.492 297.282 266.137 300.561 267.717C303.935 265.886 332.681 249.672 332.518 228.748L333.999 228.733C334.184 251.754 302.285 268.492 300.923 269.193C300.82 269.245 300.701 269.275 300.583 269.275V269.282Z" fill="white"/>
<path d="M394.006 454.668L331.305 478.797C346.765 479.321 371.441 479.07 386.035 472.595C393.866 469.125 398.121 459.704 393.999 454.668H394.006Z" fill="#1599BE"/>
<path d="M285.603 487.804C285.529 487.804 285.462 487.797 285.388 487.775C285.322 487.752 278.831 485.811 268.78 482.355L269.261 480.96C277.632 483.839 283.523 485.663 285.277 486.195L289.518 479.446L290.776 480.229L286.239 487.457C286.099 487.679 285.862 487.804 285.61 487.804H285.603Z" fill="#113E48"/>
<path d="M338.121 479.941C334.702 479.941 331.897 479.875 330.039 479.808L330.091 478.332C338.913 478.634 368.976 479.048 385.451 471.738C389.64 469.878 393.037 465.802 394.103 461.357C394.783 458.508 394.376 455.99 392.955 454.255L394.103 453.324C395.82 455.429 396.338 458.404 395.546 461.704C394.384 466.585 390.654 471.059 386.058 473.097C372.802 478.974 351.058 479.948 338.136 479.948L338.121 479.941Z" fill="#113E48"/>
<path d="M203.718 455.495C182.506 444.87 166.283 434.202 155.5 423.784C141.993 410.745 136.945 398.002 140.483 385.908C143.325 376.214 149.12 369.709 157.705 366.586C172.004 361.381 193.697 365.345 222.169 378.377C243.299 388.049 260.484 399.382 260.654 399.493L259.833 400.726C259.152 400.276 191.491 355.851 158.209 367.974C150.09 370.935 144.598 377.107 141.904 386.329C138.529 397.854 143.451 410.095 156.529 422.728C167.208 433.035 183.306 443.615 204.384 454.181L203.718 455.502V455.495Z" fill="#113E48"/>
<path d="M325.376 192.26C325.376 194.135 323.815 195.656 321.898 195.656C319.981 195.656 318.419 194.135 318.419 192.26C318.419 190.384 319.981 188.864 321.898 188.864C323.815 188.864 325.376 190.384 325.376 192.26Z" fill="#1599BE"/>
<path d="M281.51 193.485C281.051 195.309 279.172 196.409 277.306 195.944C275.441 195.479 274.302 193.626 274.753 191.802C275.205 189.978 277.092 188.878 278.957 189.343C280.822 189.809 281.962 191.662 281.51 193.485Z" fill="#1599BE"/>
<path d="M427.459 320.581C414.3 310.739 402.266 293.329 390.624 276.503C380.026 261.175 370.012 246.704 360.383 239.904C347.883 231.074 328.537 227.884 318.123 226.769L318.279 225.3C328.84 226.429 348.46 229.678 361.234 238.693C371.078 245.641 381.166 260.223 391.838 275.661C403.413 292.399 415.381 309.698 428.347 319.399L427.459 320.581Z" fill="#113E48"/>
<path d="M423.27 365.951C423.004 365.951 422.737 365.944 422.478 365.929C400.882 364.585 365.986 325.794 364.513 324.147L365.616 323.165C365.971 323.564 401.578 363.145 422.574 364.46C444.223 365.803 484.055 305.165 488.244 298.675L460.993 276.85C458.026 280.431 441.418 300.24 423.47 316.52L422.471 315.427C442.106 297.619 460.135 275.573 460.312 275.351C460.572 275.034 461.03 274.989 461.349 275.24L489.687 297.936C489.983 298.173 490.05 298.586 489.85 298.904C488.096 301.672 447.035 365.951 423.27 365.951Z" fill="#113E48"/>
<path d="M473.091 269.286L464.08 278.475L465.138 279.507L474.149 270.319L473.091 269.286Z" fill="#113E48"/>
<path d="M475.973 276.636C475.729 276.274 470.023 267.658 471.888 257.07C472.62 252.913 475.67 248.609 478.119 245.146C479.415 243.315 480.532 241.735 481.072 240.539C481.361 239.897 481.724 238.331 482.146 236.523C483.463 230.837 484.729 226.038 486.897 224.997C487.497 224.709 488.148 224.717 488.762 225.012C493.292 227.175 491.56 235.127 490.62 239.402C490.494 239.985 490.383 240.48 490.316 240.857C489.783 243.862 491.39 248.882 491.412 248.934L490.006 249.384C489.932 249.163 488.266 243.958 488.866 240.598C488.932 240.207 489.043 239.697 489.177 239.092C489.961 235.496 491.597 228.01 488.126 226.348C487.911 226.245 487.733 226.238 487.541 226.334C485.839 227.153 484.433 233.23 483.589 236.862C483.137 238.826 482.775 240.377 482.427 241.152C481.827 242.481 480.673 244.113 479.333 246.003C476.965 249.34 474.027 253.497 473.353 257.329C471.592 267.318 477.157 275.735 477.209 275.816L475.981 276.643L475.973 276.636Z" fill="#113E48"/>
<path d="M485.232 295.301L483.937 294.585C484.381 293.78 494.89 274.864 499.597 269.43C510.98 256.28 511.772 248.026 512.29 242.569C513.03 234.861 512.808 221.557 503.061 218.685L503.483 217.267C514.244 220.435 514.547 234.544 513.77 242.673C513.26 248.011 512.409 256.886 500.722 270.39C496.119 275.706 485.35 295.101 485.239 295.293L485.232 295.301Z" fill="#113E48"/>
<path d="M487.748 273.284C487.674 273.025 486.031 266.912 488.755 259.529C489.502 257.513 491.693 254.767 493.817 252.101C495.815 249.606 497.873 247.022 498.265 245.582C499.479 241.1 498.443 235.002 497.185 231.133C496.104 227.825 495.438 223.521 496.792 221.372C497.266 220.619 497.976 220.154 498.835 220.043C503.512 219.408 506.562 235.046 507.124 238.184L505.666 238.442C504.171 230.07 501.211 221.188 499.035 221.505C498.606 221.564 498.295 221.771 498.05 222.155C497.17 223.55 497.392 226.969 498.598 230.675C499.916 234.729 500.996 241.167 499.701 245.966C499.235 247.701 497.17 250.285 494.979 253.024C492.929 255.594 490.805 258.244 490.146 260.038C487.585 266.979 489.162 272.826 489.177 272.885L487.748 273.284Z" fill="#113E48"/>
<path d="M497.436 232.262C496.141 231.775 489.665 229.198 489.369 226.378C489.236 225.064 489.776 224.348 490.257 223.978C492.167 222.502 496.437 224.001 496.918 224.178L496.407 225.566C494.772 224.968 492.07 224.444 491.167 225.145C490.997 225.278 490.775 225.536 490.849 226.23C490.997 227.648 495.097 229.804 497.962 230.882L497.436 232.262Z" fill="#113E48"/>
<path d="M508.812 233.916C507.524 227.522 504.267 217.525 500.981 217.909C500.552 217.961 500.278 218.094 500.182 218.301C499.93 218.818 500.382 219.969 500.767 220.59L499.509 221.365C499.368 221.136 498.147 219.105 498.85 217.658C499.079 217.178 499.605 216.58 500.811 216.44C506.532 215.753 509.9 231.79 510.27 233.621L508.819 233.909L508.812 233.916Z" fill="#113E48"/>
<path d="M490.464 246.645C490.235 246.645 490.094 246.638 490.065 246.63L490.198 245.161C490.383 245.176 494.831 245.486 498.857 240.871L499.975 241.839C496.104 246.276 491.789 246.645 490.472 246.645H490.464Z" fill="#113E48"/>
<path d="M301.434 402.454C286.24 402.454 277.595 400.401 265.968 397.647C261.342 396.547 256.102 395.307 249.797 394.052L250.085 392.605C256.413 393.867 261.668 395.115 266.308 396.215C278.801 399.176 287.823 401.317 305.379 400.94C316.658 400.697 325.724 397.094 335.331 393.284C343.065 390.212 351.065 387.038 361.279 384.948L361.575 386.395C351.487 388.463 343.553 391.608 335.878 394.657C326.146 398.519 316.954 402.166 305.408 402.417C304.032 402.447 302.707 402.461 301.434 402.461V402.454Z" fill="#113E48"/>
<path d="M504.578 203.66H503.098C503.098 92.1725 412.183 1.47665 300.427 1.47665C188.671 1.47665 97.7567 92.1725 97.7567 203.66H96.2764C96.2764 149.26 117.51 98.1161 156.07 59.6493C194.629 21.1826 245.896 0 300.427 0C354.958 0 406.225 21.1826 444.785 59.6493C483.345 98.1161 504.578 149.26 504.578 203.66Z" fill="#113E48"/>
<path d="M232.493 382.895L231.087 382.423C231.168 382.172 239.48 356.847 234.143 320.618C232.397 308.775 235.505 295.448 237.77 285.71C238.384 283.067 238.917 280.778 239.295 278.806L240.745 279.08C240.36 281.088 239.827 283.384 239.206 286.042C236.963 295.662 233.892 308.834 235.601 320.396C240.997 356.995 232.567 382.63 232.486 382.888L232.493 382.895Z" fill="white"/>
<path d="M367.962 381.426C367.932 381.242 364.854 362.636 364.321 335.702C364.217 330.356 364.55 325.594 364.868 320.987C365.668 309.528 366.423 298.704 361.138 279.139L362.567 278.755C367.918 298.564 367.118 310.016 366.349 321.09C366.03 325.668 365.697 330.393 365.808 335.672C366.334 362.503 369.398 380.998 369.427 381.183L367.969 381.426H367.962Z" fill="white"/>
<path d="M386.235 365.058C382.246 340.59 360.383 325.048 336.093 325.188C333.488 325.203 331.578 327.307 331.593 329.958C331.608 332.616 333.665 334.432 336.367 334.639C354.981 336.086 370.278 346.88 372.928 366.726C375.171 383.523 361.975 403.871 347.742 412.739C356.712 409.372 365.86 405.717 375.089 402.358C383.349 391.032 388.604 379.507 386.243 365.058H386.235Z" fill="white"/>
<path d="M347.994 413.425L347.343 412.111C361.116 403.532 374.386 383.287 372.188 366.822C369.768 348.689 356.35 336.935 336.308 335.377C333.11 335.126 330.868 332.904 330.853 329.965C330.838 326.886 333.14 324.465 336.093 324.45C348.305 324.376 360.043 328.237 369.235 335.311C378.886 342.738 385.021 352.986 386.975 364.94C389.603 381.05 382.742 393.114 375.689 402.793L375.555 402.978L375.341 403.052C369.834 405.053 364.291 407.187 358.933 409.254C355.336 410.642 351.62 412.067 348.001 413.425H347.994ZM336.411 325.919C336.308 325.919 336.197 325.919 336.093 325.919C333.932 325.934 332.311 327.661 332.326 329.95C332.341 332.128 333.984 333.716 336.411 333.9C356.897 335.488 371.167 348.032 373.646 366.623C375.733 382.253 365.083 400.084 352.782 410.022C354.662 409.305 356.542 408.582 358.385 407.866C363.684 405.821 369.161 403.716 374.608 401.73C384.252 388.448 387.508 377.498 385.502 365.168C381.787 342.376 361.168 325.912 336.411 325.912V325.919Z" fill="#113E48"/>
<path d="M232.856 385.554C231.005 381.19 228.245 376.642 226.01 372.397C226.054 368.255 227.401 366.697 226.913 361.861C226.424 357.025 221.443 344.185 227.719 340.331C232.375 337.474 240.205 345.677 243.743 348.194C251.351 347.006 255.755 348.01 264.651 348.66C265.124 348.696 279.586 338.478 283.183 342.672C285.81 345.736 283.93 353.946 281.666 358.125C291.583 354.633 285.226 358.974 298.466 353.702C311.707 348.423 339.35 337.865 356.379 353.304C371.5 367.007 373.587 385.893 361.797 404.411C353.389 417.612 324.14 429.078 310.249 435.752C292.079 444.479 253.556 417.974 239.361 411.063C220.777 402.018 232.064 390.39 232.863 385.561L232.856 385.554Z" fill="white"/>
<path d="M351.406 360.111C351.332 360.111 351.258 360.082 351.206 360.023C351.154 359.978 351.132 359.904 351.132 359.831C351.132 359.757 351.154 359.69 351.213 359.639C351.302 359.535 351.495 359.535 351.606 359.639C351.657 359.69 351.687 359.757 351.687 359.831C351.687 359.904 351.657 359.971 351.606 360.03C351.546 360.082 351.48 360.111 351.406 360.111Z" fill="#1D1D1B"/>
<path d="M353.212 361.078C353.13 361.078 353.064 361.049 353.012 360.989C352.96 360.945 352.93 360.879 352.93 360.805C352.93 360.724 352.96 360.657 353.019 360.606C353.101 360.51 353.3 360.502 353.404 360.606C353.463 360.657 353.485 360.731 353.485 360.805C353.485 360.871 353.456 360.945 353.404 360.997C353.352 361.049 353.286 361.078 353.212 361.078Z" fill="#1D1D1B"/>
<path d="M354.736 357.896C354.662 357.896 354.588 357.859 354.536 357.808C354.492 357.763 354.462 357.689 354.462 357.616C354.462 357.542 354.492 357.475 354.544 357.424C354.633 357.32 354.825 357.313 354.936 357.424C354.98 357.475 355.01 357.542 355.01 357.616C355.01 357.689 354.988 357.763 354.936 357.815C354.884 357.867 354.81 357.896 354.736 357.896Z" fill="#1D1D1B"/>
<path d="M359.177 356.788C359.103 356.788 359.029 356.759 358.977 356.707C358.933 356.656 358.903 356.589 358.903 356.508C358.903 356.434 358.933 356.36 358.984 356.309C359.081 356.213 359.266 356.213 359.377 356.309C359.421 356.353 359.458 356.427 359.458 356.501C359.458 356.574 359.421 356.648 359.369 356.7C359.325 356.752 359.251 356.781 359.177 356.781V356.788Z" fill="#1D1D1B"/>
<path d="M351.406 356.788C351.332 356.788 351.258 356.759 351.206 356.7C351.154 356.655 351.132 356.582 351.132 356.508C351.132 356.434 351.162 356.36 351.213 356.308C351.302 356.22 351.495 356.205 351.606 356.308C351.65 356.353 351.687 356.427 351.687 356.5C351.687 356.574 351.657 356.648 351.606 356.7C351.554 356.751 351.48 356.781 351.406 356.781V356.788Z" fill="#1D1D1B"/>
<path d="M357.23 360.251C357.164 360.251 357.09 360.222 357.038 360.17C356.986 360.118 356.957 360.045 356.957 359.971C356.957 359.897 356.986 359.83 357.038 359.779C357.142 359.668 357.327 359.675 357.43 359.779C357.482 359.838 357.512 359.904 357.512 359.978C357.512 360.052 357.482 360.126 357.43 360.177C357.378 360.229 357.304 360.259 357.23 360.259V360.251Z" fill="#1D1D1B"/>
<path d="M354.877 354.293C354.803 354.293 354.729 354.263 354.677 354.212C354.633 354.167 354.596 354.094 354.596 354.02C354.596 353.946 354.625 353.872 354.684 353.82C354.773 353.724 354.966 353.717 355.069 353.82C355.121 353.865 355.151 353.939 355.151 354.02C355.151 354.094 355.121 354.167 355.069 354.219C355.017 354.263 354.951 354.293 354.877 354.293Z" fill="#1D1D1B"/>
<path d="M347.106 348.202C347.032 348.202 346.958 348.172 346.906 348.121C346.854 348.069 346.832 348.003 346.832 347.929C346.832 347.855 346.862 347.781 346.906 347.729C347.002 347.633 347.195 347.626 347.298 347.729C347.35 347.781 347.38 347.855 347.38 347.929C347.38 347.995 347.35 348.069 347.298 348.121C347.246 348.172 347.18 348.202 347.106 348.202Z" fill="#1D1D1B"/>
<path d="M349.045 349.863C348.971 349.863 348.897 349.833 348.845 349.782C348.801 349.73 348.771 349.656 348.771 349.59C348.771 349.516 348.801 349.442 348.852 349.39C348.949 349.294 349.141 349.287 349.245 349.39C349.296 349.442 349.326 349.516 349.326 349.59C349.326 349.664 349.296 349.73 349.245 349.782C349.193 349.833 349.119 349.863 349.045 349.863Z" fill="#1D1D1B"/>
<path d="M348.49 352.499C348.416 352.499 348.342 352.462 348.29 352.41C348.245 352.359 348.216 352.292 348.216 352.218C348.216 352.145 348.245 352.078 348.297 352.026C348.386 351.923 348.586 351.916 348.69 352.026C348.741 352.078 348.771 352.145 348.771 352.218C348.771 352.292 348.741 352.359 348.69 352.418C348.638 352.469 348.564 352.499 348.49 352.499Z" fill="#1D1D1B"/>
<path d="M344.33 350.277C344.256 350.277 344.182 350.247 344.131 350.195C344.079 350.144 344.049 350.077 344.049 350.003C344.049 349.93 344.086 349.856 344.138 349.804C344.227 349.708 344.419 349.701 344.523 349.804C344.575 349.848 344.604 349.922 344.604 349.996C344.604 350.07 344.582 350.136 344.523 350.195C344.471 350.24 344.404 350.269 344.33 350.269V350.277Z" fill="#1D1D1B"/>
<path d="M342.798 412.717C342.724 412.717 342.65 412.687 342.606 412.628C342.554 412.584 342.524 412.51 342.524 412.436C342.524 412.362 342.554 412.288 342.606 412.237C342.702 412.141 342.895 412.141 342.998 412.237C343.05 412.281 343.08 412.355 343.08 412.429C343.08 412.503 343.05 412.576 342.998 412.628C342.946 412.68 342.88 412.709 342.798 412.709V412.717Z" fill="#1D1D1B"/>
<path d="M347.794 410.775C347.727 410.775 347.653 410.745 347.602 410.694C347.55 410.642 347.52 410.576 347.52 410.502C347.52 410.421 347.55 410.354 347.602 410.302C347.705 410.199 347.89 410.199 347.994 410.302C348.046 410.354 348.075 410.428 348.075 410.502C348.075 410.576 348.046 410.642 347.994 410.694C347.942 410.745 347.868 410.775 347.794 410.775Z" fill="#1D1D1B"/>
<path d="M351.406 409.948C351.332 409.948 351.258 409.918 351.206 409.859C351.154 409.815 351.132 409.741 351.132 409.667C351.132 409.594 351.162 409.52 351.213 409.468C351.302 409.379 351.495 409.365 351.606 409.468C351.65 409.512 351.687 409.586 351.687 409.66C351.687 409.734 351.657 409.808 351.606 409.859C351.554 409.911 351.48 409.941 351.406 409.941V409.948Z" fill="#1D1D1B"/>
<path d="M344.464 409.948C344.39 409.948 344.323 409.919 344.271 409.86C344.219 409.815 344.19 409.741 344.19 409.668C344.19 409.594 344.219 409.527 344.271 409.476C344.367 409.372 344.56 409.365 344.663 409.476C344.715 409.527 344.745 409.594 344.745 409.668C344.745 409.741 344.715 409.815 344.663 409.867C344.612 409.919 344.538 409.948 344.464 409.948Z" fill="#1D1D1B"/>
<path d="M354.877 407.453C354.803 407.453 354.729 407.423 354.677 407.371C354.633 407.327 354.596 407.253 354.596 407.179C354.596 407.106 354.625 407.032 354.684 406.98C354.773 406.884 354.966 406.877 355.069 406.98C355.121 407.024 355.151 407.098 355.151 407.179C355.151 407.253 355.121 407.327 355.069 407.379C355.017 407.423 354.951 407.453 354.877 407.453Z" fill="#1D1D1B"/>
<path d="M349.045 403.023C348.971 403.023 348.897 402.993 348.845 402.941C348.801 402.89 348.771 402.816 348.771 402.749C348.771 402.676 348.801 402.602 348.852 402.55C348.949 402.454 349.141 402.447 349.245 402.55C349.296 402.602 349.326 402.676 349.326 402.749C349.326 402.823 349.296 402.89 349.245 402.941C349.193 402.993 349.119 403.023 349.045 403.023Z" fill="#1D1D1B"/>
<path d="M348.49 405.659C348.416 405.659 348.342 405.622 348.29 405.57C348.246 405.518 348.216 405.452 348.216 405.378C348.216 405.304 348.246 405.238 348.297 405.186C348.386 405.083 348.586 405.075 348.69 405.186C348.741 405.238 348.771 405.304 348.771 405.378C348.771 405.452 348.741 405.518 348.69 405.577C348.638 405.629 348.564 405.659 348.49 405.659Z" fill="#1D1D1B"/>
<path d="M355.565 398.179C355.499 398.179 355.425 398.15 355.373 398.098C355.321 398.046 355.291 397.98 355.291 397.899C355.291 397.825 355.321 397.758 355.373 397.707C355.484 397.603 355.661 397.603 355.765 397.707C355.817 397.758 355.846 397.832 355.846 397.899C355.846 397.972 355.817 398.046 355.765 398.098C355.713 398.15 355.639 398.179 355.565 398.179Z" fill="#1D1D1B"/>
<path d="M359.873 403.717C359.799 403.717 359.725 403.687 359.673 403.635C359.628 403.591 359.591 403.517 359.591 403.443C359.591 403.362 359.628 403.288 359.68 403.244C359.776 403.141 359.961 403.141 360.065 403.244C360.117 403.296 360.146 403.362 360.146 403.443C360.146 403.517 360.117 403.591 360.065 403.635C360.013 403.687 359.947 403.717 359.873 403.717Z" fill="#1D1D1B"/>
<path d="M354.455 399.981C354.388 399.981 354.314 399.951 354.263 399.9C354.211 399.848 354.181 399.781 354.181 399.7C354.181 399.626 354.211 399.56 354.263 399.508C354.366 399.405 354.551 399.405 354.655 399.508C354.707 399.56 354.736 399.626 354.736 399.7C354.736 399.774 354.707 399.848 354.655 399.9C354.603 399.951 354.529 399.981 354.455 399.981Z" fill="#1D1D1B"/>
<path d="M355.987 403.857C355.913 403.857 355.839 403.827 355.787 403.776C355.735 403.724 355.706 403.65 355.706 403.576C355.706 403.503 355.735 403.436 355.787 403.384C355.891 403.281 356.076 403.281 356.179 403.384C356.231 403.436 356.261 403.503 356.261 403.576C356.261 403.65 356.239 403.717 356.179 403.776C356.128 403.827 356.061 403.857 355.987 403.857Z" fill="#1D1D1B"/>
<path d="M352.516 402.469C352.442 402.469 352.375 402.439 352.324 402.388C352.272 402.343 352.242 402.269 352.242 402.196C352.242 402.122 352.264 402.048 352.316 401.996C352.427 401.893 352.612 401.893 352.716 401.996C352.768 402.048 352.797 402.122 352.797 402.196C352.797 402.269 352.76 402.343 352.708 402.388C352.664 402.439 352.59 402.469 352.516 402.469Z" fill="#1D1D1B"/>
<path d="M362.226 402.196C362.152 402.196 362.085 402.166 362.034 402.114C361.982 402.063 361.952 401.989 361.952 401.915C361.952 401.841 361.982 401.775 362.034 401.723C362.137 401.62 362.322 401.62 362.426 401.723C362.478 401.775 362.507 401.841 362.507 401.915C362.507 401.989 362.478 402.063 362.426 402.114C362.374 402.166 362.308 402.196 362.226 402.196Z" fill="#1D1D1B"/>
<path d="M365.002 397.906C364.935 397.906 364.861 397.869 364.809 397.817C364.757 397.766 364.728 397.699 364.728 397.626C364.728 397.552 364.757 397.485 364.809 397.426C364.913 397.323 365.098 397.323 365.201 397.426C365.253 397.485 365.283 397.552 365.283 397.626C365.283 397.699 365.253 397.766 365.201 397.825C365.15 397.869 365.076 397.906 365.002 397.906Z" fill="#1D1D1B"/>
<path d="M352.79 396.518C352.723 396.518 352.649 396.488 352.597 396.437C352.546 396.385 352.516 396.318 352.516 396.245C352.516 396.163 352.546 396.097 352.597 396.045C352.701 395.942 352.886 395.942 352.99 396.045C353.041 396.097 353.071 396.171 353.071 396.245C353.071 396.311 353.041 396.385 352.99 396.437C352.938 396.488 352.864 396.518 352.79 396.518Z" fill="#1D1D1B"/>
<path d="M359.591 396.932C359.517 396.932 359.451 396.902 359.399 396.85C359.347 396.799 359.317 396.732 359.317 396.658C359.317 396.577 359.347 396.511 359.399 396.459C359.495 396.363 359.688 396.356 359.791 396.459C359.843 396.511 359.873 396.585 359.873 396.658C359.873 396.725 359.843 396.799 359.791 396.85C359.739 396.902 359.665 396.932 359.591 396.932Z" fill="#1D1D1B"/>
<path d="M359.873 399.84C359.799 399.84 359.725 399.811 359.673 399.759C359.628 399.715 359.591 399.641 359.591 399.567C359.591 399.486 359.628 399.412 359.68 399.368C359.776 399.264 359.961 399.264 360.065 399.368C360.117 399.419 360.146 399.486 360.146 399.567C360.146 399.641 360.117 399.715 360.065 399.759C360.013 399.811 359.947 399.84 359.873 399.84Z" fill="#1D1D1B"/>
<path d="M356.261 362.186C356.194 362.186 356.12 362.156 356.068 362.105C356.017 362.053 355.987 361.979 355.987 361.905C355.987 361.831 356.017 361.765 356.068 361.713C356.179 361.61 356.357 361.61 356.461 361.713C356.512 361.765 356.542 361.839 356.542 361.905C356.542 361.979 356.512 362.053 356.461 362.105C356.409 362.156 356.335 362.186 356.261 362.186Z" fill="#1D1D1B"/>
<path d="M358.207 365.235C358.133 365.235 358.059 365.198 358.008 365.147C357.963 365.102 357.926 365.028 357.926 364.955C357.926 364.881 357.963 364.807 358.015 364.755C358.111 364.659 358.296 364.652 358.4 364.755C358.452 364.8 358.481 364.873 358.481 364.947C358.481 365.021 358.452 365.095 358.4 365.147C358.348 365.191 358.281 365.228 358.207 365.228V365.235Z" fill="#1D1D1B"/>
<path d="M363.758 366.756C363.684 366.756 363.61 366.726 363.558 366.675C363.507 366.616 363.477 366.549 363.477 366.475C363.477 366.409 363.507 366.335 363.558 366.283C363.669 366.173 363.854 366.18 363.958 366.283C364.002 366.335 364.032 366.402 364.032 366.475C364.032 366.549 364.002 366.623 363.951 366.675C363.906 366.719 363.832 366.756 363.758 366.756Z" fill="#1D1D1B"/>
<path d="M355.151 366.889C355.077 366.889 355.01 366.867 354.958 366.808C354.906 366.763 354.877 366.69 354.877 366.616C354.877 366.542 354.906 366.475 354.958 366.416C355.062 366.313 355.247 366.313 355.351 366.416C355.402 366.475 355.432 366.542 355.432 366.616C355.432 366.69 355.402 366.756 355.351 366.815C355.299 366.867 355.225 366.889 355.151 366.889Z" fill="#1D1D1B"/>
<path d="M358.762 368.004C358.688 368.004 358.614 367.967 358.563 367.915C358.518 367.871 358.481 367.797 358.481 367.723C358.481 367.649 358.518 367.576 358.57 367.524C358.666 367.428 358.851 367.428 358.955 367.524C359.007 367.568 359.036 367.642 359.036 367.716C359.036 367.79 359.007 367.864 358.955 367.915C358.903 367.96 358.836 367.996 358.762 367.996V368.004Z" fill="#1D1D1B"/>
<path d="M360.561 362.326C360.487 362.326 360.42 362.297 360.368 362.245C360.317 362.193 360.287 362.119 360.287 362.046C360.287 361.972 360.317 361.905 360.368 361.854C360.472 361.75 360.657 361.75 360.761 361.854C360.813 361.905 360.842 361.972 360.842 362.046C360.842 362.119 360.813 362.186 360.761 362.245C360.709 362.297 360.642 362.326 360.561 362.326Z" fill="#1D1D1B"/>
<path d="M364.173 363.847C364.099 363.847 364.025 363.817 363.973 363.766C363.921 363.714 363.899 363.648 363.899 363.574C363.899 363.493 363.921 363.426 363.973 363.374C364.084 363.271 364.261 363.271 364.372 363.374C364.424 363.426 364.446 363.493 364.446 363.574C364.446 363.648 364.417 363.714 364.372 363.766C364.321 363.817 364.247 363.847 364.173 363.847Z" fill="#1D1D1B"/>
<path d="M366.534 367.583C366.459 367.583 366.386 367.553 366.334 367.502C366.282 367.45 366.252 367.384 366.252 367.31C366.252 367.236 366.282 367.162 366.334 367.11C366.445 367.007 366.622 367.007 366.726 367.11C366.778 367.162 366.807 367.236 366.807 367.31C366.807 367.384 366.778 367.45 366.726 367.502C366.674 367.553 366.608 367.583 366.534 367.583Z" fill="#1D1D1B"/>
<path d="M356.261 387.931C356.187 387.931 356.12 387.909 356.068 387.857C356.017 387.806 355.987 387.732 355.987 387.658C355.987 387.584 356.017 387.518 356.068 387.466C356.179 387.355 356.357 387.363 356.461 387.466C356.512 387.525 356.542 387.592 356.542 387.665C356.542 387.739 356.512 387.813 356.461 387.865C356.409 387.916 356.335 387.939 356.261 387.939V387.931Z" fill="#1D1D1B"/>
<path d="M354.736 377.831C354.662 377.831 354.588 377.801 354.536 377.742C354.492 377.698 354.462 377.624 354.462 377.55C354.462 377.476 354.492 377.41 354.544 377.358C354.633 377.262 354.825 377.255 354.936 377.358C354.988 377.41 355.01 377.476 355.01 377.55C355.01 377.624 354.988 377.698 354.936 377.75C354.884 377.801 354.81 377.831 354.736 377.831Z" fill="#1D1D1B"/>
<path d="M363.477 377.137C363.403 377.137 363.336 377.107 363.285 377.056C363.233 377.011 363.203 376.938 363.203 376.856C363.203 376.783 363.233 376.709 363.285 376.664C363.381 376.561 363.573 376.561 363.677 376.664C363.729 376.716 363.758 376.783 363.758 376.856C363.758 376.938 363.729 377.004 363.669 377.056C363.625 377.107 363.551 377.137 363.477 377.137Z" fill="#1D1D1B"/>
<path d="M353.071 385.997C352.997 385.997 352.923 385.967 352.871 385.908C352.827 385.871 352.797 385.797 352.797 385.716C352.797 385.642 352.827 385.576 352.879 385.524C352.967 385.428 353.16 385.421 353.271 385.524C353.323 385.576 353.352 385.65 353.352 385.716C353.352 385.797 353.315 385.871 353.263 385.916C353.219 385.967 353.145 385.997 353.071 385.997Z" fill="#1D1D1B"/>
<path d="M367.917 390.567C367.843 390.567 367.777 390.537 367.725 390.486C367.673 390.434 367.644 390.36 367.644 390.286C367.644 390.213 367.673 390.146 367.725 390.094C367.829 389.991 368.014 389.991 368.117 390.094C368.169 390.146 368.199 390.213 368.199 390.286C368.199 390.36 368.169 390.434 368.117 390.486C368.066 390.537 367.991 390.567 367.917 390.567Z" fill="#1D1D1B"/>
<path d="M358.207 390.981C358.133 390.981 358.059 390.951 358.008 390.899C357.956 390.848 357.926 390.781 357.926 390.707C357.926 390.626 357.963 390.552 358.015 390.508C358.111 390.412 358.296 390.405 358.4 390.508C358.452 390.552 358.481 390.626 358.481 390.707C358.481 390.774 358.452 390.848 358.4 390.899C358.348 390.951 358.281 390.981 358.207 390.981Z" fill="#1D1D1B"/>
<path d="M361.908 392.782C361.834 392.782 361.76 392.752 361.708 392.701C361.656 392.649 361.627 392.575 361.627 392.501C361.627 392.428 361.656 392.361 361.708 392.309C361.812 392.206 361.997 392.206 362.1 392.309C362.152 392.361 362.182 392.428 362.182 392.501C362.182 392.575 362.152 392.649 362.1 392.701C362.048 392.752 361.982 392.782 361.908 392.782Z" fill="#1D1D1B"/>
<path d="M369.442 385.724C369.376 385.724 369.302 385.687 369.25 385.635C369.198 385.591 369.168 385.517 369.168 385.443C369.168 385.369 369.198 385.295 369.257 385.244C369.353 385.148 369.538 385.14 369.642 385.244C369.694 385.288 369.723 385.362 369.723 385.436C369.723 385.51 369.694 385.583 369.642 385.635C369.59 385.679 369.516 385.716 369.442 385.716V385.724Z" fill="#1D1D1B"/>
<path d="M355.565 384.195C355.499 384.195 355.425 384.166 355.373 384.114C355.321 384.062 355.291 383.996 355.291 383.922C355.291 383.848 355.321 383.774 355.373 383.723C355.484 383.619 355.661 383.619 355.765 383.723C355.817 383.774 355.846 383.848 355.846 383.922C355.846 383.996 355.817 384.062 355.765 384.114C355.713 384.166 355.647 384.195 355.565 384.195Z" fill="#1D1D1B"/>
<path d="M369.723 378.104C369.649 378.104 369.575 378.074 369.524 378.023C369.479 377.978 369.442 377.905 369.442 377.831C369.442 377.75 369.479 377.683 369.531 377.631C369.62 377.535 369.812 377.528 369.923 377.631C369.968 377.683 370.005 377.75 370.005 377.831C370.005 377.905 369.968 377.978 369.916 378.023C369.864 378.074 369.797 378.104 369.723 378.104Z" fill="#1D1D1B"/>
<path d="M359.177 376.723C359.103 376.723 359.036 376.694 358.977 376.642C358.933 376.59 358.903 376.517 358.903 376.443C358.903 376.369 358.933 376.295 358.984 376.243C359.081 376.147 359.266 376.147 359.377 376.243C359.421 376.288 359.458 376.362 359.458 376.435C359.458 376.509 359.421 376.583 359.369 376.635C359.317 376.686 359.251 376.716 359.177 376.716V376.723Z" fill="#1D1D1B"/>
<path d="M355.151 392.642C355.084 392.642 355.01 392.612 354.958 392.561C354.906 392.516 354.877 392.443 354.877 392.361C354.877 392.287 354.906 392.221 354.958 392.169C355.062 392.066 355.247 392.066 355.351 392.169C355.402 392.221 355.432 392.295 355.432 392.361C355.432 392.443 355.402 392.509 355.343 392.561C355.299 392.612 355.225 392.642 355.151 392.642Z" fill="#1D1D1B"/>
<path d="M365.697 374.782C365.631 374.782 365.557 374.752 365.505 374.7C365.453 374.656 365.423 374.582 365.423 374.508C365.423 374.427 365.453 374.361 365.505 374.309C365.608 374.206 365.793 374.206 365.897 374.309C365.949 374.361 365.978 374.434 365.978 374.508C365.978 374.582 365.949 374.656 365.89 374.7C365.845 374.752 365.771 374.782 365.697 374.782Z" fill="#1D1D1B"/>
<path d="M358.762 393.749C358.688 393.749 358.614 393.72 358.563 393.668C358.511 393.616 358.481 393.55 358.481 393.476C358.481 393.395 358.511 393.328 358.563 393.277C358.666 393.173 358.851 393.173 358.955 393.277C359.007 393.328 359.036 393.402 359.036 393.476C359.036 393.543 359.007 393.616 358.955 393.668C358.903 393.72 358.836 393.749 358.762 393.749Z" fill="#1D1D1B"/>
<path d="M366.349 379.861C366.274 379.861 366.201 379.832 366.149 379.773C366.104 379.729 366.067 379.655 366.067 379.581C366.067 379.507 366.097 379.441 366.149 379.389C366.26 379.278 366.437 379.286 366.541 379.389C366.6 379.441 366.63 379.507 366.63 379.581C366.63 379.655 366.593 379.729 366.541 379.78C366.489 379.832 366.423 379.861 366.349 379.861Z" fill="#1D1D1B"/>
<path d="M367.222 383.509C367.155 383.509 367.081 383.472 367.029 383.42C366.978 383.376 366.948 383.302 366.948 383.228C366.948 383.154 366.978 383.08 367.037 383.029C367.133 382.933 367.318 382.925 367.422 383.029C367.473 383.073 367.503 383.147 367.503 383.221C367.503 383.294 367.473 383.368 367.422 383.42C367.37 383.464 367.296 383.501 367.222 383.501V383.509Z" fill="#1D1D1B"/>
<path d="M357.23 380.186C357.164 380.186 357.09 380.157 357.038 380.105C356.986 380.053 356.957 379.979 356.957 379.906C356.957 379.832 356.986 379.758 357.038 379.706C357.142 379.603 357.327 379.603 357.43 379.706C357.482 379.758 357.512 379.832 357.512 379.906C357.512 379.979 357.482 380.053 357.43 380.105C357.378 380.157 357.304 380.186 357.23 380.186Z" fill="#1D1D1B"/>
<path d="M361.812 383.782C361.745 383.782 361.671 383.752 361.619 383.701C361.567 383.649 361.538 383.582 361.538 383.501C361.538 383.427 361.567 383.361 361.619 383.309C361.723 383.206 361.908 383.206 362.011 383.309C362.063 383.361 362.093 383.435 362.093 383.501C362.093 383.575 362.063 383.649 362.011 383.701C361.96 383.752 361.886 383.782 361.812 383.782Z" fill="#1D1D1B"/>
<path d="M363.062 381.294C362.988 381.294 362.922 381.264 362.863 381.212C362.811 381.153 362.789 381.087 362.789 381.013C362.789 380.939 362.811 380.865 362.863 380.814C362.966 380.71 363.151 380.71 363.262 380.814C363.307 380.865 363.336 380.939 363.336 381.013C363.336 381.087 363.307 381.161 363.255 381.212C363.203 381.264 363.136 381.294 363.062 381.294Z" fill="#1D1D1B"/>
<path d="M360.561 388.071C360.494 388.071 360.42 388.042 360.368 387.99C360.317 387.946 360.287 387.872 360.287 387.798C360.287 387.717 360.317 387.651 360.368 387.599C360.472 387.503 360.657 387.496 360.761 387.599C360.813 387.651 360.842 387.717 360.842 387.798C360.842 387.872 360.813 387.946 360.761 387.99C360.709 388.042 360.635 388.071 360.561 388.071Z" fill="#1D1D1B"/>
<path d="M364.173 389.6C364.099 389.6 364.032 389.57 363.98 389.519C363.921 389.46 363.899 389.393 363.899 389.319C363.899 389.246 363.928 389.172 363.98 389.12C364.076 389.024 364.261 389.024 364.372 389.12C364.417 389.172 364.446 389.246 364.446 389.319C364.446 389.393 364.424 389.46 364.372 389.519C364.313 389.57 364.247 389.6 364.173 389.6Z" fill="#1D1D1B"/>
<path d="M365.002 386.551C364.935 386.551 364.861 386.521 364.809 386.469C364.757 386.425 364.728 386.351 364.728 386.277C364.728 386.196 364.757 386.13 364.809 386.078C364.905 385.975 365.098 385.975 365.201 386.078C365.253 386.13 365.283 386.196 365.283 386.277C365.283 386.351 365.253 386.425 365.201 386.469C365.15 386.521 365.076 386.551 365.002 386.551Z" fill="#1D1D1B"/>
<path d="M366.534 393.336C366.459 393.336 366.386 393.306 366.334 393.254C366.289 393.203 366.252 393.129 366.252 393.055C366.252 392.981 366.289 392.907 366.341 392.856C366.437 392.76 366.622 392.76 366.726 392.856C366.778 392.9 366.807 392.974 366.807 393.048C366.807 393.121 366.778 393.195 366.726 393.247C366.674 393.299 366.608 393.328 366.534 393.328V393.336Z" fill="#1D1D1B"/>
<path d="M363.758 395.411C363.684 395.411 363.618 395.381 363.558 395.329C363.507 395.278 363.477 395.204 363.477 395.13C363.477 395.064 363.507 394.99 363.558 394.938C363.669 394.827 363.862 394.835 363.958 394.938C364.002 394.99 364.032 395.064 364.032 395.13C364.032 395.204 364.002 395.278 363.951 395.329C363.906 395.381 363.832 395.411 363.758 395.411Z" fill="#1D1D1B"/>
<path d="M355.565 374.649C355.499 374.649 355.425 374.619 355.373 374.567C355.321 374.508 355.291 374.442 355.291 374.368C355.291 374.294 355.321 374.22 355.373 374.169C355.484 374.065 355.661 374.073 355.765 374.169C355.817 374.22 355.846 374.294 355.846 374.368C355.846 374.442 355.817 374.508 355.765 374.56C355.713 374.612 355.639 374.649 355.565 374.649Z" fill="#1D1D1B"/>
<path d="M363.477 371.186C363.403 371.186 363.336 371.156 363.285 371.105C363.233 371.053 363.203 370.979 363.203 370.905C363.203 370.832 363.233 370.758 363.285 370.706C363.381 370.61 363.573 370.61 363.677 370.706C363.729 370.75 363.758 370.824 363.758 370.898C363.758 370.972 363.729 371.046 363.669 371.097C363.625 371.149 363.551 371.179 363.477 371.179V371.186Z" fill="#1D1D1B"/>
<path d="M357.926 373.12C357.852 373.12 357.785 373.091 357.734 373.039C357.682 372.987 357.652 372.921 357.652 372.847C357.652 372.773 357.682 372.7 357.734 372.648C357.837 372.544 358.022 372.544 358.126 372.648C358.178 372.7 358.207 372.773 358.207 372.847C358.207 372.914 358.178 372.987 358.126 373.039C358.074 373.091 358 373.12 357.926 373.12Z" fill="#1D1D1B"/>
<path d="M360.701 368.831C360.635 368.831 360.561 368.801 360.509 368.749C360.457 368.698 360.428 368.631 360.428 368.557C360.428 368.476 360.457 368.402 360.509 368.358C360.605 368.255 360.798 368.255 360.901 368.358C360.953 368.41 360.983 368.476 360.983 368.557C360.983 368.624 360.953 368.698 360.901 368.749C360.842 368.801 360.775 368.831 360.701 368.831Z" fill="#1D1D1B"/>
<path d="M361.538 373.12C361.464 373.12 361.39 373.091 361.338 373.039C361.286 372.987 361.257 372.921 361.257 372.847C361.257 372.773 361.286 372.7 361.338 372.648C361.442 372.544 361.627 372.544 361.73 372.648C361.782 372.7 361.812 372.773 361.812 372.847C361.812 372.921 361.782 372.987 361.73 373.039C361.678 373.091 361.612 373.12 361.538 373.12Z" fill="#1D1D1B"/>
<path d="M365.423 370.773C365.349 370.773 365.275 370.743 365.224 370.691C365.172 370.64 365.142 370.566 365.142 370.492C365.142 370.418 365.172 370.344 365.224 370.293C365.327 370.189 365.512 370.189 365.616 370.293C365.668 370.344 365.697 370.418 365.697 370.492C365.697 370.566 365.668 370.632 365.616 370.684C365.564 370.743 365.497 370.773 365.423 370.773Z" fill="#1D1D1B"/>
<path d="M355.565 370.773C355.499 370.773 355.425 370.743 355.373 370.691C355.321 370.64 355.291 370.566 355.291 370.492C355.291 370.418 355.321 370.344 355.373 370.293C355.484 370.189 355.661 370.189 355.765 370.293C355.817 370.344 355.846 370.418 355.846 370.492C355.846 370.566 355.817 370.64 355.765 370.691C355.713 370.736 355.639 370.773 355.565 370.773Z" fill="#1D1D1B"/>
<path d="M338.78 417.147C338.706 417.147 338.632 417.117 338.58 417.058C338.535 417.014 338.498 416.94 338.498 416.866C338.498 416.792 338.528 416.726 338.58 416.674C338.676 416.571 338.868 416.563 338.972 416.674C339.024 416.726 339.053 416.792 339.053 416.866C339.053 416.94 339.024 417.014 338.972 417.065C338.92 417.117 338.854 417.147 338.78 417.147Z" fill="#1D1D1B"/>
<path d="M252.32 394.65C251.203 394.65 250.085 394.576 248.975 394.421C235.172 392.531 225.625 381.64 225.21 367.332C225.07 362.318 227.838 359.579 230.517 356.936C231.575 355.888 232.671 354.81 233.574 353.591L234.765 354.47C233.796 355.777 232.656 356.899 231.56 357.977C228.992 360.517 226.565 362.909 226.691 367.28C227.083 380.85 236.119 391.165 249.175 392.951C262.297 394.746 276.537 385.014 279.638 372.116C280.348 369.155 279.43 366.985 278.357 364.474C277.987 363.61 277.61 362.71 277.292 361.757L278.698 361.292C279.001 362.193 279.371 363.064 279.727 363.898C280.8 366.423 281.91 369.03 281.081 372.463C278.076 384.963 265.139 394.642 252.32 394.642V394.65Z" fill="#113E48"/>
<path d="M274.006 357.32C267.759 351.303 261.786 348.372 254.644 347.81C249.175 347.382 244.357 349.102 238.813 351.819L238.162 350.491C243.928 347.67 248.953 345.883 254.763 346.341C262.267 346.924 268.521 349.981 275.034 356.257L274.006 357.32Z" fill="#113E48"/>
<path d="M363.018 405.88L361.671 405.267C372.144 382.312 370.56 366.209 356.683 354.596C338.521 339.394 324.695 344.813 308.687 351.081C300.679 354.219 292.397 357.468 282.857 358.435L282.709 356.966C292.049 356.013 300.227 352.809 308.147 349.708C323.903 343.536 338.794 337.695 357.63 353.466C371.892 365.405 373.653 382.549 363.018 405.88Z" fill="#113E48"/>
<path d="M276.44 426.28L275.034 425.814C278.283 416.083 283.582 412.119 292.738 412.539C297.489 412.761 302.958 413.344 308.243 413.905C313.239 414.437 318.404 414.983 323.023 415.242L322.941 416.718C318.279 416.46 313.098 415.914 308.087 415.375C302.825 414.813 297.378 414.238 292.671 414.016C284.189 413.625 279.49 417.176 276.44 426.28Z" fill="#113E48"/>
<path d="M282.169 425.024L280.733 424.663C282.361 418.158 288.253 418.904 295.069 419.76L294.891 421.229C287.601 420.314 283.42 420.033 282.169 425.024Z" fill="#113E48"/>
<path d="M314.548 415.596C305.312 408.036 300.22 399.7 299.813 391.468C299.465 384.454 302.507 377.698 308.842 371.378C321.646 358.612 338.158 365.087 349.341 375.402L348.334 376.487C337.655 366.638 321.95 360.399 309.886 372.426C303.854 378.436 300.96 384.823 301.286 391.401C301.671 399.198 306.578 407.172 315.481 414.459L314.541 415.603L314.548 415.596Z" fill="#113E48"/>
<path d="M242.47 411.351L241.241 410.531C245.156 404.698 250.914 398.371 260.713 401.199C262.475 401.708 264.273 402.734 266.175 403.82C269.52 405.732 272.977 407.711 276.566 407.054C283.952 405.71 288.919 398.688 292.419 392.715L293.7 393.461C290.036 399.7 284.811 407.054 276.833 408.501C272.71 409.246 268.847 407.039 265.435 405.097C263.614 404.056 261.89 403.074 260.299 402.609C253.282 400.579 247.946 403.192 242.47 411.343V411.351Z" fill="#113E48"/>
<path d="M237.985 411.24C229.614 408.242 225.832 401.022 228.57 393.284C229.273 391.298 230.302 389.275 231.301 387.318C231.657 386.624 232.004 385.938 232.33 385.273L233.662 385.923C233.329 386.602 232.981 387.289 232.626 387.99C231.649 389.902 230.643 391.881 229.977 393.779C227.527 400.689 230.954 407.157 238.495 409.852L237.992 411.24H237.985Z" fill="#113E48"/>
<path d="M226.343 362.141C226.269 361.108 225.943 359.476 225.558 357.586C224.226 350.956 222.398 341.882 227.194 339.674C231.597 337.651 236.349 341.476 240.168 344.555C241.626 345.736 243.01 346.843 244.157 347.464L243.454 348.763C242.188 348.084 240.753 346.925 239.235 345.706C235.557 342.738 231.383 339.371 227.808 341.018C224.078 342.731 225.839 351.495 227.009 357.298C227.401 359.24 227.734 360.908 227.816 362.038L226.335 362.141H226.343Z" fill="#113E48"/>
<path d="M242.655 372.84C241.878 370.086 239.998 368.934 236.749 369.222L236.615 367.753C240.59 367.398 243.099 368.978 244.076 372.441L242.655 372.84Z" fill="#113E48"/>
<path d="M249.412 383.457L249.168 383.324C249.034 383.25 248.871 383.169 248.686 383.073C246.747 382.069 244.646 380.873 244.261 379.322C244.113 378.746 244.224 378.178 244.571 377.661C245.652 376.074 248.161 375.815 250.137 376.103C252.187 376.399 254.8 377.454 255.429 379.426C255.606 379.987 255.547 380.548 255.259 381.043C254.482 382.357 252.232 382.896 250.189 383.302C249.996 383.339 249.826 383.376 249.693 383.405L249.419 383.464L249.412 383.457ZM248.709 377.476C247.339 377.476 246.237 377.846 245.793 378.495C245.652 378.702 245.667 378.842 245.696 378.961C245.955 379.994 248.353 381.227 249.375 381.759C249.471 381.81 249.56 381.855 249.641 381.899C249.723 381.884 249.811 381.862 249.9 381.847C250.973 381.633 253.475 381.146 253.986 380.29C254.045 380.194 254.082 380.075 254.023 379.876C253.69 378.82 252.002 377.868 249.93 377.572C249.508 377.513 249.101 377.484 248.716 377.484L248.709 377.476Z" fill="#113E48"/>
<path d="M258.345 375.461L257.146 374.597C260.055 370.58 264.059 369.399 269.047 371.075L268.573 372.478C264.207 371.009 260.861 371.983 258.345 375.461Z" fill="#113E48"/>
<path d="M246.696 388.005C244.594 388.005 243.143 386.196 241.966 384.727C241.7 384.394 241.448 384.077 241.197 383.804L242.299 382.822C242.566 383.117 242.832 383.457 243.121 383.811C244.187 385.14 245.4 386.646 246.873 386.528C247.761 386.454 248.265 384.557 248.561 383.42C248.65 383.073 248.731 382.763 248.82 382.519L250.226 382.984C250.152 383.206 250.078 383.486 249.997 383.796C249.575 385.406 248.931 387.842 246.992 387.997C246.888 388.005 246.792 388.012 246.696 388.012V388.005Z" fill="#113E48"/>
<path d="M251.921 388.61C251.573 388.61 251.225 388.559 250.862 388.448C248.975 387.85 248.812 385.207 248.709 383.457C248.694 383.213 248.679 382.992 248.664 382.8L250.137 382.667C250.159 382.866 250.167 383.11 250.189 383.376C250.256 384.557 250.389 386.757 251.306 387.045C252.72 387.488 254.171 386.248 255.458 385.148C255.769 384.882 256.065 384.631 256.347 384.409L257.257 385.576C256.99 385.782 256.717 386.019 256.421 386.27C255.236 387.289 253.675 388.618 251.913 388.618L251.921 388.61Z" fill="#113E48"/>
<path d="M238.88 351.229C235.883 347.965 232.752 346.016 229.311 345.278L229.621 343.831C233.374 344.636 236.763 346.732 239.975 350.232L238.88 351.229Z" fill="#113E48"/>
<path d="M234.499 352.122C233.322 351.421 232.012 350.823 230.25 350.18L230.761 348.792C232.611 349.464 233.995 350.106 235.261 350.852L234.499 352.122Z" fill="#113E48"/>
<path d="M280.807 366.069L279.356 365.774C279.571 364.725 280.089 363.123 280.689 361.27C282.598 355.378 285.803 345.507 282.08 343.321C278.55 341.239 273.991 344.281 269.972 346.961C268.373 348.025 266.864 349.036 265.546 349.605L264.954 348.253C266.146 347.729 267.604 346.762 269.15 345.728C273.317 342.952 278.505 339.497 282.835 342.044C287.572 344.835 284.278 354.994 282.095 361.72C281.51 363.529 281 365.095 280.8 366.062L280.807 366.069Z" fill="#113E48"/>
<path d="M269.765 352.838L268.751 351.768C272.414 348.313 275.952 346.54 279.897 346.208L280.023 347.678C276.433 347.988 273.177 349.627 269.772 352.838H269.765Z" fill="#113E48"/>
<path d="M248.553 403.798C246.303 401.531 243.609 398.873 240.693 396.34L241.663 395.226C244.616 397.788 247.339 400.475 249.604 402.757L248.553 403.798Z" fill="#113E48"/>
<path d="M248.783 365.988C248.568 365.988 248.354 365.973 248.117 365.936C247.199 365.788 246.755 365.316 246.548 364.939C245.845 363.684 246.651 361.735 247.436 359.852C247.843 358.878 248.524 357.246 248.324 356.877C247.872 356.604 247.495 356.493 247.221 356.567C246.725 356.7 246.303 357.504 245.896 358.287C245.171 359.675 244.068 361.772 241.552 360.576C241.019 360.325 240.146 359.668 240.235 358.073C240.434 354.411 245.771 347.773 248.094 346.961L248.583 348.357C246.896 348.947 241.885 354.972 241.715 358.154C241.67 358.996 242.033 359.173 242.196 359.247C243.276 359.756 243.676 359.358 244.594 357.608C245.149 356.545 245.726 355.452 246.844 355.149C247.539 354.957 248.294 355.127 249.138 355.651C250.463 356.471 249.664 358.39 248.812 360.428C248.257 361.765 247.495 363.596 247.843 364.231C247.872 364.282 247.954 364.43 248.354 364.489C250.263 364.792 251.181 362.968 252.365 360.148C253.32 357.874 254.311 355.518 256.472 355.371C256.909 355.341 257.287 355.489 257.546 355.792C258.153 356.515 257.827 357.807 257.42 359.454C257.131 360.613 256.694 362.363 257.035 362.85C257.057 362.879 257.087 362.924 257.227 362.939C258.53 363.108 260.676 360.325 262.726 352.011L264.162 352.366C262.082 360.812 259.744 364.755 257.042 364.4C256.517 364.334 256.095 364.083 255.814 363.677C255.103 362.636 255.555 360.834 255.984 359.092C256.162 358.368 256.421 357.327 256.413 356.862C255.259 357.098 254.519 358.856 253.741 360.709C252.742 363.079 251.521 365.988 248.798 365.988H248.783Z" fill="#113E48"/>
<path d="M293.078 453.214C293.078 453.214 276.996 457.954 269.698 457.658C247.606 456.765 214.597 442.486 206.249 452.195C200.95 458.36 206.027 468.563 214.523 474.108C228.459 483.204 259.233 482.459 274.716 481.698C290.799 480.916 304.454 477.194 304.454 477.194L293.078 453.206V453.214Z" fill="#1599BE"/>
<path d="M259.122 482.68C237.356 482.68 222.183 479.963 213.916 474.566C208.203 470.837 204.021 465.019 203.266 459.748C202.815 456.595 203.585 453.76 205.479 451.552C211.015 445.114 226.202 448.525 242.292 452.143C251.669 454.247 261.372 456.425 269.521 456.757C276.618 457.038 292.708 452.386 292.871 452.342L293.285 453.76C292.619 453.952 276.803 458.537 269.461 458.234C261.172 457.902 251.41 455.709 241.966 453.583C226.328 450.068 211.555 446.753 206.604 452.512C204.991 454.387 204.347 456.816 204.732 459.541C205.427 464.406 209.35 469.818 214.723 473.325C224.552 479.741 244.66 482.259 274.479 480.797C290.303 480.022 303.921 476.36 304.061 476.323L304.454 477.748C304.313 477.785 290.54 481.491 274.561 482.274C269.099 482.54 263.948 482.673 259.129 482.673L259.122 482.68Z" fill="#113E48"/>
<path d="M217.069 396.798C217.069 396.798 249.945 415.374 267.093 422.211C277.01 426.169 307.666 435.582 307.666 435.582L386.331 392.324L378.916 416.194L298.592 448.673L211.822 409.652L217.069 396.798Z" fill="white"/>
<path d="M307.444 486.173C307.155 486.173 306.888 486.003 306.77 485.737L288.956 445.801C288.8 445.454 288.941 445.041 289.274 444.856L400.06 383.929L400.778 385.221L290.591 445.816L307.865 484.548C317.302 481.957 431.841 449.729 455.08 408.804C459.128 401.679 460.187 394.606 458.225 387.776C455.887 379.625 451.239 373.733 444.415 370.27C428.717 362.304 404.56 368.247 387.064 374.634L386.553 373.246C404.331 366.756 428.91 360.746 445.088 368.956C452.297 372.618 457.197 378.813 459.654 387.377C461.726 394.598 460.623 402.055 456.375 409.542C446.11 427.623 417.941 446.015 372.662 464.207C339.009 477.726 307.954 486.069 307.643 486.15C307.577 486.165 307.518 486.173 307.451 486.173H307.444Z" fill="#113E48"/>
<path d="M308.576 435.627C262.726 428.834 197.22 385.458 196.561 385.022L197.382 383.796C198.034 384.232 263.267 427.424 308.791 434.172L308.576 435.634V435.627Z" fill="#113E48"/>
<path d="M279.112 126.135C278.861 132.854 277.565 139.743 267.456 142.6C262.415 144.025 256.132 143.434 251.388 139.226C248.435 136.605 247.621 130.964 247.621 127.789C247.621 120.945 254.393 114.123 260.846 113.23C269.831 111.982 279.497 115.902 279.112 126.135Z" fill="#113E48"/>
<path d="M352.79 127.627C353.515 134.316 352.042 140.23 341.94 143.088C336.9 144.513 330.513 143.494 326.02 139.012C323.741 136.738 322.749 130.455 322.749 127.28C322.749 120.436 329.425 113.939 335.871 113.045C344.856 111.797 351.813 118.738 352.782 127.627H352.79Z" fill="#113E48"/>
<g clip-path="url(#clip0_157_350)">
<path d="M263.627 74.7887H257.633L256.25 64.1712C256.134 63.2188 256.045 62.3881 255.992 61.6719C255.918 60.9668 255.844 59.9663 255.766 58.6705C255.571 59.8334 255.274 61.1292 254.868 62.5616C254.783 62.8422 254.719 63.0822 254.673 63.2815L251.476 74.7887H247.201L244.004 63.2815C243.972 63.0896 243.909 62.8496 243.809 62.5616C243.36 61.0517 243.063 59.7559 242.925 58.6705C242.841 59.8999 242.759 60.8191 242.685 61.4209C242.653 61.7347 242.604 62.1925 242.54 62.7979C242.476 63.4034 242.427 63.8611 242.395 64.1749L241.012 74.7924H235.053L238.685 50.2275H245.033L248.584 62.8939C248.647 63.1302 248.69 63.2815 248.711 63.348C249.022 64.4001 249.231 65.36 249.337 66.2349C249.358 65.9322 249.439 65.4412 249.577 64.7582C249.62 64.5921 249.782 63.9571 250.058 62.8644L253.648 50.2275H260.013L263.627 74.7887Z" fill="#FDE7EF"/>
<path d="M273.101 74.7885V57.8434H278.823V74.7885H273.101ZM273.823 53.4798H273.855C273.855 52.8522 274.063 52.339 274.481 51.9366C274.898 51.501 275.404 51.2832 275.991 51.2832C276.613 51.2832 277.122 51.4899 277.525 51.9034C277.928 52.3169 278.127 52.8411 278.127 53.4798C278.127 54.1295 277.918 54.6648 277.501 55.0894C277.094 55.525 276.588 55.7428 275.991 55.7428C275.379 55.7428 274.866 55.5139 274.449 55.0562C274.031 54.6316 273.823 54.1074 273.823 53.4798Z" fill="#FDE7EF"/>
<path d="M290.047 74.7883V57.8432H295.284V61.2839C296.024 59.9401 296.901 58.9359 297.916 58.264C298.899 57.6254 300.094 57.3079 301.498 57.3079C302.559 57.3079 303.499 57.474 304.323 57.8099C305.14 58.1902 305.802 58.7033 306.307 59.3531C306.767 60.0028 307.075 60.6895 307.223 61.4168C307.407 62.3434 307.499 63.5691 307.499 65.09V74.7883H301.745V65.7103C301.745 64.3332 301.537 63.3512 301.119 62.7569C300.702 62.1403 300.023 61.8339 299.083 61.8339C297.908 61.8339 297.042 62.2917 296.487 63.211C295.942 64.1265 295.67 65.6143 295.67 67.6743V74.7883H290.047Z" fill="#FDE7EF"/>
<path d="M335.568 48.7839V74.7886H330.295V72.0382C329.566 73.19 328.742 74.0391 327.819 74.5892C326.964 75.1614 325.956 75.4457 324.799 75.4457C322.529 75.4457 320.715 74.6187 319.36 72.9611C318.006 71.3072 317.327 69.0959 317.327 66.3345C317.327 63.6506 318.006 61.4651 319.368 59.7742C320.718 58.1314 322.465 57.3082 324.605 57.3082C325.977 57.3082 327.091 57.574 327.947 58.0982C328.771 58.5818 329.542 59.4383 330.259 60.675C330.217 60.3723 330.175 59.9145 330.132 59.298C330.09 58.6261 330.069 58.076 330.069 57.6515V48.7839H335.568ZM330.489 66.3419C330.489 65.0128 330.164 63.9754 329.51 63.226C328.813 62.4692 327.894 62.089 326.744 62.089C325.588 62.089 324.676 62.4692 324.011 63.226C323.346 63.9865 323.014 65.0239 323.014 66.3419C323.014 67.6709 323.346 68.7156 324.011 69.4725C324.665 70.2219 325.574 70.5947 326.744 70.5947C327.901 70.5947 328.824 70.2219 329.51 69.4725C330.16 68.723 330.489 67.6783 330.489 66.3419Z" fill="#FDE7EF"/>
<path d="M351.883 56.95H354.805V63.2776H360.682V66.2384H354.805V72.5918H351.883V66.2347H345.981V63.2739H351.883V56.95Z" fill="#FDE7EF" stroke="#FDE7EF" stroke-width="2.24924" stroke-miterlimit="10"/>
</g>
<defs>
<clipPath id="clip0_157_350">
<rect width="126.336" height="26.6581" fill="white" transform="translate(235.053 48.7842)"/>
</clipPath>
</defs>
</svg>
