<svg width="430" height="545" viewBox="0 0 430 545" fill="none" xmlns="http://www.w3.org/2000/svg">
<path d="M344.697 448.933L84.8382 445.826C84.8382 445.826 50.8229 463.678 58.9863 479.976C68.0526 498.081 142.574 525.771 210.005 525.771C301.452 525.771 351.498 505.588 360.343 482.306C364.791 470.594 344.697 448.933 344.697 448.933Z" fill="#2D1F30"/>
<path d="M214.362 406.666C326.764 406.666 417.883 315.765 417.883 203.634C417.883 91.5023 326.764 0.601807 214.362 0.601807C101.96 0.601807 10.8398 91.5023 10.8398 203.634C10.8398 315.765 101.96 406.666 214.362 406.666Z" fill="#FF6868"/>
<path d="M418.838 218.138C418.838 218.138 416.81 217.37 415.981 217.466C413.073 217.813 415.226 221.269 415.226 221.269C415.226 221.269 414.508 220.995 414.027 221.062C412.148 221.313 411.748 225.152 411.748 225.152C411.748 225.152 404.784 222.605 405.198 226.585C405.457 229.095 412.784 231.849 412.784 231.849C412.784 231.849 413.783 233.96 414.109 235.762C414.109 235.762 414.945 240.982 413.828 242.363C412.584 243.913 405.279 246.143 405.279 246.143C404.791 244.319 404.436 242.355 404.672 241.004C405.183 238.125 408.136 228.157 403.525 225.957C399.788 224.17 398.012 238.501 396.827 241.115C395.192 244.74 388.768 251.341 387.694 257.469C386.014 267.067 388.612 269.909 388.612 269.909L379.805 278.755L375.964 276.074C375.964 276.074 358.038 298.069 338.196 316.092L335.391 313.655C336.287 314.534 337.182 315.383 338.085 316.195C338.078 316.202 338.063 316.217 338.056 316.225L335.399 313.655C313.447 292.074 293.716 251.282 275.28 238.774C261.654 229.523 234.433 226.26 233.027 226.105L231.599 214.055C235.921 209.404 242.375 195.804 242.375 195.804C242.375 195.804 251.804 196.941 253.513 181.761C255.023 182.1 209.284 136.258 209.284 136.258L177.157 177.907C178.748 198.07 186.815 195.235 186.815 195.235C189.05 202.737 193.135 209.463 197.694 214.232L196.532 226.193C192.936 226.592 188.051 227.53 184.565 228.201H184.469C173.449 230.343 163.198 233.894 155.168 239.564C136.969 252.411 117.622 292.074 95.6708 313.655L93.0138 316.225C93.0138 316.225 92.9916 316.202 92.9842 316.195C93.8872 315.383 94.7827 314.534 95.6782 313.655L92.8732 316.092C73.031 298.069 55.1056 276.074 55.1056 276.074L50.8352 278.592L42.324 270.013C42.324 270.013 44.3149 265.228 43.3749 257.461C42.6274 251.282 35.8777 244.733 34.242 241.107C33.0653 238.494 31.289 224.163 27.5515 225.95C22.9332 228.15 25.8936 238.125 26.4043 240.997C26.9742 244.216 25.8566 246.165 25.8566 246.165L16.2426 242.385L16.968 235.755C17.2936 233.953 17.7155 232.351 18.0929 231.184C18.3741 230.32 25.6198 229.087 25.8788 226.577C26.2859 222.598 19.3289 225.145 19.3289 225.145C19.3289 225.145 18.9292 221.305 17.0494 221.054C16.5609 220.988 15.8504 221.261 15.8504 221.261C15.8504 221.261 18.0041 217.806 15.0955 217.459C14.2666 217.363 12.7271 218.256 12.7271 218.256C4.26772 218.382 2.31384 236.087 2.96514 242.887C3.48321 248.299 4.27513 256.834 15.8356 270.19C20.3502 275.403 30.5193 293.632 31.3482 295.116L26.7669 298.785C26.7669 298.785 70.0039 366.933 93.4653 365.471C111.509 364.349 142.172 333.442 150.838 324.25L151.704 362.089L146.982 383.936C146.982 383.936 70.67 340.205 56.3046 386.402C48.3188 412.081 82.4303 436.719 119.154 455.118C119.154 455.118 116.89 466.459 129.427 474.241C142.12 482.119 168.031 482.636 184.439 482.052C194.416 485.478 200.714 487.354 200.714 487.354L205.206 480.199C212.186 479.114 217.322 477.851 218.869 477.453L222.555 485.715L244.61 478.952C260.071 479.476 286.263 479.173 300.858 472.698C308.451 469.331 312.5 459.711 308.984 454.542C346.892 436.963 381.374 413.425 374.047 387.864C362.975 349.25 312.988 370.388 283.747 381.781L281.149 354.854L280.113 323.955C288.609 332.985 319.501 364.349 337.641 365.478C361.102 366.94 404.339 298.793 404.339 298.793L399.758 295.123C400.587 293.639 410.756 275.41 415.271 270.197C426.831 256.841 427.623 248.299 428.141 242.894C428.793 236.094 429.488 221.269 418.868 218.138H418.838Z" fill="white"/>
<path d="M90.0903 365.228C91.8074 365.331 93.5318 365.323 95.2637 365.257C113.478 362.326 142.438 333.132 150.816 324.243L151.682 345.13L146.96 383.929C146.96 383.929 160.297 392.228 166.625 393.786C173.36 395.447 195.008 400.645 201.935 401.073C208.626 401.487 221.319 402.417 227.913 401.073C234.825 399.663 262.631 388.972 269.462 387.289C279.069 384.926 285.856 380.932 283.709 381.766L281.112 354.839L280.076 323.94C288.572 332.97 319.464 364.334 337.604 365.464C361.065 366.926 404.302 298.778 404.302 298.778L375.964 276.082C375.964 276.082 358.038 298.077 338.196 316.099L335.391 313.663C336.287 314.541 337.182 315.391 338.085 316.203C338.078 316.21 338.063 316.225 338.055 316.232L335.398 313.663C313.447 292.082 293.716 251.289 275.28 238.782C266.428 232.772 252.521 229.243 243.477 227.463C242.87 245.781 215.59 261.05 215.59 261.05C215.59 261.05 188.754 246.719 187.066 227.958C187.059 227.84 185.542 228.024 184.565 228.209H184.469C173.448 230.35 163.198 233.902 155.168 239.572C136.969 252.419 117.622 292.082 95.6707 313.663L93.0137 316.232C93.0137 316.232 92.9915 316.21 92.9841 316.203C93.8871 315.391 94.7826 314.541 95.6781 313.663L92.8731 316.099C73.0309 298.077 55.1055 276.082 55.1055 276.082L26.7668 298.778C26.7668 298.778 66.1183 360.798 90.1125 365.22L90.0903 365.228Z" fill="#2D1F30"/>
<path d="M214.754 222.435C214.709 222.435 214.665 222.435 214.613 222.435C198.272 222.324 185.446 204.538 182.7 178.187L184.173 178.032C186.837 203.6 199.071 220.848 214.621 220.951C214.665 220.951 214.709 220.951 214.754 220.951C229.275 220.951 241.627 204.258 245.513 179.346L246.978 179.575C242.974 205.232 230.037 222.428 214.754 222.428V222.435Z" fill="#2D1F30"/>
<path d="M192.477 138.68C192.055 146.646 193.639 158.437 207.264 167.393C210.432 169.475 221.267 174.717 226.499 174.828C226.625 174.828 226.433 168.36 226.433 168.36C226.433 168.36 231.902 173.617 236.321 176.15C243.033 179.996 258.42 182.27 258.42 182.27C258.42 182.27 260.174 160.106 256.451 147.576C247.074 115.998 213.903 113.776 201.824 123.027C198.323 125.707 192.906 130.558 192.477 138.68Z" fill="#2D1F30"/>
<path d="M92.6141 365.951C68.8492 365.951 27.7882 301.665 26.0341 298.903C25.8343 298.586 25.9009 298.165 26.1969 297.936L54.5356 275.24C54.8539 274.989 55.3127 275.033 55.5718 275.351C55.7494 275.572 73.7784 297.619 93.4134 315.427L92.4142 316.52C74.4593 300.24 57.8513 280.43 54.8908 276.849L27.6401 298.674C31.8365 305.164 71.6542 365.796 93.3098 364.459C114.307 363.152 149.906 323.571 150.268 323.165L151.371 324.147C149.898 325.8 115.002 364.585 93.406 365.928C93.1469 365.943 92.8805 365.951 92.6141 365.951Z" fill="#2D1F30"/>
<path d="M42.7951 269.255L41.7368 270.287L50.7457 279.477L51.804 278.445L42.7951 269.255Z" fill="#2D1F30"/>
<path d="M39.9186 276.636L38.6901 275.809C38.7493 275.727 44.3075 267.31 42.546 257.321C41.8725 253.489 38.9269 249.332 36.5659 245.995C35.2263 244.105 34.0718 242.473 33.4723 241.144C33.1244 240.369 32.7618 238.819 32.3103 236.855C31.4666 233.222 30.0604 227.146 28.3582 226.333C28.1657 226.237 27.9881 226.245 27.7735 226.348C24.295 228.009 25.9306 235.496 26.7225 239.092C26.8558 239.697 26.9668 240.214 27.0334 240.598C27.6255 243.957 25.9602 249.162 25.8936 249.384L24.4874 248.934C24.5022 248.882 26.1082 243.854 25.5828 240.856C25.5162 240.48 25.4051 239.985 25.2793 239.402C24.3468 235.127 22.6075 227.175 27.137 225.012C27.7587 224.717 28.4026 224.709 29.0021 224.997C31.1706 226.038 32.4362 230.83 33.7535 236.522C34.1754 238.331 34.5381 239.896 34.8267 240.539C35.367 241.735 36.4845 243.315 37.7797 245.146C40.2295 248.609 43.2787 252.913 44.0114 257.07C45.8765 267.665 40.1703 276.274 39.926 276.636H39.9186Z" fill="#2D1F30"/>
<path d="M30.6524 295.3C30.5414 295.108 19.7729 275.713 15.1694 270.397C3.47574 256.893 2.63201 248.018 2.12134 242.71C1.60326 237.32 2.63201 225.115 7.3983 219.799C8.89331 218.131 10.6474 217.267 12.6012 217.237L12.6234 218.714C11.0988 218.736 9.71482 219.43 8.50105 220.781C4.09002 225.699 3.11307 237.563 3.58673 242.532C4.11221 248.025 4.90414 256.273 16.2796 269.43C20.9792 274.864 31.4887 293.78 31.9402 294.584L30.645 295.3H30.6524Z" fill="#2D1F30"/>
<path d="M28.136 273.283L26.7076 272.892C26.7224 272.833 28.2914 266.956 25.738 260.045C25.0793 258.251 22.9552 255.601 20.9052 253.031C18.7218 250.292 16.6569 247.708 16.1833 245.973C14.8881 241.174 15.9686 234.743 17.286 230.682C18.4924 226.983 18.707 223.557 17.8337 222.162C17.5895 221.77 17.2786 221.564 16.8494 221.512C14.7031 221.224 11.713 230.077 10.218 238.449L8.76001 238.191C9.32249 235.053 12.3421 219.43 17.0492 220.05C17.9077 220.168 18.6182 220.626 19.0919 221.379C20.4463 223.528 19.7802 227.832 18.6996 231.14C17.4414 235.001 16.4053 241.107 17.6191 245.589C18.0113 247.029 20.0688 249.613 22.0671 252.108C24.1912 254.766 26.3893 257.52 27.1294 259.536C29.853 266.919 28.2026 273.032 28.136 273.291V273.283Z" fill="#2D1F30"/>
<path d="M18.4481 232.262L17.9226 230.882C20.7868 229.804 24.8944 227.648 25.035 226.23C25.109 225.536 24.887 225.278 24.7168 225.145C23.8138 224.444 21.105 224.968 19.4768 225.566L18.9661 224.178C19.4472 224.001 23.7176 222.502 25.6271 223.978C26.1082 224.348 26.6484 225.064 26.5152 226.378C26.2266 229.198 19.7507 231.775 18.4481 232.262Z" fill="#2D1F30"/>
<path d="M7.07269 233.916L5.62207 233.628C5.99212 231.797 9.38921 215.768 15.0806 216.447C16.287 216.588 16.8125 217.193 17.0419 217.665C17.7376 219.12 16.5238 221.143 16.3832 221.372L15.1251 220.597C15.5099 219.976 15.9614 218.825 15.7097 218.308C15.6061 218.101 15.3397 217.968 14.9104 217.917C11.6317 217.533 8.36786 227.522 7.08008 233.923L7.07269 233.916Z" fill="#2D1F30"/>
<path d="M25.4198 246.645C24.1024 246.645 19.7876 246.276 15.9169 241.838L17.0344 240.871C21.0902 245.515 25.6419 245.168 25.6937 245.161L25.8269 246.63C25.8269 246.63 25.6567 246.645 25.4272 246.645H25.4198Z" fill="#2D1F30"/>
<path d="M88.4251 320.581L87.537 319.399C100.496 309.698 112.471 292.399 124.046 275.661C134.719 260.223 144.806 245.648 154.65 238.693C166.699 230.188 184.076 226.813 196.54 225.477L196.695 226.946C179.081 228.836 164.834 233.311 155.501 239.904C145.872 246.704 135.859 261.175 125.26 276.503C113.618 293.337 101.577 310.739 88.4251 320.581Z" fill="#2D1F30"/>
<path d="M196.799 229.944L195.356 229.626C197.021 222.029 197.036 213.893 197.036 213.812H198.516C198.516 213.893 198.494 222.192 196.799 229.944Z" fill="#2D1F30"/>
<path d="M232.65 229.021C230.955 219.305 231.539 213.11 231.569 212.844L233.042 212.992C233.042 213.051 232.45 219.268 234.108 228.763L232.65 229.014V229.021Z" fill="#2D1F30"/>
<path d="M209.44 153.49C208.285 163.295 200.188 171.469 192.269 175.758C187.94 178.106 171.813 183.577 171.813 183.577C171.813 183.577 166.602 159.227 175.091 140.533C184.609 119.587 204.622 122.37 204.622 122.37C204.622 122.37 210.639 143.361 209.447 153.49H209.44Z" fill="#2D1F30"/>
<path d="M243.44 196.402C243.063 196.402 242.671 196.38 242.278 196.335L242.449 194.866C244.565 195.11 246.43 194.571 247.992 193.264C252.795 189.233 253.417 179.31 253.424 179.206L254.905 179.288C254.882 179.723 254.238 189.949 248.947 194.394C247.355 195.73 245.505 196.402 243.44 196.402Z" fill="#2D1F30"/>
<path d="M213.94 201.371C212.06 201.371 210.099 200.987 209.61 199.488C209.166 198.122 209.344 195.9 209.544 193.33C209.877 189.085 210.291 183.813 207.952 181.059C203.882 176.26 191.329 179.952 191.204 179.989L190.774 178.579C191.329 178.409 204.378 174.569 209.077 180.107C211.801 183.319 211.364 188.937 211.009 193.448C210.831 195.767 210.654 197.952 211.009 199.038C211.357 200.108 214.865 200.027 217.255 199.554L217.544 201.001C217.011 201.105 215.501 201.378 213.925 201.378L213.94 201.371Z" fill="#2D1F30"/>
<path d="M236.446 181.702C228.638 176.962 221.356 180.993 221.282 181.038L220.549 179.753C220.874 179.568 228.675 175.256 237.216 180.439L236.446 181.702Z" fill="#2D1F30"/>
<path d="M186.556 196.335C176.542 195.974 176.091 177.826 176.076 177.05L177.556 177.021C177.556 177.198 177.993 194.541 186.615 194.859L186.563 196.335H186.556Z" fill="#2D1F30"/>
<path d="M200.077 185.253C196.525 185.253 193.32 184.345 193.128 184.286L193.542 182.868C193.609 182.891 200.196 184.751 204.577 183.068L205.11 184.448C203.549 185.046 201.78 185.253 200.085 185.253H200.077Z" fill="#2D1F30"/>
<path d="M229.023 186.331C225.471 186.331 222.266 185.423 222.066 185.364L222.48 183.947C222.547 183.969 229.134 185.829 233.515 184.146L234.048 185.527C232.487 186.125 230.718 186.331 229.023 186.331Z" fill="#2D1F30"/>
<path d="M214.776 209.655C210.942 209.655 208.204 207.986 208.034 207.883L208.818 206.628C209.04 206.768 214.31 209.943 220.305 206.783L220.993 208.09C218.773 209.256 216.641 209.655 214.769 209.655H214.776Z" fill="#2D1F30"/>
<path d="M215.583 269.282C215.479 269.282 215.375 269.26 215.279 269.215C214.968 269.075 184.224 254.929 181.567 228.674L183.04 228.526C185.46 252.492 212.282 266.137 215.56 267.717C218.935 265.886 247.681 249.672 247.518 228.748L248.998 228.733C249.183 251.754 217.285 268.492 215.923 269.193C215.819 269.245 215.701 269.275 215.583 269.275V269.282Z" fill="white"/>
<path d="M309.006 454.668L246.305 478.796C261.765 479.321 286.441 479.07 301.035 472.594C308.866 469.124 313.121 459.703 308.999 454.668H309.006Z" fill="#FF6868"/>
<path d="M200.603 487.804C200.529 487.804 200.462 487.797 200.388 487.775C200.322 487.752 193.831 485.811 183.78 482.355L184.261 480.96C192.632 483.839 198.523 485.663 200.277 486.195L204.518 479.446L205.776 480.229L201.239 487.457C201.099 487.679 200.862 487.804 200.61 487.804H200.603Z" fill="#2D1F30"/>
<path d="M253.121 479.941C249.702 479.941 246.897 479.875 245.039 479.808L245.091 478.332C253.913 478.634 283.976 479.048 300.451 471.739C304.64 469.878 308.037 465.802 309.103 461.358C309.783 458.508 309.376 455.99 307.955 454.255L309.103 453.325C310.82 455.429 311.338 458.404 310.546 461.705C309.384 466.585 305.654 471.059 301.058 473.097C287.802 478.974 266.058 479.949 253.136 479.949L253.121 479.941Z" fill="#2D1F30"/>
<path d="M118.718 455.495C97.5063 444.871 81.2832 434.202 70.4998 423.784C56.9929 410.745 51.9454 398.002 55.4831 385.908C58.3251 376.214 64.1201 369.709 72.7054 366.586C87.0042 361.381 108.697 365.346 137.169 378.377C158.299 388.049 175.484 399.382 175.654 399.493L174.833 400.726C174.152 400.276 106.491 355.851 73.2086 367.974C65.0897 370.935 59.5981 377.107 56.9041 386.329C53.5292 397.854 58.4509 410.096 71.5286 422.728C82.2083 433.035 98.3056 443.616 119.384 454.181L118.718 455.503V455.495Z" fill="#2D1F30"/>
<path d="M240.376 192.26C240.376 194.135 238.815 195.656 236.898 195.656C234.981 195.656 233.419 194.135 233.419 192.26C233.419 190.384 234.981 188.864 236.898 188.864C238.815 188.864 240.376 190.384 240.376 192.26Z" fill="#FF6868"/>
<path d="M196.51 193.485C196.051 195.309 194.172 196.409 192.306 195.944C190.441 195.479 189.302 193.626 189.753 191.802C190.205 189.978 192.092 188.878 193.957 189.343C195.822 189.809 196.962 191.662 196.51 193.485Z" fill="#FF6868"/>
<path d="M342.459 320.581C329.3 310.739 317.266 293.329 305.624 276.503C295.026 261.175 285.012 246.704 275.383 239.904C262.883 231.074 243.537 227.884 233.123 226.769L233.279 225.3C243.84 226.429 263.46 229.678 276.234 238.693C286.078 245.641 296.166 260.223 306.838 275.661C318.413 292.399 330.381 309.698 343.347 319.399L342.459 320.581Z" fill="#2D1F30"/>
<path d="M338.27 365.951C338.004 365.951 337.737 365.944 337.478 365.929C315.882 364.585 280.986 325.794 279.513 324.147L280.616 323.165C280.971 323.564 316.578 363.145 337.574 364.46C359.223 365.803 399.055 305.165 403.244 298.675L375.993 276.85C373.026 280.431 356.418 300.24 338.47 316.52L337.471 315.427C357.106 297.619 375.135 275.573 375.312 275.351C375.571 275.034 376.03 274.989 376.349 275.24L404.687 297.936C404.983 298.173 405.05 298.586 404.85 298.904C403.096 301.672 362.035 365.951 338.27 365.951Z" fill="#2D1F30"/>
<path d="M388.091 269.286L379.08 278.475L380.138 279.508L389.149 270.319L388.091 269.286Z" fill="#2D1F30"/>
<path d="M390.973 276.636C390.729 276.274 385.023 267.658 386.888 257.07C387.62 252.914 390.67 248.609 393.119 245.146C394.415 243.315 395.532 241.735 396.072 240.539C396.361 239.897 396.724 238.332 397.146 236.523C398.463 230.838 399.729 226.039 401.897 224.998C402.497 224.71 403.148 224.717 403.762 225.012C408.292 227.176 406.56 235.127 405.62 239.402C405.494 239.986 405.383 240.48 405.316 240.857C404.783 243.862 406.39 248.882 406.412 248.934L405.006 249.384C404.932 249.163 403.266 243.958 403.866 240.598C403.932 240.207 404.043 239.698 404.177 239.092C404.961 235.497 406.597 228.01 403.126 226.349C402.911 226.245 402.733 226.238 402.541 226.334C400.839 227.153 399.433 233.23 398.589 236.862C398.137 238.826 397.775 240.377 397.427 241.152C396.827 242.481 395.673 244.113 394.333 246.003C391.965 249.34 389.027 253.497 388.353 257.329C386.592 267.318 392.157 275.735 392.209 275.817L390.981 276.643L390.973 276.636Z" fill="#2D1F30"/>
<path d="M400.232 295.301L398.937 294.585C399.381 293.78 409.89 274.864 414.597 269.43C425.98 256.28 426.772 248.026 427.29 242.569C428.03 234.861 427.808 221.557 418.061 218.685L418.483 217.267C429.244 220.435 429.547 234.544 428.77 242.673C428.26 248.011 427.409 256.886 415.722 270.39C411.119 275.706 400.35 295.101 400.239 295.293L400.232 295.301Z" fill="#2D1F30"/>
<path d="M402.748 273.284C402.674 273.025 401.031 266.912 403.755 259.529C404.502 257.513 406.693 254.767 408.817 252.101C410.815 249.606 412.873 247.022 413.265 245.582C414.479 241.1 413.443 235.002 412.185 231.133C411.104 227.825 410.438 223.521 411.792 221.372C412.266 220.619 412.976 220.154 413.835 220.043C418.512 219.408 421.562 235.046 422.124 238.184L420.666 238.442C419.171 230.07 416.211 221.188 414.035 221.505C413.606 221.564 413.295 221.771 413.05 222.155C412.17 223.55 412.392 226.969 413.598 230.675C414.916 234.729 415.996 241.167 414.701 245.966C414.235 247.701 412.17 250.285 409.979 253.024C407.929 255.594 405.805 258.244 405.146 260.038C402.585 266.979 404.162 272.826 404.177 272.885L402.748 273.284Z" fill="#2D1F30"/>
<path d="M412.436 232.262C411.141 231.775 404.665 229.198 404.369 226.378C404.236 225.064 404.776 224.348 405.257 223.978C407.167 222.502 411.437 224.001 411.918 224.178L411.407 225.566C409.772 224.968 407.07 224.444 406.167 225.145C405.997 225.278 405.775 225.536 405.849 226.23C405.997 227.648 410.097 229.804 412.962 230.882L412.436 232.262Z" fill="#2D1F30"/>
<path d="M423.812 233.916C422.524 227.522 419.267 217.525 415.981 217.909C415.552 217.961 415.278 218.094 415.182 218.301C414.93 218.818 415.382 219.969 415.767 220.59L414.509 221.365C414.368 221.136 413.147 219.105 413.85 217.658C414.079 217.178 414.605 216.58 415.811 216.44C421.532 215.753 424.9 231.79 425.27 233.621L423.819 233.909L423.812 233.916Z" fill="#2D1F30"/>
<path d="M405.464 246.645C405.235 246.645 405.094 246.638 405.065 246.631L405.198 245.161C405.383 245.176 409.831 245.486 413.857 240.872L414.975 241.839C411.104 246.276 406.789 246.645 405.472 246.645H405.464Z" fill="#2D1F30"/>
<path d="M216.434 402.454C201.239 402.454 192.595 400.401 180.968 397.647C176.342 396.547 171.102 395.307 164.797 394.052L165.085 392.605C171.413 393.867 176.668 395.115 181.308 396.215C193.801 399.176 202.823 401.317 220.379 400.94C231.658 400.697 240.724 397.094 250.331 393.284C258.065 390.212 266.065 387.038 276.279 384.948L276.575 386.395C266.487 388.463 258.553 391.608 250.878 394.657C241.146 398.519 231.954 402.166 220.408 402.417C219.032 402.447 217.707 402.461 216.434 402.461V402.454Z" fill="#2D1F30"/>
<path d="M419.578 203.66H418.098C418.098 92.1725 327.183 1.47665 215.427 1.47665C103.671 1.47665 12.7566 92.1725 12.7566 203.66H11.2764C11.2764 149.26 32.51 98.1161 71.0695 59.6493C109.629 21.1826 160.896 0 215.427 0C269.958 0 321.225 21.1826 359.785 59.6493C398.344 98.1161 419.578 149.26 419.578 203.66Z" fill="#2D1F30"/>
<path d="M147.493 382.896L146.087 382.423C146.168 382.172 154.479 356.848 149.143 320.618C147.397 308.775 150.505 295.448 152.77 285.71C153.384 283.067 153.917 280.778 154.294 278.807L155.745 279.08C155.36 281.088 154.827 283.384 154.206 286.042C151.963 295.663 148.892 308.834 150.601 320.396C155.997 356.995 147.567 382.63 147.485 382.888L147.493 382.896Z" fill="white"/>
<path d="M282.962 381.426C282.932 381.242 279.854 362.636 279.321 335.702C279.217 330.356 279.55 325.594 279.868 320.987C280.668 309.528 281.423 298.704 276.138 279.139L277.567 278.755C282.918 298.564 282.118 310.016 281.349 321.09C281.03 325.668 280.697 330.393 280.808 335.672C281.334 362.503 284.398 380.998 284.427 381.183L282.969 381.426H282.962Z" fill="white"/>
<path d="M301.235 365.058C297.246 340.59 275.383 325.048 251.093 325.188C248.488 325.203 246.578 327.307 246.593 329.958C246.608 332.616 248.666 334.432 251.367 334.639C269.981 336.086 285.279 346.88 287.928 366.727C290.171 383.523 276.975 403.872 262.742 412.739C271.712 409.372 280.86 405.718 290.089 402.358C298.349 391.032 303.604 379.507 301.243 365.058H301.235Z" fill="white"/>
<path d="M262.994 413.425L262.343 412.111C276.116 403.532 289.386 383.287 287.188 366.822C284.768 348.689 271.35 336.935 251.308 335.377C248.11 335.126 245.868 332.904 245.853 329.965C245.838 326.886 248.14 324.465 251.093 324.45C263.305 324.376 275.043 328.237 284.235 335.311C293.886 342.738 300.021 352.986 301.975 364.94C304.603 381.05 297.742 393.114 290.689 402.793L290.555 402.978L290.341 403.052C284.834 405.053 279.291 407.187 273.933 409.254C270.336 410.642 266.62 412.067 263.001 413.425H262.994ZM251.411 325.919C251.308 325.919 251.197 325.919 251.093 325.919C248.932 325.934 247.311 327.661 247.326 329.95C247.341 332.128 248.984 333.716 251.411 333.9C271.897 335.488 286.167 348.032 288.646 366.623C290.733 382.253 280.083 400.084 267.782 410.022C269.662 409.305 271.542 408.582 273.385 407.866C278.684 405.821 284.161 403.716 289.608 401.73C299.252 388.448 302.508 377.498 300.502 365.168C296.787 342.376 276.168 325.912 251.411 325.912V325.919Z" fill="#2D1F30"/>
<path d="M147.856 385.554C146.005 381.19 143.245 376.642 141.01 372.397C141.054 368.255 142.401 366.697 141.913 361.861C141.424 357.025 136.443 344.185 142.719 340.331C147.375 337.474 155.205 345.677 158.743 348.194C166.351 347.006 170.755 348.01 179.651 348.66C180.124 348.696 194.586 338.478 198.183 342.672C200.81 345.736 198.93 353.946 196.666 358.125C206.583 354.633 200.226 358.974 213.466 353.702C226.707 348.423 254.35 337.865 271.379 353.304C286.5 367.007 288.587 385.893 276.797 404.411C268.389 417.612 239.14 429.078 225.249 435.752C207.079 444.479 168.556 417.974 154.361 411.063C135.777 402.018 147.064 390.39 147.863 385.561L147.856 385.554Z" fill="white"/>
<path d="M266.406 360.111C266.332 360.111 266.258 360.081 266.206 360.022C266.154 359.978 266.132 359.904 266.132 359.83C266.132 359.756 266.154 359.69 266.213 359.638C266.302 359.535 266.495 359.535 266.606 359.638C266.657 359.69 266.687 359.756 266.687 359.83C266.687 359.904 266.657 359.97 266.606 360.029C266.546 360.081 266.48 360.111 266.406 360.111Z" fill="#1D1D1B"/>
<path d="M268.212 361.078C268.13 361.078 268.064 361.049 268.012 360.989C267.96 360.945 267.93 360.879 267.93 360.805C267.93 360.724 267.96 360.657 268.019 360.606C268.101 360.51 268.3 360.502 268.404 360.606C268.463 360.657 268.485 360.731 268.485 360.805C268.485 360.871 268.456 360.945 268.404 360.997C268.352 361.049 268.286 361.078 268.212 361.078Z" fill="#1D1D1B"/>
<path d="M269.736 357.896C269.662 357.896 269.588 357.859 269.537 357.807C269.492 357.763 269.462 357.689 269.462 357.615C269.462 357.541 269.492 357.475 269.544 357.423C269.633 357.32 269.825 357.312 269.936 357.423C269.981 357.475 270.01 357.541 270.01 357.615C270.01 357.689 269.988 357.763 269.936 357.814C269.884 357.866 269.81 357.896 269.736 357.896Z" fill="#1D1D1B"/>
<path d="M274.177 356.788C274.103 356.788 274.029 356.759 273.977 356.707C273.933 356.655 273.903 356.589 273.903 356.508C273.903 356.434 273.933 356.36 273.985 356.308C274.081 356.212 274.266 356.212 274.377 356.308C274.421 356.353 274.458 356.426 274.458 356.5C274.458 356.574 274.421 356.648 274.369 356.7C274.325 356.751 274.251 356.781 274.177 356.781V356.788Z" fill="#1D1D1B"/>
<path d="M266.406 356.788C266.332 356.788 266.258 356.759 266.206 356.7C266.154 356.655 266.132 356.582 266.132 356.508C266.132 356.434 266.162 356.36 266.213 356.308C266.302 356.22 266.495 356.205 266.606 356.308C266.65 356.353 266.687 356.427 266.687 356.5C266.687 356.574 266.657 356.648 266.606 356.7C266.554 356.751 266.48 356.781 266.406 356.781V356.788Z" fill="#1D1D1B"/>
<path d="M272.23 360.251C272.164 360.251 272.09 360.222 272.038 360.17C271.986 360.118 271.957 360.044 271.957 359.971C271.957 359.897 271.986 359.83 272.038 359.779C272.142 359.668 272.327 359.675 272.43 359.779C272.482 359.838 272.512 359.904 272.512 359.978C272.512 360.052 272.482 360.126 272.43 360.177C272.378 360.229 272.304 360.258 272.23 360.258V360.251Z" fill="#1D1D1B"/>
<path d="M269.877 354.293C269.803 354.293 269.729 354.263 269.677 354.212C269.633 354.167 269.596 354.094 269.596 354.02C269.596 353.946 269.625 353.872 269.684 353.82C269.773 353.724 269.966 353.717 270.069 353.82C270.121 353.865 270.151 353.939 270.151 354.02C270.151 354.094 270.121 354.167 270.069 354.219C270.018 354.263 269.951 354.293 269.877 354.293Z" fill="#1D1D1B"/>
<path d="M262.106 348.202C262.032 348.202 261.958 348.172 261.906 348.12C261.854 348.069 261.832 348.002 261.832 347.928C261.832 347.855 261.862 347.781 261.906 347.729C262.002 347.633 262.195 347.626 262.298 347.729C262.35 347.781 262.38 347.855 262.38 347.928C262.38 347.995 262.35 348.069 262.298 348.12C262.246 348.172 262.18 348.202 262.106 348.202Z" fill="#1D1D1B"/>
<path d="M264.045 349.863C263.971 349.863 263.897 349.833 263.845 349.782C263.801 349.73 263.771 349.656 263.771 349.59C263.771 349.516 263.801 349.442 263.853 349.39C263.949 349.294 264.141 349.287 264.245 349.39C264.297 349.442 264.326 349.516 264.326 349.59C264.326 349.663 264.297 349.73 264.245 349.782C264.193 349.833 264.119 349.863 264.045 349.863Z" fill="#1D1D1B"/>
<path d="M263.49 352.499C263.416 352.499 263.342 352.462 263.29 352.41C263.246 352.358 263.216 352.292 263.216 352.218C263.216 352.144 263.246 352.078 263.297 352.026C263.386 351.923 263.586 351.915 263.69 352.026C263.741 352.078 263.771 352.144 263.771 352.218C263.771 352.292 263.741 352.358 263.69 352.417C263.638 352.469 263.564 352.499 263.49 352.499Z" fill="#1D1D1B"/>
<path d="M259.33 350.276C259.256 350.276 259.182 350.247 259.131 350.195C259.079 350.143 259.049 350.077 259.049 350.003C259.049 349.929 259.086 349.855 259.138 349.804C259.227 349.708 259.419 349.7 259.523 349.804C259.575 349.848 259.604 349.922 259.604 349.996C259.604 350.07 259.582 350.136 259.523 350.195C259.471 350.239 259.404 350.269 259.33 350.269V350.276Z" fill="#1D1D1B"/>
<path d="M257.798 412.716C257.724 412.716 257.65 412.687 257.606 412.628C257.554 412.584 257.524 412.51 257.524 412.436C257.524 412.362 257.554 412.288 257.606 412.237C257.702 412.141 257.895 412.141 257.998 412.237C258.05 412.281 258.08 412.355 258.08 412.429C258.08 412.502 258.05 412.576 257.998 412.628C257.946 412.68 257.88 412.709 257.798 412.709V412.716Z" fill="#1D1D1B"/>
<path d="M262.794 410.775C262.727 410.775 262.653 410.745 262.602 410.693C262.55 410.642 262.52 410.575 262.52 410.501C262.52 410.42 262.55 410.354 262.602 410.302C262.705 410.199 262.89 410.199 262.994 410.302C263.046 410.354 263.075 410.428 263.075 410.501C263.075 410.575 263.046 410.642 262.994 410.693C262.942 410.745 262.868 410.775 262.794 410.775Z" fill="#1D1D1B"/>
<path d="M266.406 409.948C266.332 409.948 266.258 409.918 266.206 409.859C266.154 409.815 266.132 409.741 266.132 409.667C266.132 409.593 266.162 409.519 266.213 409.468C266.302 409.379 266.495 409.364 266.606 409.468C266.65 409.512 266.687 409.586 266.687 409.66C266.687 409.733 266.657 409.807 266.606 409.859C266.554 409.911 266.48 409.94 266.406 409.94V409.948Z" fill="#1D1D1B"/>
<path d="M259.464 409.948C259.39 409.948 259.323 409.918 259.271 409.859C259.219 409.815 259.19 409.741 259.19 409.667C259.19 409.593 259.219 409.527 259.271 409.475C259.367 409.372 259.56 409.365 259.663 409.475C259.715 409.527 259.745 409.593 259.745 409.667C259.745 409.741 259.715 409.815 259.663 409.867C259.612 409.918 259.538 409.948 259.464 409.948Z" fill="#1D1D1B"/>
<path d="M269.877 407.452C269.803 407.452 269.729 407.423 269.677 407.371C269.633 407.327 269.596 407.253 269.596 407.179C269.596 407.105 269.625 407.031 269.684 406.98C269.773 406.884 269.966 406.876 270.069 406.98C270.121 407.024 270.151 407.098 270.151 407.179C270.151 407.253 270.121 407.327 270.069 407.378C270.017 407.423 269.951 407.452 269.877 407.452Z" fill="#1D1D1B"/>
<path d="M264.045 403.022C263.971 403.022 263.897 402.992 263.845 402.941C263.801 402.889 263.771 402.815 263.771 402.749C263.771 402.675 263.801 402.601 263.852 402.549C263.949 402.453 264.141 402.446 264.245 402.549C264.296 402.601 264.326 402.675 264.326 402.749C264.326 402.823 264.296 402.889 264.245 402.941C264.193 402.992 264.119 403.022 264.045 403.022Z" fill="#1D1D1B"/>
<path d="M263.49 405.658C263.416 405.658 263.342 405.621 263.29 405.569C263.246 405.518 263.216 405.451 263.216 405.377C263.216 405.303 263.246 405.237 263.297 405.185C263.386 405.082 263.586 405.075 263.69 405.185C263.741 405.237 263.771 405.303 263.771 405.377C263.771 405.451 263.741 405.518 263.69 405.577C263.638 405.628 263.564 405.658 263.49 405.658Z" fill="#1D1D1B"/>
<path d="M270.565 398.179C270.499 398.179 270.425 398.149 270.373 398.098C270.321 398.046 270.291 397.98 270.291 397.898C270.291 397.825 270.321 397.758 270.373 397.706C270.484 397.603 270.661 397.603 270.765 397.706C270.817 397.758 270.846 397.832 270.846 397.898C270.846 397.972 270.817 398.046 270.765 398.098C270.713 398.149 270.639 398.179 270.565 398.179Z" fill="#1D1D1B"/>
<path d="M274.873 403.716C274.799 403.716 274.725 403.687 274.673 403.635C274.628 403.591 274.591 403.517 274.591 403.443C274.591 403.362 274.628 403.288 274.68 403.244C274.776 403.14 274.961 403.14 275.065 403.244C275.117 403.295 275.146 403.362 275.146 403.443C275.146 403.517 275.117 403.591 275.065 403.635C275.013 403.687 274.947 403.716 274.873 403.716Z" fill="#1D1D1B"/>
<path d="M269.455 399.98C269.388 399.98 269.314 399.951 269.263 399.899C269.211 399.847 269.181 399.781 269.181 399.7C269.181 399.626 269.211 399.559 269.263 399.508C269.366 399.404 269.551 399.404 269.655 399.508C269.707 399.559 269.736 399.626 269.736 399.7C269.736 399.774 269.707 399.847 269.655 399.899C269.603 399.951 269.529 399.98 269.455 399.98Z" fill="#1D1D1B"/>
<path d="M270.987 403.856C270.913 403.856 270.839 403.827 270.787 403.775C270.735 403.723 270.706 403.649 270.706 403.576C270.706 403.502 270.735 403.435 270.787 403.384C270.891 403.28 271.076 403.28 271.179 403.384C271.231 403.435 271.261 403.502 271.261 403.576C271.261 403.649 271.239 403.716 271.179 403.775C271.128 403.827 271.061 403.856 270.987 403.856Z" fill="#1D1D1B"/>
<path d="M267.516 402.468C267.442 402.468 267.375 402.439 267.324 402.387C267.272 402.343 267.242 402.269 267.242 402.195C267.242 402.121 267.264 402.047 267.316 401.995C267.427 401.892 267.612 401.892 267.716 401.995C267.768 402.047 267.797 402.121 267.797 402.195C267.797 402.269 267.76 402.343 267.708 402.387C267.664 402.439 267.59 402.468 267.516 402.468Z" fill="#1D1D1B"/>
<path d="M277.226 402.195C277.152 402.195 277.086 402.166 277.034 402.114C276.982 402.062 276.952 401.988 276.952 401.915C276.952 401.841 276.982 401.774 277.034 401.723C277.137 401.619 277.322 401.619 277.426 401.723C277.478 401.774 277.507 401.841 277.507 401.915C277.507 401.988 277.478 402.062 277.426 402.114C277.374 402.166 277.308 402.195 277.226 402.195Z" fill="#1D1D1B"/>
<path d="M280.001 397.906C279.935 397.906 279.861 397.869 279.809 397.817C279.757 397.765 279.728 397.699 279.728 397.625C279.728 397.551 279.757 397.485 279.809 397.426C279.913 397.322 280.098 397.322 280.201 397.426C280.253 397.485 280.283 397.551 280.283 397.625C280.283 397.699 280.253 397.765 280.201 397.824C280.149 397.869 280.075 397.906 280.001 397.906Z" fill="#1D1D1B"/>
<path d="M267.79 396.517C267.723 396.517 267.649 396.488 267.597 396.436C267.546 396.384 267.516 396.318 267.516 396.244C267.516 396.163 267.546 396.096 267.597 396.045C267.701 395.941 267.886 395.941 267.99 396.045C268.041 396.096 268.071 396.17 268.071 396.244C268.071 396.311 268.041 396.384 267.99 396.436C267.938 396.488 267.864 396.517 267.79 396.517Z" fill="#1D1D1B"/>
<path d="M274.591 396.931C274.517 396.931 274.451 396.902 274.399 396.85C274.347 396.798 274.318 396.732 274.318 396.658C274.318 396.577 274.347 396.51 274.399 396.459C274.495 396.363 274.688 396.355 274.791 396.459C274.843 396.51 274.873 396.584 274.873 396.658C274.873 396.724 274.843 396.798 274.791 396.85C274.739 396.902 274.665 396.931 274.591 396.931Z" fill="#1D1D1B"/>
<path d="M274.873 399.84C274.799 399.84 274.725 399.811 274.673 399.759C274.628 399.715 274.591 399.641 274.591 399.567C274.591 399.486 274.628 399.412 274.68 399.368C274.776 399.264 274.961 399.264 275.065 399.368C275.117 399.419 275.146 399.486 275.146 399.567C275.146 399.641 275.117 399.715 275.065 399.759C275.013 399.811 274.947 399.84 274.873 399.84Z" fill="#1D1D1B"/>
<path d="M271.261 362.185C271.194 362.185 271.12 362.156 271.068 362.104C271.017 362.052 270.987 361.979 270.987 361.905C270.987 361.831 271.017 361.764 271.068 361.713C271.179 361.609 271.357 361.609 271.461 361.713C271.512 361.764 271.542 361.838 271.542 361.905C271.542 361.979 271.512 362.052 271.461 362.104C271.409 362.156 271.335 362.185 271.261 362.185Z" fill="#1D1D1B"/>
<path d="M273.207 365.235C273.133 365.235 273.059 365.198 273.008 365.146C272.963 365.102 272.926 365.028 272.926 364.954C272.926 364.88 272.963 364.807 273.015 364.755C273.111 364.659 273.296 364.652 273.4 364.755C273.452 364.799 273.481 364.873 273.481 364.947C273.481 365.021 273.452 365.095 273.4 365.146C273.348 365.191 273.281 365.227 273.207 365.227V365.235Z" fill="#1D1D1B"/>
<path d="M278.758 366.755C278.684 366.755 278.61 366.726 278.558 366.674C278.507 366.615 278.477 366.549 278.477 366.475C278.477 366.408 278.507 366.335 278.558 366.283C278.669 366.172 278.854 366.18 278.958 366.283C279.002 366.335 279.032 366.401 279.032 366.475C279.032 366.549 279.002 366.623 278.951 366.674C278.906 366.719 278.832 366.755 278.758 366.755Z" fill="#1D1D1B"/>
<path d="M270.151 366.888C270.077 366.888 270.01 366.866 269.958 366.807C269.906 366.763 269.877 366.689 269.877 366.615C269.877 366.541 269.906 366.475 269.958 366.416C270.062 366.313 270.247 366.313 270.351 366.416C270.402 366.475 270.432 366.541 270.432 366.615C270.432 366.689 270.402 366.756 270.351 366.815C270.299 366.866 270.225 366.888 270.151 366.888Z" fill="#1D1D1B"/>
<path d="M273.762 368.004C273.688 368.004 273.614 367.967 273.563 367.915C273.518 367.871 273.481 367.797 273.481 367.723C273.481 367.649 273.518 367.575 273.57 367.524C273.666 367.428 273.851 367.428 273.955 367.524C274.007 367.568 274.036 367.642 274.036 367.716C274.036 367.789 274.007 367.863 273.955 367.915C273.903 367.959 273.836 367.996 273.762 367.996V368.004Z" fill="#1D1D1B"/>
<path d="M275.561 362.325C275.487 362.325 275.42 362.296 275.368 362.244C275.317 362.193 275.287 362.119 275.287 362.045C275.287 361.971 275.317 361.905 275.368 361.853C275.472 361.75 275.657 361.75 275.761 361.853C275.813 361.905 275.842 361.971 275.842 362.045C275.842 362.119 275.813 362.185 275.761 362.244C275.709 362.296 275.642 362.325 275.561 362.325Z" fill="#1D1D1B"/>
<path d="M279.173 363.846C279.099 363.846 279.025 363.817 278.973 363.765C278.921 363.714 278.899 363.647 278.899 363.573C278.899 363.492 278.921 363.426 278.973 363.374C279.084 363.271 279.261 363.271 279.372 363.374C279.424 363.426 279.446 363.492 279.446 363.573C279.446 363.647 279.417 363.714 279.372 363.765C279.321 363.817 279.247 363.846 279.173 363.846Z" fill="#1D1D1B"/>
<path d="M281.534 367.582C281.459 367.582 281.386 367.553 281.334 367.501C281.282 367.449 281.252 367.383 281.252 367.309C281.252 367.235 281.282 367.161 281.334 367.11C281.445 367.006 281.622 367.006 281.726 367.11C281.778 367.161 281.807 367.235 281.807 367.309C281.807 367.383 281.778 367.449 281.726 367.501C281.674 367.553 281.608 367.582 281.534 367.582Z" fill="#1D1D1B"/>
<path d="M271.261 387.931C271.187 387.931 271.12 387.909 271.068 387.857C271.017 387.805 270.987 387.731 270.987 387.658C270.987 387.584 271.017 387.517 271.068 387.466C271.179 387.355 271.357 387.362 271.461 387.466C271.512 387.525 271.542 387.591 271.542 387.665C271.542 387.739 271.512 387.813 271.461 387.864C271.409 387.916 271.335 387.938 271.261 387.938V387.931Z" fill="#1D1D1B"/>
<path d="M269.736 377.831C269.662 377.831 269.588 377.801 269.536 377.742C269.492 377.698 269.462 377.624 269.462 377.55C269.462 377.476 269.492 377.41 269.544 377.358C269.633 377.262 269.825 377.255 269.936 377.358C269.988 377.41 270.01 377.476 270.01 377.55C270.01 377.624 269.988 377.698 269.936 377.749C269.884 377.801 269.81 377.831 269.736 377.831Z" fill="#1D1D1B"/>
<path d="M278.477 377.136C278.403 377.136 278.336 377.107 278.285 377.055C278.233 377.011 278.203 376.937 278.203 376.856C278.203 376.782 278.233 376.708 278.285 376.664C278.381 376.561 278.573 376.561 278.677 376.664C278.729 376.716 278.758 376.782 278.758 376.856C278.758 376.937 278.729 377.004 278.669 377.055C278.625 377.107 278.551 377.136 278.477 377.136Z" fill="#1D1D1B"/>
<path d="M268.071 385.997C267.997 385.997 267.923 385.967 267.871 385.908C267.827 385.871 267.797 385.797 267.797 385.716C267.797 385.642 267.827 385.576 267.879 385.524C267.967 385.428 268.16 385.421 268.271 385.524C268.323 385.576 268.352 385.65 268.352 385.716C268.352 385.797 268.315 385.871 268.263 385.915C268.219 385.967 268.145 385.997 268.071 385.997Z" fill="#1D1D1B"/>
<path d="M282.918 390.567C282.844 390.567 282.777 390.537 282.725 390.485C282.673 390.434 282.644 390.36 282.644 390.286C282.644 390.212 282.673 390.146 282.725 390.094C282.829 389.991 283.014 389.991 283.117 390.094C283.169 390.146 283.199 390.212 283.199 390.286C283.199 390.36 283.169 390.434 283.117 390.485C283.066 390.537 282.992 390.567 282.918 390.567Z" fill="#1D1D1B"/>
<path d="M273.207 390.98C273.133 390.98 273.059 390.95 273.008 390.899C272.956 390.847 272.926 390.781 272.926 390.707C272.926 390.626 272.963 390.552 273.015 390.507C273.111 390.411 273.296 390.404 273.4 390.507C273.452 390.552 273.481 390.626 273.481 390.707C273.481 390.773 273.452 390.847 273.4 390.899C273.348 390.95 273.281 390.98 273.207 390.98Z" fill="#1D1D1B"/>
<path d="M276.908 392.782C276.834 392.782 276.76 392.752 276.708 392.7C276.656 392.649 276.627 392.575 276.627 392.501C276.627 392.427 276.656 392.361 276.708 392.309C276.812 392.206 276.997 392.206 277.1 392.309C277.152 392.361 277.182 392.427 277.182 392.501C277.182 392.575 277.152 392.649 277.1 392.7C277.048 392.752 276.982 392.782 276.908 392.782Z" fill="#1D1D1B"/>
<path d="M284.442 385.723C284.376 385.723 284.302 385.686 284.25 385.635C284.198 385.59 284.168 385.516 284.168 385.443C284.168 385.369 284.198 385.295 284.257 385.243C284.353 385.147 284.538 385.14 284.642 385.243C284.694 385.288 284.723 385.361 284.723 385.435C284.723 385.509 284.694 385.583 284.642 385.635C284.59 385.679 284.516 385.716 284.442 385.716V385.723Z" fill="#1D1D1B"/>
<path d="M270.565 384.195C270.499 384.195 270.425 384.165 270.373 384.113C270.321 384.062 270.291 383.995 270.291 383.921C270.291 383.848 270.321 383.774 270.373 383.722C270.484 383.619 270.661 383.619 270.765 383.722C270.817 383.774 270.846 383.848 270.846 383.921C270.846 383.995 270.817 384.062 270.765 384.113C270.713 384.165 270.647 384.195 270.565 384.195Z" fill="#1D1D1B"/>
<path d="M284.723 378.103C284.649 378.103 284.575 378.074 284.524 378.022C284.479 377.978 284.442 377.904 284.442 377.83C284.442 377.749 284.479 377.683 284.531 377.631C284.62 377.535 284.812 377.528 284.923 377.631C284.968 377.683 285.005 377.749 285.005 377.83C285.005 377.904 284.968 377.978 284.916 378.022C284.864 378.074 284.797 378.103 284.723 378.103Z" fill="#1D1D1B"/>
<path d="M274.177 376.723C274.103 376.723 274.036 376.693 273.977 376.642C273.933 376.59 273.903 376.516 273.903 376.442C273.903 376.368 273.933 376.295 273.984 376.243C274.081 376.147 274.266 376.147 274.377 376.243C274.421 376.287 274.458 376.361 274.458 376.435C274.458 376.509 274.421 376.583 274.369 376.634C274.317 376.686 274.251 376.715 274.177 376.715V376.723Z" fill="#1D1D1B"/>
<path d="M270.151 392.641C270.084 392.641 270.01 392.612 269.958 392.56C269.906 392.516 269.877 392.442 269.877 392.361C269.877 392.287 269.906 392.221 269.958 392.169C270.062 392.065 270.247 392.065 270.351 392.169C270.402 392.221 270.432 392.294 270.432 392.361C270.432 392.442 270.402 392.508 270.343 392.56C270.299 392.612 270.225 392.641 270.151 392.641Z" fill="#1D1D1B"/>
<path d="M280.697 374.781C280.631 374.781 280.557 374.751 280.505 374.7C280.453 374.656 280.423 374.582 280.423 374.508C280.423 374.427 280.453 374.36 280.505 374.308C280.608 374.205 280.793 374.205 280.897 374.308C280.949 374.36 280.978 374.434 280.978 374.508C280.978 374.582 280.949 374.656 280.89 374.7C280.845 374.751 280.771 374.781 280.697 374.781Z" fill="#1D1D1B"/>
<path d="M273.762 393.749C273.688 393.749 273.614 393.719 273.563 393.668C273.511 393.616 273.481 393.549 273.481 393.476C273.481 393.394 273.511 393.328 273.563 393.276C273.666 393.173 273.851 393.173 273.955 393.276C274.007 393.328 274.036 393.402 274.036 393.476C274.036 393.542 274.007 393.616 273.955 393.668C273.903 393.719 273.836 393.749 273.762 393.749Z" fill="#1D1D1B"/>
<path d="M281.349 379.861C281.274 379.861 281.201 379.831 281.149 379.772C281.104 379.728 281.067 379.654 281.067 379.58C281.067 379.507 281.097 379.44 281.149 379.388C281.26 379.278 281.437 379.285 281.541 379.388C281.6 379.44 281.63 379.507 281.63 379.58C281.63 379.654 281.593 379.728 281.541 379.78C281.489 379.831 281.423 379.861 281.349 379.861Z" fill="#1D1D1B"/>
<path d="M282.222 383.508C282.155 383.508 282.081 383.471 282.029 383.42C281.978 383.375 281.948 383.302 281.948 383.228C281.948 383.154 281.978 383.08 282.037 383.028C282.133 382.932 282.318 382.925 282.422 383.028C282.473 383.073 282.503 383.147 282.503 383.22C282.503 383.294 282.473 383.368 282.422 383.42C282.37 383.464 282.296 383.501 282.222 383.501V383.508Z" fill="#1D1D1B"/>
<path d="M272.23 380.185C272.164 380.185 272.09 380.156 272.038 380.104C271.986 380.052 271.957 379.979 271.957 379.905C271.957 379.831 271.986 379.757 272.038 379.705C272.142 379.602 272.327 379.602 272.43 379.705C272.482 379.757 272.512 379.831 272.512 379.905C272.512 379.979 272.482 380.052 272.43 380.104C272.378 380.156 272.304 380.185 272.23 380.185Z" fill="#1D1D1B"/>
<path d="M276.812 383.782C276.745 383.782 276.671 383.752 276.619 383.7C276.567 383.649 276.538 383.582 276.538 383.501C276.538 383.427 276.567 383.361 276.619 383.309C276.723 383.206 276.908 383.206 277.011 383.309C277.063 383.361 277.093 383.434 277.093 383.501C277.093 383.575 277.063 383.649 277.011 383.7C276.96 383.752 276.886 383.782 276.812 383.782Z" fill="#1D1D1B"/>
<path d="M278.062 381.293C277.988 381.293 277.922 381.264 277.863 381.212C277.811 381.153 277.789 381.087 277.789 381.013C277.789 380.939 277.811 380.865 277.863 380.813C277.966 380.71 278.151 380.71 278.262 380.813C278.307 380.865 278.336 380.939 278.336 381.013C278.336 381.087 278.307 381.16 278.255 381.212C278.203 381.264 278.136 381.293 278.062 381.293Z" fill="#1D1D1B"/>
<path d="M275.561 388.071C275.494 388.071 275.42 388.042 275.368 387.99C275.317 387.946 275.287 387.872 275.287 387.798C275.287 387.717 275.317 387.65 275.368 387.599C275.472 387.503 275.657 387.495 275.761 387.599C275.813 387.65 275.842 387.717 275.842 387.798C275.842 387.872 275.813 387.946 275.761 387.99C275.709 388.042 275.635 388.071 275.561 388.071Z" fill="#1D1D1B"/>
<path d="M279.173 389.599C279.099 389.599 279.032 389.57 278.98 389.518C278.921 389.459 278.899 389.393 278.899 389.319C278.899 389.245 278.928 389.171 278.98 389.119C279.076 389.023 279.261 389.023 279.372 389.119C279.417 389.171 279.446 389.245 279.446 389.319C279.446 389.393 279.424 389.459 279.372 389.518C279.313 389.57 279.247 389.599 279.173 389.599Z" fill="#1D1D1B"/>
<path d="M280.001 386.55C279.935 386.55 279.861 386.521 279.809 386.469C279.757 386.425 279.728 386.351 279.728 386.277C279.728 386.196 279.757 386.129 279.809 386.078C279.905 385.974 280.098 385.974 280.201 386.078C280.253 386.129 280.283 386.196 280.283 386.277C280.283 386.351 280.253 386.425 280.201 386.469C280.149 386.521 280.075 386.55 280.001 386.55Z" fill="#1D1D1B"/>
<path d="M281.534 393.335C281.459 393.335 281.386 393.306 281.334 393.254C281.289 393.202 281.252 393.128 281.252 393.055C281.252 392.981 281.289 392.907 281.341 392.855C281.437 392.759 281.622 392.759 281.726 392.855C281.778 392.899 281.807 392.973 281.807 393.047C281.807 393.121 281.778 393.195 281.726 393.247C281.674 393.298 281.608 393.328 281.534 393.328V393.335Z" fill="#1D1D1B"/>
<path d="M278.758 395.41C278.684 395.41 278.618 395.38 278.558 395.329C278.507 395.277 278.477 395.203 278.477 395.129C278.477 395.063 278.507 394.989 278.558 394.937C278.669 394.827 278.862 394.834 278.958 394.937C279.002 394.989 279.032 395.063 279.032 395.129C279.032 395.203 279.002 395.277 278.951 395.329C278.906 395.38 278.832 395.41 278.758 395.41Z" fill="#1D1D1B"/>
<path d="M270.565 374.648C270.499 374.648 270.425 374.618 270.373 374.567C270.321 374.508 270.291 374.441 270.291 374.367C270.291 374.294 270.321 374.22 270.373 374.168C270.484 374.065 270.661 374.072 270.765 374.168C270.817 374.22 270.846 374.294 270.846 374.367C270.846 374.441 270.817 374.508 270.765 374.559C270.713 374.611 270.639 374.648 270.565 374.648Z" fill="#1D1D1B"/>
<path d="M278.477 371.186C278.403 371.186 278.336 371.156 278.285 371.105C278.233 371.053 278.203 370.979 278.203 370.905C278.203 370.831 278.233 370.757 278.285 370.706C278.381 370.61 278.573 370.61 278.677 370.706C278.729 370.75 278.758 370.824 278.758 370.898C278.758 370.972 278.729 371.045 278.669 371.097C278.625 371.149 278.551 371.178 278.477 371.178V371.186Z" fill="#1D1D1B"/>
<path d="M272.926 373.12C272.852 373.12 272.785 373.09 272.734 373.039C272.682 372.987 272.652 372.921 272.652 372.847C272.652 372.773 272.682 372.699 272.734 372.647C272.837 372.544 273.022 372.544 273.126 372.647C273.178 372.699 273.207 372.773 273.207 372.847C273.207 372.913 273.178 372.987 273.126 373.039C273.074 373.09 273 373.12 272.926 373.12Z" fill="#1D1D1B"/>
<path d="M275.701 368.83C275.635 368.83 275.561 368.801 275.509 368.749C275.457 368.697 275.428 368.631 275.428 368.557C275.428 368.476 275.457 368.402 275.509 368.358C275.605 368.254 275.798 368.254 275.901 368.358C275.953 368.409 275.983 368.476 275.983 368.557C275.983 368.624 275.953 368.697 275.901 368.749C275.842 368.801 275.775 368.83 275.701 368.83Z" fill="#1D1D1B"/>
<path d="M276.538 373.12C276.464 373.12 276.39 373.09 276.338 373.039C276.286 372.987 276.257 372.921 276.257 372.847C276.257 372.773 276.286 372.699 276.338 372.647C276.442 372.544 276.627 372.544 276.73 372.647C276.782 372.699 276.812 372.773 276.812 372.847C276.812 372.921 276.782 372.987 276.73 373.039C276.678 373.09 276.612 373.12 276.538 373.12Z" fill="#1D1D1B"/>
<path d="M280.423 370.772C280.349 370.772 280.275 370.743 280.224 370.691C280.172 370.639 280.142 370.566 280.142 370.492C280.142 370.418 280.172 370.344 280.224 370.292C280.327 370.189 280.512 370.189 280.616 370.292C280.668 370.344 280.697 370.418 280.697 370.492C280.697 370.566 280.668 370.632 280.616 370.684C280.564 370.743 280.497 370.772 280.423 370.772Z" fill="#1D1D1B"/>
<path d="M270.565 370.772C270.499 370.772 270.425 370.743 270.373 370.691C270.321 370.639 270.291 370.566 270.291 370.492C270.291 370.418 270.321 370.344 270.373 370.292C270.484 370.189 270.661 370.189 270.765 370.292C270.817 370.344 270.846 370.418 270.846 370.492C270.846 370.566 270.817 370.639 270.765 370.691C270.713 370.735 270.639 370.772 270.565 370.772Z" fill="#1D1D1B"/>
<path d="M253.78 417.147C253.706 417.147 253.632 417.117 253.58 417.058C253.535 417.014 253.498 416.94 253.498 416.866C253.498 416.792 253.528 416.726 253.58 416.674C253.676 416.571 253.868 416.563 253.972 416.674C254.024 416.726 254.053 416.792 254.053 416.866C254.053 416.94 254.024 417.014 253.972 417.065C253.92 417.117 253.854 417.147 253.78 417.147Z" fill="#1D1D1B"/>
<path d="M167.32 394.65C166.203 394.65 165.085 394.576 163.975 394.421C150.172 392.531 140.625 381.64 140.21 367.332C140.07 362.318 142.838 359.579 145.517 356.936C146.575 355.888 147.671 354.81 148.574 353.591L149.765 354.47C148.796 355.777 147.656 356.899 146.56 357.977C143.992 360.517 141.565 362.909 141.691 367.28C142.083 380.85 151.12 391.165 164.175 392.951C177.297 394.746 191.537 385.014 194.638 372.116C195.348 369.155 194.431 366.985 193.357 364.474C192.987 363.61 192.61 362.71 192.292 361.757L193.698 361.292C194.001 362.193 194.371 363.064 194.727 363.898C195.8 366.423 196.91 369.03 196.081 372.463C193.076 384.963 180.139 394.642 167.32 394.642V394.65Z" fill="#2D1F30"/>
<path d="M189.006 357.32C182.759 351.302 176.786 348.371 169.644 347.81C164.175 347.382 159.357 349.102 153.814 351.819L153.162 350.49C158.928 347.67 163.953 345.883 169.763 346.341C177.267 346.924 183.521 349.981 190.034 356.257L189.006 357.32Z" fill="#2D1F30"/>
<path d="M278.018 405.879L276.671 405.267C287.144 382.312 285.56 366.209 271.683 354.595C253.52 339.393 239.695 344.813 223.687 351.081C215.679 354.219 207.397 357.467 197.857 358.435L197.709 356.965C207.049 356.013 215.227 352.809 223.147 349.708C238.903 343.535 253.794 337.695 272.63 353.466C286.892 365.404 288.653 382.548 278.018 405.879Z" fill="#2D1F30"/>
<path d="M191.44 426.28L190.034 425.814C193.283 416.083 198.582 412.119 207.738 412.539C212.489 412.761 217.958 413.344 223.243 413.905C228.238 414.437 233.404 414.983 238.023 415.242L237.941 416.718C233.279 416.46 228.098 415.914 223.087 415.375C217.825 414.813 212.378 414.238 207.671 414.016C199.189 413.625 194.49 417.176 191.44 426.28Z" fill="#2D1F30"/>
<path d="M197.169 425.024L195.733 424.663C197.361 418.158 203.253 418.904 210.069 419.76L209.891 421.229C202.601 420.314 198.42 420.033 197.169 425.024Z" fill="#2D1F30"/>
<path d="M229.548 415.596C220.312 408.036 215.22 399.7 214.813 391.468C214.465 384.454 217.507 377.698 223.842 371.378C236.646 358.612 253.158 365.087 264.341 375.402L263.334 376.487C252.655 366.638 236.949 360.399 224.886 372.426C218.854 378.436 215.96 384.823 216.286 391.401C216.671 399.198 221.577 407.172 230.481 414.459L229.541 415.604L229.548 415.596Z" fill="#2D1F30"/>
<path d="M157.47 411.351L156.241 410.531C160.156 404.698 165.914 398.371 175.713 401.199C177.475 401.708 179.273 402.734 181.175 403.82C184.52 405.732 187.977 407.711 191.566 407.054C198.952 405.71 203.919 398.688 207.419 392.715L208.7 393.461C205.036 399.7 199.811 407.054 191.833 408.501C187.71 409.246 183.847 407.039 180.435 405.097C178.614 404.056 176.89 403.074 175.299 402.609C168.282 400.579 162.946 403.192 157.47 411.343V411.351Z" fill="#2D1F30"/>
<path d="M152.985 411.24C144.614 408.242 140.832 401.021 143.57 393.284C144.274 391.298 145.302 389.275 146.301 387.318C146.657 386.624 147.004 385.937 147.33 385.273L148.662 385.923C148.329 386.602 147.981 387.289 147.626 387.99C146.649 389.902 145.643 391.881 144.977 393.778C142.527 400.689 145.954 407.157 153.495 409.852L152.992 411.24H152.985Z" fill="#2D1F30"/>
<path d="M141.343 362.141C141.269 361.108 140.943 359.476 140.558 357.586C139.226 350.956 137.398 341.882 142.194 339.674C146.597 337.651 151.349 341.476 155.168 344.555C156.626 345.736 158.01 346.843 159.157 347.464L158.454 348.763C157.188 348.084 155.753 346.925 154.235 345.706C150.557 342.738 146.383 339.371 142.808 341.018C139.078 342.731 140.839 351.495 142.009 357.298C142.401 359.24 142.734 360.908 142.816 362.038L141.335 362.141H141.343Z" fill="#2D1F30"/>
<path d="M157.655 372.84C156.878 370.086 154.998 368.934 151.749 369.222L151.615 367.753C155.59 367.398 158.099 368.978 159.076 372.441L157.655 372.84Z" fill="#2D1F30"/>
<path d="M164.412 383.457L164.168 383.324C164.034 383.25 163.871 383.169 163.686 383.073C161.747 382.069 159.645 380.873 159.261 379.322C159.113 378.746 159.224 378.178 159.571 377.661C160.652 376.073 163.161 375.815 165.137 376.103C167.187 376.398 169.8 377.454 170.429 379.425C170.606 379.987 170.547 380.548 170.259 381.042C169.481 382.357 167.232 382.896 165.189 383.302C164.996 383.339 164.826 383.375 164.693 383.405L164.419 383.464L164.412 383.457ZM163.709 377.476C162.339 377.476 161.237 377.845 160.793 378.495C160.652 378.702 160.667 378.842 160.696 378.96C160.955 379.994 163.353 381.227 164.375 381.759C164.471 381.81 164.56 381.855 164.641 381.899C164.723 381.884 164.811 381.862 164.9 381.847C165.973 381.633 168.475 381.146 168.986 380.289C169.045 380.193 169.082 380.075 169.023 379.876C168.69 378.82 167.002 377.868 164.93 377.572C164.508 377.513 164.101 377.484 163.716 377.484L163.709 377.476Z" fill="#2D1F30"/>
<path d="M173.345 375.46L172.146 374.597C175.055 370.58 179.059 369.399 184.047 371.075L183.573 372.478C179.207 371.008 175.861 371.983 173.345 375.46Z" fill="#2D1F30"/>
<path d="M161.696 388.005C159.594 388.005 158.143 386.196 156.966 384.727C156.7 384.394 156.448 384.077 156.197 383.804L157.299 382.822C157.566 383.117 157.832 383.457 158.121 383.811C159.187 385.14 160.4 386.646 161.873 386.528C162.761 386.454 163.265 384.557 163.561 383.42C163.65 383.073 163.731 382.763 163.82 382.519L165.226 382.984C165.152 383.206 165.078 383.486 164.997 383.796C164.575 385.406 163.931 387.842 161.992 387.997C161.888 388.005 161.792 388.012 161.696 388.012V388.005Z" fill="#2D1F30"/>
<path d="M166.921 388.611C166.573 388.611 166.225 388.559 165.862 388.448C163.975 387.85 163.812 385.207 163.709 383.457C163.694 383.213 163.679 382.992 163.664 382.8L165.137 382.667C165.159 382.866 165.167 383.11 165.189 383.376C165.256 384.557 165.389 386.757 166.306 387.045C167.72 387.488 169.171 386.248 170.458 385.148C170.769 384.882 171.065 384.631 171.347 384.409L172.257 385.576C171.991 385.783 171.717 386.019 171.421 386.27C170.236 387.289 168.675 388.618 166.913 388.618L166.921 388.611Z" fill="#2D1F30"/>
<path d="M153.88 351.229C150.883 347.966 147.752 346.016 144.311 345.278L144.621 343.831C148.374 344.636 151.763 346.733 154.975 350.232L153.88 351.229Z" fill="#2D1F30"/>
<path d="M149.499 352.122C148.322 351.421 147.012 350.823 145.25 350.181L145.761 348.792C147.611 349.464 148.995 350.107 150.261 350.852L149.499 352.122Z" fill="#2D1F30"/>
<path d="M195.807 366.069L194.357 365.774C194.571 364.725 195.089 363.123 195.689 361.27C197.598 355.378 200.803 345.507 197.08 343.321C193.55 341.239 188.991 344.281 184.972 346.961C183.373 348.024 181.864 349.036 180.546 349.604L179.954 348.253C181.146 347.729 182.604 346.762 184.15 345.728C188.317 342.952 193.505 339.497 197.835 342.044C202.572 344.835 199.278 354.994 197.095 361.72C196.51 363.529 196 365.094 195.8 366.062L195.807 366.069Z" fill="#2D1F30"/>
<path d="M184.765 352.839L183.751 351.768C187.414 348.313 190.952 346.541 194.897 346.208L195.023 347.678C191.433 347.988 188.177 349.627 184.772 352.839H184.765Z" fill="#2D1F30"/>
<path d="M163.553 403.798C161.303 401.531 158.609 398.873 155.693 396.34L156.663 395.226C159.616 397.788 162.339 400.475 164.604 402.757L163.553 403.798Z" fill="#2D1F30"/>
<path d="M163.783 365.988C163.568 365.988 163.354 365.973 163.117 365.936C162.199 365.789 161.755 365.316 161.548 364.94C160.845 363.684 161.651 361.735 162.436 359.853C162.843 358.878 163.524 357.246 163.324 356.877C162.872 356.604 162.495 356.493 162.221 356.567C161.725 356.7 161.303 357.505 160.896 358.287C160.171 359.675 159.068 361.772 156.552 360.576C156.019 360.325 155.146 359.668 155.235 358.073C155.434 354.411 160.771 347.774 163.094 346.961L163.583 348.357C161.896 348.948 156.885 354.972 156.715 358.154C156.67 358.996 157.033 359.173 157.196 359.247C158.276 359.757 158.676 359.358 159.594 357.608C160.149 356.545 160.726 355.452 161.844 355.149C162.539 354.957 163.294 355.127 164.138 355.651C165.463 356.471 164.664 358.391 163.812 360.428C163.257 361.765 162.495 363.596 162.843 364.231C162.872 364.283 162.954 364.43 163.354 364.489C165.263 364.792 166.181 362.968 167.365 360.148C168.32 357.874 169.311 355.519 171.472 355.371C171.909 355.341 172.287 355.489 172.546 355.792C173.153 356.515 172.827 357.807 172.42 359.454C172.131 360.613 171.694 362.363 172.035 362.85C172.057 362.88 172.087 362.924 172.227 362.939C173.53 363.109 175.676 360.325 177.726 352.012L179.162 352.366C177.082 360.812 174.744 364.755 172.042 364.401C171.517 364.334 171.095 364.083 170.814 363.677C170.103 362.636 170.555 360.835 170.984 359.092C171.162 358.369 171.421 357.327 171.413 356.862C170.259 357.099 169.519 358.856 168.741 360.709C167.742 363.079 166.521 365.988 163.798 365.988H163.783Z" fill="#2D1F30"/>
<path d="M208.078 453.214C208.078 453.214 191.996 457.954 184.698 457.658C162.606 456.765 129.597 442.486 121.249 452.195C115.95 458.36 121.027 468.563 129.523 474.108C143.459 483.204 174.233 482.459 189.716 481.698C205.799 480.916 219.453 477.194 219.453 477.194L208.078 453.206V453.214Z" fill="#FF6868"/>
<path d="M174.122 482.68C152.356 482.68 137.183 479.963 128.916 474.566C123.203 470.837 119.021 465.019 118.266 459.748C117.815 456.595 118.585 453.76 120.479 451.552C126.015 445.114 141.202 448.525 157.292 452.143C166.669 454.247 176.372 456.425 184.521 456.757C191.618 457.038 207.708 452.386 207.871 452.342L208.285 453.76C207.619 453.952 191.803 458.537 184.461 458.234C176.172 457.902 166.41 455.709 156.966 453.583C141.328 450.068 126.555 446.753 121.604 452.512C119.991 454.387 119.347 456.816 119.732 459.541C120.427 464.406 124.35 469.818 129.723 473.325C139.552 479.741 159.66 482.259 189.479 480.797C205.303 480.022 218.921 476.36 219.061 476.323L219.454 477.748C219.313 477.785 205.54 481.491 189.561 482.274C184.099 482.54 178.948 482.673 174.13 482.673L174.122 482.68Z" fill="#2D1F30"/>
<path d="M132.069 396.798C132.069 396.798 164.945 415.374 182.093 422.211C192.01 426.169 222.666 435.582 222.666 435.582L301.331 392.324L293.916 416.194L213.592 448.673L126.822 409.652L132.069 396.798Z" fill="white"/>
<path d="M222.444 486.172C222.155 486.172 221.888 486.003 221.77 485.737L203.956 445.801C203.8 445.454 203.941 445.04 204.274 444.856L315.06 383.929L315.778 385.221L205.591 445.816L222.865 484.548C232.302 481.957 346.841 449.729 370.08 408.803C374.128 401.678 375.187 394.605 373.225 387.776C370.887 379.625 366.239 373.733 359.415 370.27C343.717 362.304 319.56 368.247 302.064 374.634L301.553 373.246C319.331 366.756 343.91 360.746 360.088 368.956C367.297 372.618 372.197 378.813 374.654 387.377C376.726 394.598 375.623 402.055 371.375 409.542C361.11 427.623 332.941 446.015 287.662 464.207C254.009 477.726 222.954 486.069 222.643 486.15C222.577 486.165 222.518 486.172 222.451 486.172H222.444Z" fill="#2D1F30"/>
<path d="M223.576 435.627C177.726 428.834 112.219 385.458 111.561 385.022L112.382 383.796C113.034 384.232 178.267 427.424 223.79 434.172L223.576 435.634V435.627Z" fill="#2D1F30"/>
<path d="M194.112 126.135C193.861 132.854 192.565 139.743 182.456 142.6C177.415 144.025 171.132 143.434 166.388 139.226C163.435 136.605 162.621 130.964 162.621 127.789C162.621 120.945 169.393 114.123 175.846 113.23C184.831 111.982 194.497 115.902 194.112 126.135Z" fill="#2D1F30"/>
<path d="M267.79 127.627C268.515 134.316 267.042 140.23 256.94 143.088C251.9 144.513 245.513 143.494 241.02 139.012C238.741 136.738 237.749 130.455 237.749 127.28C237.749 120.436 244.425 113.939 250.871 113.045C259.856 111.797 266.813 118.738 267.782 127.627H267.79Z" fill="#2D1F30"/>
<rect y="330" width="429" height="215" fill="url(#paint0_linear_305_585)"/>
<g clip-path="url(#clip0_305_585)">
<path d="M178.627 74.7887H172.633L171.25 64.1712C171.134 63.2188 171.045 62.3881 170.992 61.6719C170.918 60.9668 170.844 59.9663 170.766 58.6705C170.571 59.8334 170.274 61.1292 169.868 62.5616C169.783 62.8422 169.719 63.0822 169.673 63.2815L166.476 74.7887H162.201L159.004 63.2815C158.972 63.0896 158.908 62.8496 158.809 62.5616C158.36 61.0517 158.063 59.7559 157.925 58.6705C157.841 59.8999 157.759 60.8191 157.685 61.4209C157.653 61.7347 157.604 62.1925 157.54 62.7979C157.476 63.4034 157.427 63.8611 157.395 64.1749L156.012 74.7924H150.053L153.685 50.2275H160.033L163.584 62.8939C163.647 63.1302 163.69 63.2815 163.711 63.348C164.022 64.4001 164.231 65.36 164.337 66.2349C164.358 65.9322 164.439 65.4412 164.577 64.7582C164.62 64.5921 164.782 63.9571 165.058 62.8644L168.648 50.2275H175.013L178.627 74.7887Z" fill="#FDE7EF"/>
<path d="M188.101 74.7885V57.8434H193.823V74.7885H188.101ZM188.823 53.4798H188.855C188.855 52.8522 189.063 52.339 189.48 51.9366C189.898 51.501 190.403 51.2832 190.991 51.2832C191.613 51.2832 192.122 51.4899 192.525 51.9034C192.928 52.3169 193.126 52.8411 193.126 53.4798C193.126 54.1295 192.918 54.6648 192.501 55.0894C192.094 55.525 191.588 55.7428 190.991 55.7428C190.379 55.7428 189.866 55.5139 189.449 55.0562C189.031 54.6316 188.823 54.1074 188.823 53.4798Z" fill="#FDE7EF"/>
<path d="M205.047 74.7883V57.8432H210.284V61.2839C211.024 59.9401 211.901 58.9359 212.915 58.264C213.899 57.6254 215.094 57.3079 216.498 57.3079C217.559 57.3079 218.499 57.474 219.323 57.8099C220.14 58.1902 220.802 58.7033 221.307 59.3531C221.767 60.0028 222.075 60.6895 222.223 61.4168C222.407 62.3434 222.499 63.5691 222.499 65.09V74.7883H216.745V65.7103C216.745 64.3332 216.537 63.3512 216.119 62.7569C215.702 62.1403 215.023 61.8339 214.082 61.8339C212.908 61.8339 212.042 62.2917 211.487 63.211C210.942 64.1265 210.67 65.6143 210.67 67.6743V74.7883H205.047Z" fill="#FDE7EF"/>
<path d="M250.568 48.7839V74.7886H245.295V72.0382C244.566 73.19 243.742 74.0391 242.819 74.5892C241.964 75.1614 240.956 75.4457 239.799 75.4457C237.529 75.4457 235.715 74.6187 234.36 72.9611C233.006 71.3072 232.327 69.0959 232.327 66.3345C232.327 63.6506 233.006 61.4651 234.367 59.7742C235.718 58.1314 237.465 57.3082 239.605 57.3082C240.977 57.3082 242.091 57.574 242.947 58.0982C243.771 58.5818 244.542 59.4383 245.259 60.675C245.217 60.3723 245.175 59.9145 245.132 59.298C245.09 58.6261 245.068 58.076 245.068 57.6515V48.7839H250.568ZM245.489 66.3419C245.489 65.0128 245.164 63.9754 244.51 63.226C243.813 62.4692 242.894 62.089 241.744 62.089C240.588 62.089 239.676 62.4692 239.011 63.226C238.346 63.9865 238.013 65.0239 238.013 66.3419C238.013 67.6709 238.346 68.7156 239.011 69.4725C239.665 70.2219 240.574 70.5947 241.744 70.5947C242.901 70.5947 243.824 70.2219 244.51 69.4725C245.16 68.723 245.489 67.6783 245.489 66.3419Z" fill="#FDE7EF"/>
<path d="M266.883 56.95H269.805V63.2776H275.682V66.2384H269.805V72.5918H266.883V66.2347H260.981V63.2739H266.883V56.95Z" fill="#FDE7EF" stroke="#FDE7EF" stroke-width="2.24924" stroke-miterlimit="10"/>
</g>
<defs>
<linearGradient id="paint0_linear_305_585" x1="214" y1="324" x2="214.23" y2="513" gradientUnits="userSpaceOnUse">
<stop stop-color="#FDE7EF"/>
<stop stop-color="#FDE7EF" stop-opacity="0"/>
<stop offset="1" stop-color="#FDE7EF"/>
</linearGradient>
<clipPath id="clip0_305_585">
<rect width="126.336" height="26.6581" fill="white" transform="translate(150.053 48.7842)"/>
</clipPath>
</defs>
</svg>
