<svg width="375" height="292" viewBox="0 0 375 292" fill="none" xmlns="http://www.w3.org/2000/svg">
<g clip-path="url(#clip0_206_336)">
<rect width="375" height="292" fill="#FDE7EF"/>
<g clip-path="url(#clip1_206_336)">
<path d="M251.567 271.39L121.983 270.035C121.983 270.035 105.021 277.818 109.091 284.924C113.613 292.818 150.774 304.89 184.4 304.89C230.002 304.89 254.959 296.091 259.369 285.94C261.587 280.833 251.567 271.39 251.567 271.39Z" fill="#3D1F42"/>
<path d="M380.405 118.097L356.918 52.3218L295.888 44.3249L281.576 8.12901L213.977 16.8659L217.369 -14.1128H380.405C380.405 -14.1128 380.405 118.653 380.405 118.097Z" fill="#3D1F42"/>
<path d="M188.069 256.46C244.12 256.46 289.559 211.13 289.559 155.214C289.559 99.2969 244.12 53.9675 188.069 53.9675C132.017 53.9675 86.5783 99.2969 86.5783 155.214C86.5783 211.13 132.017 256.46 188.069 256.46Z" fill="#FF6868"/>
<path d="M290.035 162.338C290.035 162.338 289.024 161.955 288.61 162.003C287.16 162.176 288.234 163.899 288.234 163.899C288.234 163.899 287.876 163.763 287.636 163.796C286.699 163.921 286.499 165.836 286.499 165.836C286.499 165.836 283.026 164.566 283.233 166.55C283.362 167.802 287.016 169.175 287.016 169.175C287.016 169.175 287.514 170.228 287.677 171.127C287.677 171.127 288.094 173.73 287.536 174.418C286.916 175.191 283.274 176.303 283.274 176.303C283.03 175.394 282.853 174.414 282.971 173.741C283.226 172.305 284.698 167.334 282.399 166.237C280.535 165.346 279.649 172.493 279.059 173.796C278.243 175.604 275.04 178.895 274.504 181.951C273.667 186.737 274.962 188.155 274.962 188.155L270.57 192.566L268.655 191.229C268.655 191.229 259.716 202.197 249.821 211.185L248.422 209.97C248.869 210.408 249.316 210.831 249.766 211.236C249.762 211.24 249.755 211.247 249.751 211.251L248.426 209.97C237.479 199.208 227.64 178.866 218.447 172.629C211.652 168.015 198.078 166.388 197.376 166.311L196.664 160.302C198.82 157.983 202.038 151.201 202.038 151.201C202.038 151.201 206.74 151.768 207.592 144.198C208.345 144.367 185.537 121.507 185.537 121.507L169.515 142.276C170.309 152.331 174.332 150.917 174.332 150.917C175.446 154.658 177.484 158.012 179.757 160.39L179.178 166.355C177.384 166.554 174.948 167.021 173.21 167.356H173.162C167.666 168.424 162.555 170.195 158.55 173.023C149.475 179.429 139.828 199.208 128.881 209.97L127.556 211.251C127.556 211.251 127.545 211.24 127.541 211.236C127.992 210.831 128.438 210.408 128.885 209.97L127.486 211.185C117.591 202.197 108.652 191.229 108.652 191.229L106.523 192.485L102.279 188.206C102.279 188.206 103.271 185.821 102.803 181.947C102.43 178.866 99.0639 175.6 98.2483 173.792C97.6615 172.489 96.7757 165.342 94.9119 166.233C92.6089 167.331 94.0852 172.305 94.3398 173.737C94.624 175.342 94.0667 176.314 94.0667 176.314L89.2725 174.429L89.6342 171.123C89.7966 170.225 90.007 169.426 90.1952 168.844C90.3354 168.413 93.9486 167.798 94.0778 166.546C94.2808 164.562 90.8115 165.832 90.8115 165.832C90.8115 165.832 90.6122 163.918 89.6748 163.792C89.4312 163.759 89.0769 163.895 89.0769 163.895C89.0769 163.895 90.1509 162.172 88.7005 161.999C88.2871 161.951 87.5194 162.397 87.5194 162.397C83.301 162.46 82.3266 171.289 82.6514 174.68C82.9098 177.378 83.3047 181.634 89.0695 188.295C91.3209 190.894 96.3919 199.985 96.8052 200.725L94.5207 202.554C94.5207 202.554 116.082 236.538 127.781 235.809C136.779 235.249 152.07 219.837 156.391 215.253L156.823 234.122L154.469 245.017C154.469 245.017 116.414 223.209 109.25 246.247C105.268 259.052 122.278 271.338 140.592 280.513C140.592 280.513 139.462 286.168 145.714 290.049C152.044 293.977 164.965 294.235 173.147 293.944C178.122 295.653 181.263 296.588 181.263 296.588L183.503 293.02C186.983 292.479 189.545 291.849 190.316 291.651L192.154 295.771L203.152 292.398C210.862 292.659 223.924 292.508 231.202 289.279C234.988 287.601 237.007 282.803 235.254 280.226C254.158 271.46 271.353 259.722 267.699 246.975C262.178 227.72 237.251 238.261 222.669 243.942L221.373 230.514L220.857 215.106C225.094 219.609 240.498 235.249 249.544 235.812C261.244 236.541 282.805 202.558 282.805 202.558L280.52 200.728C280.934 199.988 286.005 190.898 288.256 188.299C294.021 181.638 294.416 177.378 294.674 174.683C294.999 171.292 295.346 163.899 290.05 162.338H290.035Z" fill="white"/>
<path d="M126.098 235.687C126.954 235.739 127.814 235.735 128.678 235.702C137.761 234.24 152.202 219.682 156.38 215.249L156.812 225.665L154.457 245.013C154.457 245.013 161.108 249.152 164.264 249.928C167.622 250.757 178.417 253.349 181.872 253.562C185.208 253.769 191.538 254.232 194.826 253.562C198.273 252.859 212.139 247.528 215.546 246.688C220.336 245.51 223.721 243.518 222.65 243.934L221.355 230.507L220.838 215.098C225.075 219.601 240.48 235.242 249.526 235.805C261.225 236.534 282.786 202.551 282.786 202.551L268.655 191.233C268.655 191.233 259.716 202.201 249.821 211.188L248.422 209.973C248.869 210.412 249.315 210.835 249.766 211.24C249.762 211.244 249.755 211.251 249.751 211.255L248.426 209.973C237.479 199.211 227.64 178.869 218.447 172.632C214.033 169.635 207.098 167.876 202.588 166.988C202.285 176.123 188.681 183.737 188.681 183.737C188.681 183.737 175.299 176.59 174.457 167.235C174.454 167.176 173.697 167.268 173.21 167.36H173.162C167.666 168.428 162.555 170.199 158.55 173.026C149.475 179.433 139.828 199.211 128.881 209.973L127.556 211.255C127.556 211.255 127.545 211.244 127.541 211.24C127.991 210.835 128.438 210.412 128.885 209.973L127.486 211.188C117.591 202.201 108.652 191.233 108.652 191.233L94.5206 202.551C94.5206 202.551 114.144 233.478 126.109 235.683L126.098 235.687Z" fill="#3D1F42"/>
<path d="M188.264 164.481C188.242 164.481 188.22 164.481 188.194 164.481C180.045 164.426 173.649 155.556 172.28 142.416L173.014 142.339C174.343 155.089 180.444 163.689 188.198 163.741C188.22 163.741 188.242 163.741 188.264 163.741C195.505 163.741 201.665 155.416 203.603 142.994L204.333 143.108C202.337 155.902 195.885 164.477 188.264 164.477V164.481Z" fill="#3D1F42"/>
<path d="M177.155 122.715C176.945 126.687 177.735 132.567 184.529 137.033C186.109 138.071 191.512 140.685 194.121 140.741C194.184 140.741 194.088 137.515 194.088 137.515C194.088 137.515 196.815 140.137 199.019 141.4C202.366 143.318 210.039 144.452 210.039 144.452C210.039 144.452 210.914 133.399 209.057 127.151C204.381 111.404 187.84 110.296 181.817 114.909C180.071 116.246 177.369 118.665 177.155 122.715Z" fill="#3D1F42"/>
<path d="M127.357 236.048C115.506 236.048 95.03 203.991 94.1553 202.614C94.0556 202.455 94.0888 202.245 94.2365 202.131L108.368 190.813C108.527 190.688 108.756 190.71 108.885 190.869C108.973 190.979 117.964 201.973 127.755 210.853L127.257 211.398C118.303 203.28 110.022 193.402 108.545 191.616L94.9561 202.499C97.0488 205.736 116.905 235.971 127.704 235.304C138.174 234.653 155.926 214.914 156.107 214.712L156.657 215.202C155.923 216.026 138.521 235.367 127.752 236.037C127.622 236.044 127.49 236.048 127.357 236.048Z" fill="#3D1F42"/>
<path d="M102.513 187.829L101.986 188.344L106.478 192.926L107.006 192.412L102.513 187.829Z" fill="#3D1F42"/>
<path d="M101.079 191.509L100.466 191.097C100.496 191.056 103.268 186.859 102.389 181.877C102.053 179.967 100.584 177.894 99.4072 176.23C98.7391 175.287 98.1634 174.473 97.8645 173.811C97.691 173.424 97.5101 172.651 97.285 171.671C96.8643 169.86 96.163 166.83 95.3142 166.425C95.2182 166.377 95.1297 166.381 95.0226 166.432C93.288 167.261 94.1036 170.994 94.4985 172.787C94.565 173.089 94.6203 173.347 94.6536 173.538C94.9488 175.213 94.1184 177.809 94.0852 177.92L93.384 177.695C93.3913 177.669 94.1922 175.162 93.9302 173.667C93.897 173.479 93.8416 173.233 93.7789 172.942C93.3138 170.81 92.4465 166.845 94.7052 165.766C95.0152 165.619 95.3363 165.615 95.6353 165.759C96.7167 166.278 97.3478 168.667 98.0047 171.506C98.2151 172.408 98.3959 173.188 98.5399 173.509C98.8093 174.105 99.3666 174.893 100.012 175.806C101.234 177.533 102.755 179.679 103.12 181.752C104.05 187.036 101.205 191.329 101.083 191.509H101.079Z" fill="#3D1F42"/>
<path d="M96.4583 200.817C96.4029 200.721 91.033 191.049 88.7374 188.398C82.9061 181.664 82.4853 177.238 82.2307 174.591C81.9723 171.903 82.4853 165.817 84.8621 163.167C85.6077 162.334 86.4823 161.904 87.4567 161.889L87.4678 162.625C86.7075 162.636 86.0173 162.982 85.412 163.656C83.2124 166.108 82.7252 172.025 82.9614 174.503C83.2235 177.242 83.6184 181.355 89.291 187.916C91.6345 190.625 96.8753 200.058 97.1004 200.46L96.4546 200.817H96.4583Z" fill="#3D1F42"/>
<path d="M95.2034 189.838L94.4911 189.643C94.4985 189.613 95.2809 186.682 94.0076 183.236C93.6792 182.342 92.6199 181.02 91.5976 179.739C90.5089 178.373 89.4792 177.084 89.243 176.219C88.5971 173.826 89.1359 170.619 89.7929 168.594C90.3945 166.749 90.5015 165.041 90.066 164.345C89.9442 164.15 89.7892 164.047 89.5751 164.021C88.5048 163.877 87.0138 168.292 86.2683 172.467L85.5412 172.338C85.8217 170.773 87.3275 162.983 89.6748 163.292C90.1029 163.351 90.4572 163.579 90.6934 163.955C91.3688 165.026 91.0366 167.173 90.4978 168.822C89.8704 170.748 89.3537 173.792 89.959 176.027C90.1546 176.745 91.1806 178.034 92.177 179.278C93.2363 180.604 94.3324 181.977 94.7015 182.982C96.0597 186.664 95.2366 189.713 95.2034 189.841V189.838Z" fill="#3D1F42"/>
<path d="M90.3723 169.382L90.1103 168.693C91.5386 168.155 93.5869 167.08 93.657 166.373C93.6939 166.027 93.5832 165.899 93.4983 165.832C93.0481 165.482 91.6973 165.744 90.8853 166.042L90.6307 165.35C90.8706 165.262 93.0001 164.514 93.9523 165.251C94.1922 165.435 94.4616 165.792 94.3952 166.447C94.2512 167.854 91.0219 169.139 90.3723 169.382Z" fill="#3D1F42"/>
<path d="M84.6998 170.206L83.9764 170.063C84.1609 169.15 85.8549 161.156 88.6931 161.495C89.2947 161.565 89.5567 161.867 89.6711 162.103C90.018 162.828 89.4128 163.837 89.3426 163.951L88.7152 163.564C88.9071 163.255 89.1323 162.681 89.0068 162.423C88.9551 162.32 88.8223 162.254 88.6082 162.228C86.9732 162.036 85.3456 167.018 84.7034 170.21L84.6998 170.206Z" fill="#3D1F42"/>
<path d="M93.849 176.554C93.192 176.554 91.0403 176.37 89.1101 174.157L89.6674 173.675C91.6899 175.99 93.9597 175.817 93.9855 175.814L94.0519 176.546C94.0519 176.546 93.9671 176.554 93.8526 176.554H93.849Z" fill="#3D1F42"/>
<path d="M125.268 213.423L124.825 212.834C131.287 207.996 137.259 199.37 143.031 191.023C148.353 183.325 153.383 176.057 158.292 172.588C164.3 168.347 172.966 166.664 179.181 165.998L179.259 166.731C170.475 167.673 163.37 169.904 158.716 173.192C153.915 176.583 148.921 183.8 143.636 191.443C137.831 199.838 131.826 208.516 125.268 213.423Z" fill="#3D1F42"/>
<path d="M179.311 168.225L178.591 168.067C179.421 164.279 179.429 160.221 179.429 160.181H180.167C180.167 160.221 180.156 164.36 179.311 168.225Z" fill="#3D1F42"/>
<path d="M197.188 167.765C196.343 162.92 196.635 159.831 196.649 159.698L197.384 159.772C197.384 159.801 197.089 162.901 197.915 167.636L197.188 167.761V167.765Z" fill="#3D1F42"/>
<path d="M185.614 130.1C185.038 134.99 181.001 139.065 177.052 141.205C174.893 142.375 166.851 145.104 166.851 145.104C166.851 145.104 164.253 132.961 168.486 123.639C173.232 113.193 183.212 114.581 183.212 114.581C183.212 114.581 186.212 125.049 185.618 130.1H185.614Z" fill="#3D1F42"/>
<path d="M202.569 151.499C202.381 151.499 202.185 151.488 201.99 151.466L202.075 150.733C203.13 150.854 204.06 150.586 204.839 149.934C207.234 147.924 207.544 142.975 207.548 142.924L208.286 142.964C208.275 143.182 207.954 148.281 205.315 150.497C204.522 151.164 203.599 151.499 202.569 151.499Z" fill="#3D1F42"/>
<path d="M187.858 153.977C186.921 153.977 185.943 153.785 185.699 153.038C185.478 152.357 185.566 151.249 185.666 149.967C185.832 147.85 186.039 145.221 184.872 143.848C182.843 141.455 176.583 143.296 176.52 143.314L176.306 142.611C176.583 142.526 183.09 140.612 185.433 143.373C186.792 144.975 186.574 147.777 186.397 150.026C186.308 151.182 186.22 152.272 186.397 152.813C186.57 153.347 188.32 153.307 189.512 153.071L189.656 153.793C189.39 153.844 188.637 153.98 187.851 153.98L187.858 153.977Z" fill="#3D1F42"/>
<path d="M199.082 144.168C195.188 141.805 191.556 143.815 191.519 143.837L191.154 143.196C191.316 143.104 195.206 140.954 199.465 143.539L199.082 144.168Z" fill="#3D1F42"/>
<path d="M174.203 151.466C169.209 151.285 168.984 142.236 168.977 141.849L169.715 141.834C169.715 141.923 169.933 150.571 174.232 150.729L174.206 151.466H174.203Z" fill="#3D1F42"/>
<path d="M180.946 145.939C179.174 145.939 177.576 145.486 177.48 145.457L177.687 144.75C177.72 144.761 181.005 145.689 183.189 144.849L183.455 145.538C182.676 145.836 181.794 145.939 180.949 145.939H180.946Z" fill="#3D1F42"/>
<path d="M195.38 146.477C193.608 146.477 192.01 146.024 191.911 145.994L192.117 145.288C192.15 145.299 195.435 146.226 197.62 145.387L197.886 146.075C197.107 146.374 196.225 146.477 195.38 146.477Z" fill="#3D1F42"/>
<path d="M188.275 158.108C186.363 158.108 184.998 157.276 184.913 157.224L185.304 156.598C185.415 156.668 188.043 158.251 191.032 156.675L191.375 157.327C190.268 157.909 189.205 158.108 188.272 158.108H188.275Z" fill="#3D1F42"/>
<path d="M188.677 187.842C188.626 187.842 188.574 187.831 188.526 187.809C188.371 187.739 173.04 180.684 171.715 167.592L172.45 167.518C173.656 179.469 187.031 186.273 188.666 187.061C190.349 186.148 204.684 178.063 204.603 167.629L205.341 167.621C205.433 179.101 189.526 187.448 188.847 187.798C188.796 187.823 188.737 187.838 188.677 187.838V187.842Z" fill="white"/>
<path d="M235.265 280.289L203.998 292.321C211.707 292.582 224.012 292.457 231.29 289.228C235.195 287.498 237.317 282.8 235.261 280.289H235.265Z" fill="#F74847"/>
<path d="M207.397 292.891C205.692 292.891 204.293 292.858 203.366 292.825L203.392 292.089C207.792 292.24 222.783 292.446 230.999 288.801C233.088 287.873 234.782 285.841 235.313 283.624C235.653 282.203 235.45 280.948 234.741 280.082L235.313 279.618C236.169 280.668 236.428 282.151 236.033 283.797C235.453 286.231 233.593 288.462 231.301 289.478C224.691 292.409 213.848 292.895 207.404 292.895L207.397 292.891Z" fill="#3D1F42"/>
<path d="M140.374 280.701C129.796 275.403 121.706 270.083 116.329 264.888C109.593 258.385 107.076 252.031 108.841 246C110.258 241.166 113.148 237.922 117.429 236.365C124.559 233.769 135.377 235.746 149.575 242.244C160.112 247.068 168.681 252.719 168.766 252.774L168.357 253.389C168.017 253.165 134.277 231.011 117.68 237.057C113.631 238.533 110.893 241.611 109.549 246.21C107.866 251.957 110.321 258.061 116.842 264.361C122.168 269.501 130.195 274.777 140.706 280.046L140.374 280.705V280.701Z" fill="#3D1F42"/>
<path d="M201.041 149.433C201.041 150.369 200.263 151.127 199.307 151.127C198.351 151.127 197.572 150.369 197.572 149.433C197.572 148.498 198.351 147.74 199.307 147.74C200.263 147.74 201.041 148.498 201.041 149.433Z" fill="#FF6868"/>
<path d="M179.167 150.044C178.938 150.954 178 151.502 177.07 151.27C176.14 151.039 175.572 150.114 175.797 149.205C176.022 148.296 176.963 147.747 177.893 147.979C178.823 148.211 179.392 149.135 179.167 150.044Z" fill="#FF6868"/>
<path d="M251.947 213.423C245.385 208.516 239.384 199.834 233.578 191.443C228.293 183.8 223.3 176.583 218.498 173.192C212.265 168.789 202.617 167.198 197.424 166.642L197.502 165.91C202.769 166.473 212.553 168.093 218.923 172.588C223.831 176.053 228.862 183.325 234.184 191.023C239.956 199.37 245.924 207.996 252.39 212.834L251.947 213.423Z" fill="#3D1F42"/>
<path d="M249.858 236.048C249.725 236.048 249.592 236.044 249.463 236.037C238.694 235.367 221.292 216.023 220.558 215.202L221.108 214.712C221.285 214.911 239.041 234.649 249.511 235.304C260.306 235.974 280.17 205.736 282.259 202.499L268.669 191.616C267.19 193.402 258.908 203.28 249.958 211.398L249.459 210.853C259.251 201.973 268.241 190.979 268.33 190.869C268.459 190.71 268.688 190.688 268.847 190.813L282.978 202.131C283.126 202.249 283.159 202.455 283.059 202.614C282.185 203.994 261.709 236.048 249.858 236.048Z" fill="#3D1F42"/>
<path d="M274.702 187.844L270.209 192.426L270.737 192.941L275.23 188.359L274.702 187.844Z" fill="#3D1F42"/>
<path d="M276.139 191.509C276.018 191.329 273.172 187.032 274.102 181.752C274.468 179.679 275.988 177.533 277.21 175.806C277.856 174.893 278.413 174.105 278.682 173.509C278.826 173.188 279.007 172.408 279.218 171.506C279.874 168.671 280.506 166.278 281.587 165.759C281.886 165.615 282.211 165.619 282.517 165.766C284.776 166.845 283.912 170.81 283.443 172.942C283.381 173.233 283.325 173.479 283.292 173.667C283.026 175.166 283.827 177.669 283.838 177.695L283.137 177.92C283.1 177.809 282.27 175.213 282.569 173.538C282.602 173.343 282.657 173.089 282.724 172.787C283.115 170.994 283.931 167.261 282.2 166.432C282.093 166.381 282.004 166.377 281.908 166.425C281.059 166.834 280.358 169.864 279.937 171.675C279.712 172.655 279.531 173.428 279.358 173.814C279.059 174.477 278.483 175.291 277.815 176.233C276.634 177.897 275.169 179.97 274.833 181.881C273.955 186.863 276.73 191.06 276.756 191.1L276.143 191.513L276.139 191.509Z" fill="#3D1F42"/>
<path d="M280.756 200.817L280.111 200.46C280.332 200.058 285.573 190.626 287.92 187.916C293.596 181.358 293.991 177.242 294.25 174.521C294.619 170.678 294.508 164.043 289.647 162.611L289.858 161.904C295.224 163.483 295.375 170.519 294.988 174.573C294.733 177.235 294.309 181.66 288.481 188.394C286.185 191.045 280.816 200.717 280.76 200.813L280.756 200.817Z" fill="#3D1F42"/>
<path d="M282.011 189.838C281.974 189.709 281.155 186.66 282.513 182.978C282.886 181.973 283.978 180.604 285.038 179.275C286.034 178.03 287.06 176.742 287.256 176.024C287.861 173.789 287.344 170.748 286.717 168.818C286.178 167.169 285.846 165.022 286.521 163.951C286.758 163.575 287.112 163.343 287.54 163.288C289.873 162.972 291.393 170.77 291.674 172.334L290.947 172.463C290.201 168.288 288.725 163.859 287.64 164.017C287.426 164.047 287.271 164.15 287.149 164.341C286.71 165.037 286.82 166.742 287.422 168.59C288.079 170.611 288.618 173.822 287.972 176.215C287.739 177.08 286.71 178.369 285.617 179.735C284.595 181.016 283.536 182.338 283.207 183.233C281.93 186.693 282.716 189.609 282.724 189.639L282.011 189.838Z" fill="#3D1F42"/>
<path d="M286.842 169.382C286.197 169.139 282.967 167.854 282.82 166.447C282.753 165.792 283.023 165.435 283.262 165.251C284.215 164.514 286.344 165.262 286.584 165.35L286.329 166.042C285.514 165.744 284.167 165.482 283.716 165.832C283.632 165.899 283.521 166.027 283.558 166.373C283.632 167.08 285.676 168.155 287.104 168.693L286.842 169.382Z" fill="#3D1F42"/>
<path d="M292.515 170.206C291.873 167.018 290.249 162.033 288.61 162.224C288.396 162.25 288.26 162.316 288.212 162.419C288.086 162.677 288.311 163.251 288.503 163.561L287.876 163.947C287.806 163.833 287.197 162.821 287.547 162.099C287.662 161.86 287.924 161.561 288.525 161.491C291.378 161.149 293.058 169.146 293.242 170.059L292.519 170.203L292.515 170.206Z" fill="#3D1F42"/>
<path d="M283.366 176.554C283.251 176.554 283.181 176.55 283.167 176.546L283.233 175.814C283.325 175.821 285.543 175.976 287.551 173.675L288.108 174.157C286.178 176.37 284.026 176.554 283.369 176.554H283.366Z" fill="#3D1F42"/>
<path d="M189.102 254.251C181.525 254.251 177.214 253.227 171.416 251.854C169.109 251.305 166.496 250.687 163.352 250.061L163.496 249.339C166.651 249.969 169.272 250.591 171.586 251.14C177.816 252.616 182.315 253.684 191.069 253.496C196.694 253.375 201.215 251.578 206.005 249.678C209.862 248.146 213.852 246.563 218.945 245.521L219.092 246.243C214.062 247.274 210.106 248.842 206.278 250.363C201.425 252.288 196.841 254.107 191.084 254.232C190.397 254.247 189.737 254.254 189.102 254.254V254.251Z" fill="#3D1F42"/>
<path d="M290.404 155.118H289.666C289.666 99.5228 244.329 54.2954 188.6 54.2954C132.871 54.2954 87.5342 99.5228 87.5342 155.118H86.796C86.796 127.991 97.3846 102.487 116.613 83.3044C135.842 64.1222 161.407 53.5591 188.6 53.5591C215.793 53.5591 241.358 64.1222 260.587 83.3044C279.815 102.487 290.404 127.991 290.404 155.118Z" fill="#3D1F42"/>
<path d="M154.723 244.498L154.022 244.262C154.063 244.137 158.207 231.508 155.546 213.442C154.675 207.536 156.225 200.89 157.355 196.034C157.661 194.716 157.927 193.575 158.115 192.592L158.838 192.728C158.646 193.729 158.381 194.874 158.071 196.2C156.952 200.997 155.421 207.565 156.273 213.331C158.964 231.582 154.76 244.365 154.719 244.494L154.723 244.498Z" fill="white"/>
<path d="M222.278 243.765C222.263 243.673 220.727 234.395 220.462 220.963C220.41 218.298 220.576 215.923 220.735 213.626C221.133 207.911 221.51 202.514 218.875 192.757L219.587 192.566C222.255 202.444 221.857 208.154 221.473 213.677C221.314 215.96 221.148 218.316 221.204 220.949C221.466 234.328 222.994 243.551 223.008 243.643L222.281 243.765H222.278Z" fill="white"/>
<path d="M231.39 235.602C229.401 223.401 218.498 215.651 206.385 215.721C205.086 215.728 204.134 216.777 204.141 218.099C204.149 219.425 205.175 220.33 206.522 220.433C215.804 221.155 223.433 226.538 224.754 236.435C225.872 244.811 219.292 254.958 212.195 259.38C216.668 257.701 221.229 255.878 225.832 254.203C229.95 248.555 232.571 242.808 231.393 235.602H231.39Z" fill="white"/>
<path d="M212.32 259.722L211.995 259.067C218.864 254.788 225.481 244.693 224.385 236.482C223.178 227.44 216.487 221.579 206.492 220.802C204.898 220.676 203.78 219.568 203.772 218.103C203.765 216.568 204.913 215.36 206.385 215.353C212.475 215.316 218.328 217.241 222.912 220.768C227.725 224.472 230.785 229.583 231.759 235.544C233.069 243.577 229.648 249.593 226.131 254.42L226.064 254.512L225.957 254.549C223.211 255.547 220.447 256.611 217.775 257.642C215.981 258.334 214.128 259.045 212.324 259.722H212.32ZM206.544 216.085C206.492 216.085 206.437 216.085 206.385 216.085C205.308 216.093 204.499 216.954 204.507 218.095C204.514 219.182 205.334 219.973 206.544 220.065C216.76 220.857 223.876 227.112 225.112 236.383C226.153 244.177 220.842 253.069 214.708 258.025C215.645 257.668 216.583 257.307 217.502 256.95C220.144 255.93 222.875 254.88 225.592 253.89C230.401 247.266 232.025 241.806 231.024 235.658C229.172 224.292 218.889 216.082 206.544 216.082V216.085Z" fill="#3D1F42"/>
<path d="M154.904 245.823C153.981 243.647 152.605 241.379 151.49 239.262C151.512 237.197 152.184 236.42 151.94 234.008C151.697 231.597 149.213 225.194 152.343 223.272C154.664 221.847 158.569 225.938 160.333 227.193C164.127 226.601 166.323 227.101 170.759 227.425C170.995 227.444 178.207 222.348 180.001 224.439C181.311 225.967 180.373 230.062 179.244 232.145C184.19 230.404 181.019 232.569 187.622 229.94C194.225 227.308 208.009 222.043 216.502 229.741C224.042 236.575 225.082 245.993 219.203 255.227C215.011 261.81 200.425 267.528 193.498 270.856C184.437 275.208 165.227 261.99 158.148 258.544C148.881 254.034 154.509 248.235 154.908 245.827L154.904 245.823Z" fill="white"/>
<path d="M214.021 233.136C213.984 233.136 213.948 233.121 213.922 233.092C213.896 233.07 213.885 233.033 213.885 232.996C213.885 232.959 213.896 232.926 213.925 232.9C213.97 232.849 214.066 232.849 214.121 232.9C214.147 232.926 214.162 232.959 214.162 232.996C214.162 233.033 214.147 233.066 214.121 233.095C214.092 233.121 214.058 233.136 214.021 233.136Z" fill="#1D1D1B"/>
<path d="M214.922 233.618C214.881 233.618 214.848 233.603 214.822 233.574C214.796 233.552 214.782 233.519 214.782 233.482C214.782 233.441 214.796 233.408 214.826 233.383C214.867 233.335 214.966 233.331 215.018 233.383C215.047 233.408 215.058 233.445 215.058 233.482C215.058 233.515 215.044 233.552 215.018 233.578C214.992 233.603 214.959 233.618 214.922 233.618Z" fill="#1D1D1B"/>
<path d="M215.682 232.031C215.645 232.031 215.608 232.013 215.583 231.987C215.56 231.965 215.546 231.928 215.546 231.891C215.546 231.855 215.56 231.821 215.586 231.796C215.631 231.744 215.727 231.74 215.782 231.796C215.804 231.821 215.819 231.855 215.819 231.891C215.819 231.928 215.808 231.965 215.782 231.991C215.756 232.017 215.719 232.031 215.682 232.031Z" fill="#1D1D1B"/>
<path d="M217.897 231.479C217.86 231.479 217.823 231.464 217.797 231.438C217.775 231.413 217.76 231.379 217.76 231.339C217.76 231.302 217.775 231.265 217.801 231.24C217.849 231.192 217.941 231.192 217.996 231.24C218.018 231.262 218.037 231.298 218.037 231.335C218.037 231.372 218.018 231.409 217.993 231.435C217.97 231.46 217.934 231.475 217.897 231.475V231.479Z" fill="#1D1D1B"/>
<path d="M214.021 231.479C213.984 231.479 213.948 231.464 213.922 231.435C213.896 231.413 213.885 231.376 213.885 231.339C213.885 231.302 213.9 231.265 213.925 231.24C213.97 231.195 214.066 231.188 214.121 231.24C214.143 231.262 214.162 231.298 214.162 231.335C214.162 231.372 214.147 231.409 214.121 231.435C214.095 231.46 214.058 231.475 214.021 231.475V231.479Z" fill="#1D1D1B"/>
<path d="M216.926 233.206C216.893 233.206 216.856 233.191 216.83 233.165C216.804 233.139 216.789 233.103 216.789 233.066C216.789 233.029 216.804 232.996 216.83 232.97C216.882 232.915 216.974 232.918 217.026 232.97C217.051 232.999 217.066 233.033 217.066 233.069C217.066 233.106 217.051 233.143 217.026 233.169C217 233.195 216.963 233.209 216.926 233.209V233.206Z" fill="#1D1D1B"/>
<path d="M215.752 230.235C215.715 230.235 215.679 230.22 215.653 230.194C215.631 230.172 215.612 230.135 215.612 230.098C215.612 230.062 215.627 230.025 215.656 229.999C215.701 229.951 215.797 229.947 215.848 229.999C215.874 230.021 215.889 230.058 215.889 230.098C215.889 230.135 215.874 230.172 215.848 230.198C215.822 230.22 215.789 230.235 215.752 230.235Z" fill="#1D1D1B"/>
<path d="M211.877 227.197C211.84 227.197 211.803 227.182 211.777 227.157C211.752 227.131 211.741 227.098 211.741 227.061C211.741 227.024 211.755 226.987 211.777 226.961C211.825 226.913 211.921 226.91 211.973 226.961C211.999 226.987 212.014 227.024 212.014 227.061C212.014 227.094 211.999 227.131 211.973 227.157C211.947 227.182 211.914 227.197 211.877 227.197Z" fill="#1D1D1B"/>
<path d="M212.844 228.025C212.807 228.025 212.77 228.011 212.744 227.985C212.722 227.959 212.708 227.922 212.708 227.889C212.708 227.852 212.722 227.816 212.748 227.79C212.796 227.742 212.892 227.738 212.944 227.79C212.97 227.816 212.984 227.852 212.984 227.889C212.984 227.926 212.97 227.959 212.944 227.985C212.918 228.011 212.881 228.025 212.844 228.025Z" fill="#1D1D1B"/>
<path d="M212.567 229.34C212.53 229.34 212.493 229.321 212.468 229.296C212.446 229.27 212.431 229.237 212.431 229.2C212.431 229.163 212.446 229.13 212.471 229.104C212.516 229.053 212.615 229.049 212.667 229.104C212.693 229.13 212.708 229.163 212.708 229.2C212.708 229.237 212.693 229.27 212.667 229.299C212.641 229.325 212.604 229.34 212.567 229.34Z" fill="#1D1D1B"/>
<path d="M210.493 228.232C210.456 228.232 210.419 228.217 210.393 228.191C210.368 228.165 210.353 228.132 210.353 228.095C210.353 228.059 210.371 228.022 210.397 227.996C210.441 227.948 210.537 227.944 210.589 227.996C210.615 228.018 210.63 228.055 210.63 228.092C210.63 228.129 210.619 228.162 210.589 228.191C210.563 228.213 210.53 228.228 210.493 228.228V228.232Z" fill="#1D1D1B"/>
<path d="M209.729 259.368C209.692 259.368 209.655 259.354 209.633 259.324C209.607 259.302 209.593 259.265 209.593 259.229C209.593 259.192 209.607 259.155 209.633 259.129C209.681 259.081 209.777 259.081 209.829 259.129C209.855 259.151 209.869 259.188 209.869 259.225C209.869 259.262 209.855 259.299 209.829 259.324C209.803 259.35 209.77 259.365 209.729 259.365V259.368Z" fill="#1D1D1B"/>
<path d="M212.22 258.4C212.187 258.4 212.15 258.386 212.124 258.36C212.099 258.334 212.084 258.301 212.084 258.264C212.084 258.224 212.099 258.19 212.124 258.165C212.176 258.113 212.268 258.113 212.32 258.165C212.346 258.19 212.361 258.227 212.361 258.264C212.361 258.301 212.346 258.334 212.32 258.36C212.294 258.386 212.257 258.4 212.22 258.4Z" fill="#1D1D1B"/>
<path d="M214.021 257.988C213.985 257.988 213.948 257.973 213.922 257.944C213.896 257.922 213.885 257.885 213.885 257.848C213.885 257.811 213.9 257.774 213.926 257.749C213.97 257.704 214.066 257.697 214.121 257.749C214.143 257.771 214.162 257.808 214.162 257.844C214.162 257.881 214.147 257.918 214.121 257.944C214.095 257.97 214.058 257.984 214.021 257.984V257.988Z" fill="#1D1D1B"/>
<path d="M210.56 257.988C210.523 257.988 210.489 257.973 210.464 257.944C210.438 257.922 210.423 257.885 210.423 257.848C210.423 257.811 210.438 257.778 210.464 257.752C210.512 257.701 210.608 257.697 210.659 257.752C210.685 257.778 210.7 257.811 210.7 257.848C210.7 257.885 210.685 257.922 210.659 257.947C210.633 257.973 210.596 257.988 210.56 257.988Z" fill="#1D1D1B"/>
<path d="M215.752 256.743C215.715 256.743 215.679 256.729 215.653 256.703C215.631 256.681 215.612 256.644 215.612 256.607C215.612 256.57 215.627 256.534 215.656 256.508C215.701 256.46 215.797 256.456 215.848 256.508C215.874 256.53 215.889 256.567 215.889 256.607C215.889 256.644 215.874 256.681 215.848 256.707C215.822 256.729 215.789 256.743 215.752 256.743Z" fill="#1D1D1B"/>
<path d="M212.844 254.534C212.807 254.534 212.77 254.52 212.744 254.494C212.722 254.468 212.708 254.431 212.708 254.398C212.708 254.361 212.722 254.325 212.748 254.299C212.796 254.251 212.892 254.247 212.944 254.299C212.97 254.325 212.984 254.361 212.984 254.398C212.984 254.435 212.97 254.468 212.944 254.494C212.918 254.52 212.881 254.534 212.844 254.534Z" fill="#1D1D1B"/>
<path d="M212.567 255.849C212.53 255.849 212.493 255.83 212.468 255.805C212.446 255.779 212.431 255.746 212.431 255.709C212.431 255.672 212.446 255.639 212.471 255.613C212.516 255.562 212.615 255.558 212.667 255.613C212.693 255.639 212.708 255.672 212.708 255.709C212.708 255.746 212.693 255.779 212.667 255.808C212.641 255.834 212.604 255.849 212.567 255.849Z" fill="#1D1D1B"/>
<path d="M216.096 252.119C216.062 252.119 216.025 252.104 216 252.079C215.974 252.053 215.959 252.02 215.959 251.979C215.959 251.942 215.974 251.909 216 251.883C216.055 251.832 216.144 251.832 216.195 251.883C216.221 251.909 216.236 251.946 216.236 251.979C216.236 252.016 216.221 252.053 216.195 252.079C216.169 252.104 216.133 252.119 216.096 252.119Z" fill="#1D1D1B"/>
<path d="M218.244 254.881C218.207 254.881 218.17 254.866 218.144 254.84C218.122 254.818 218.103 254.781 218.103 254.744C218.103 254.704 218.122 254.667 218.148 254.645C218.196 254.593 218.288 254.593 218.34 254.645C218.365 254.671 218.38 254.704 218.38 254.744C218.38 254.781 218.365 254.818 218.34 254.84C218.314 254.866 218.28 254.881 218.244 254.881Z" fill="#1D1D1B"/>
<path d="M215.542 253.017C215.509 253.017 215.472 253.003 215.446 252.977C215.42 252.951 215.405 252.918 215.405 252.878C215.405 252.841 215.42 252.808 215.446 252.782C215.498 252.73 215.59 252.73 215.642 252.782C215.667 252.808 215.682 252.841 215.682 252.878C215.682 252.914 215.667 252.951 215.642 252.977C215.616 253.003 215.579 253.017 215.542 253.017Z" fill="#1D1D1B"/>
<path d="M216.306 254.95C216.269 254.95 216.232 254.936 216.206 254.91C216.18 254.884 216.166 254.847 216.166 254.81C216.166 254.774 216.18 254.74 216.206 254.715C216.258 254.663 216.35 254.663 216.402 254.715C216.428 254.74 216.443 254.774 216.443 254.81C216.443 254.847 216.431 254.88 216.402 254.91C216.376 254.936 216.343 254.95 216.306 254.95Z" fill="#1D1D1B"/>
<path d="M214.575 254.258C214.538 254.258 214.505 254.243 214.479 254.218C214.453 254.196 214.438 254.159 214.438 254.122C214.438 254.085 214.45 254.048 214.475 254.023C214.531 253.971 214.623 253.971 214.675 254.023C214.701 254.048 214.715 254.085 214.715 254.122C214.715 254.159 214.697 254.196 214.671 254.218C214.649 254.243 214.612 254.258 214.575 254.258Z" fill="#1D1D1B"/>
<path d="M219.417 254.122C219.38 254.122 219.347 254.107 219.321 254.081C219.295 254.056 219.281 254.019 219.281 253.982C219.281 253.945 219.295 253.912 219.321 253.886C219.373 253.835 219.465 253.835 219.517 253.886C219.543 253.912 219.557 253.945 219.557 253.982C219.557 254.019 219.543 254.056 219.517 254.081C219.491 254.107 219.458 254.122 219.417 254.122Z" fill="#1D1D1B"/>
<path d="M220.801 251.983C220.768 251.983 220.731 251.964 220.705 251.939C220.679 251.913 220.665 251.88 220.665 251.843C220.665 251.806 220.679 251.773 220.705 251.743C220.757 251.692 220.849 251.692 220.901 251.743C220.927 251.773 220.941 251.806 220.941 251.843C220.941 251.88 220.927 251.913 220.901 251.942C220.875 251.964 220.838 251.983 220.801 251.983Z" fill="#1D1D1B"/>
<path d="M214.712 251.291C214.678 251.291 214.641 251.276 214.616 251.25C214.59 251.224 214.575 251.191 214.575 251.154C214.575 251.114 214.59 251.081 214.616 251.055C214.667 251.003 214.76 251.003 214.811 251.055C214.837 251.081 214.852 251.118 214.852 251.154C214.852 251.188 214.837 251.224 214.811 251.25C214.785 251.276 214.748 251.291 214.712 251.291Z" fill="#1D1D1B"/>
<path d="M218.103 251.497C218.066 251.497 218.033 251.482 218.007 251.456C217.982 251.431 217.967 251.397 217.967 251.361C217.967 251.32 217.982 251.287 218.007 251.261C218.055 251.213 218.151 251.21 218.203 251.261C218.229 251.287 218.244 251.324 218.244 251.361C218.244 251.394 218.229 251.431 218.203 251.456C218.177 251.482 218.14 251.497 218.103 251.497Z" fill="#1D1D1B"/>
<path d="M218.244 252.948C218.207 252.948 218.17 252.933 218.144 252.907C218.122 252.885 218.103 252.848 218.103 252.811C218.103 252.771 218.122 252.734 218.148 252.712C218.196 252.66 218.288 252.66 218.34 252.712C218.365 252.738 218.38 252.771 218.38 252.811C218.38 252.848 218.365 252.885 218.34 252.907C218.314 252.933 218.28 252.948 218.244 252.948Z" fill="#1D1D1B"/>
<path d="M216.443 234.17C216.409 234.17 216.372 234.156 216.347 234.13C216.321 234.104 216.306 234.067 216.306 234.03C216.306 233.994 216.321 233.96 216.347 233.935C216.402 233.883 216.491 233.883 216.542 233.935C216.568 233.96 216.583 233.997 216.583 234.03C216.583 234.067 216.568 234.104 216.542 234.13C216.516 234.156 216.479 234.17 216.443 234.17Z" fill="#1D1D1B"/>
<path d="M217.413 235.691C217.376 235.691 217.339 235.673 217.314 235.647C217.291 235.625 217.273 235.588 217.273 235.551C217.273 235.514 217.291 235.477 217.317 235.452C217.365 235.404 217.457 235.4 217.509 235.452C217.535 235.474 217.55 235.511 217.55 235.547C217.55 235.584 217.535 235.621 217.509 235.647C217.483 235.669 217.45 235.687 217.413 235.687V235.691Z" fill="#1D1D1B"/>
<path d="M220.181 236.449C220.144 236.449 220.107 236.435 220.082 236.409C220.056 236.379 220.041 236.346 220.041 236.309C220.041 236.276 220.056 236.239 220.082 236.214C220.137 236.158 220.229 236.162 220.281 236.214C220.303 236.239 220.318 236.273 220.318 236.309C220.318 236.346 220.303 236.383 220.277 236.409C220.255 236.431 220.218 236.449 220.181 236.449Z" fill="#1D1D1B"/>
<path d="M215.889 236.516C215.852 236.516 215.819 236.504 215.793 236.475C215.767 236.453 215.752 236.416 215.752 236.379C215.752 236.342 215.767 236.309 215.793 236.28C215.845 236.228 215.937 236.228 215.989 236.28C216.014 236.309 216.029 236.342 216.029 236.379C216.029 236.416 216.014 236.449 215.989 236.479C215.963 236.504 215.926 236.516 215.889 236.516Z" fill="#1D1D1B"/>
<path d="M217.69 237.072C217.653 237.072 217.616 237.053 217.59 237.027C217.568 237.005 217.55 236.969 217.55 236.932C217.55 236.895 217.568 236.858 217.594 236.832C217.642 236.784 217.734 236.784 217.786 236.832C217.812 236.854 217.826 236.891 217.826 236.928C217.826 236.965 217.812 237.002 217.786 237.027C217.76 237.05 217.727 237.068 217.69 237.068V237.072Z" fill="#1D1D1B"/>
<path d="M218.587 234.24C218.55 234.24 218.517 234.226 218.491 234.2C218.465 234.174 218.45 234.137 218.45 234.1C218.45 234.064 218.465 234.03 218.491 234.005C218.543 233.953 218.635 233.953 218.686 234.005C218.712 234.03 218.727 234.064 218.727 234.1C218.727 234.137 218.712 234.17 218.686 234.2C218.661 234.226 218.627 234.24 218.587 234.24Z" fill="#1D1D1B"/>
<path d="M220.388 234.999C220.351 234.999 220.314 234.984 220.288 234.958C220.262 234.932 220.251 234.899 220.251 234.862C220.251 234.822 220.262 234.789 220.288 234.763C220.344 234.711 220.432 234.711 220.487 234.763C220.513 234.789 220.524 234.822 220.524 234.862C220.524 234.899 220.51 234.932 220.487 234.958C220.462 234.984 220.425 234.999 220.388 234.999Z" fill="#1D1D1B"/>
<path d="M221.565 236.862C221.528 236.862 221.491 236.847 221.466 236.821C221.44 236.795 221.425 236.762 221.425 236.725C221.425 236.689 221.44 236.652 221.466 236.626C221.521 236.575 221.609 236.575 221.661 236.626C221.687 236.652 221.702 236.689 221.702 236.725C221.702 236.762 221.687 236.795 221.661 236.821C221.635 236.847 221.602 236.862 221.565 236.862Z" fill="#1D1D1B"/>
<path d="M216.443 247.009C216.406 247.009 216.372 246.998 216.347 246.972C216.321 246.946 216.306 246.909 216.306 246.873C216.306 246.836 216.321 246.803 216.347 246.777C216.402 246.722 216.491 246.725 216.542 246.777C216.568 246.806 216.583 246.839 216.583 246.876C216.583 246.913 216.568 246.95 216.542 246.976C216.516 247.001 216.479 247.013 216.443 247.013V247.009Z" fill="#1D1D1B"/>
<path d="M215.682 241.972C215.645 241.972 215.608 241.957 215.583 241.928C215.56 241.906 215.546 241.869 215.546 241.832C215.546 241.795 215.56 241.762 215.586 241.737C215.631 241.689 215.727 241.685 215.782 241.737C215.808 241.762 215.819 241.795 215.819 241.832C215.819 241.869 215.808 241.906 215.782 241.932C215.756 241.957 215.719 241.972 215.682 241.972Z" fill="#1D1D1B"/>
<path d="M220.041 241.626C220.004 241.626 219.971 241.611 219.945 241.585C219.919 241.563 219.904 241.526 219.904 241.486C219.904 241.449 219.919 241.412 219.945 241.39C219.993 241.339 220.089 241.339 220.141 241.39C220.166 241.416 220.181 241.449 220.181 241.486C220.181 241.526 220.166 241.56 220.137 241.585C220.115 241.611 220.078 241.626 220.041 241.626Z" fill="#1D1D1B"/>
<path d="M214.852 246.044C214.815 246.044 214.778 246.029 214.752 246C214.73 245.982 214.715 245.945 214.715 245.904C214.715 245.867 214.73 245.834 214.756 245.809C214.8 245.761 214.896 245.757 214.951 245.809C214.977 245.834 214.992 245.871 214.992 245.904C214.992 245.945 214.974 245.982 214.948 246.004C214.926 246.029 214.889 246.044 214.852 246.044Z" fill="#1D1D1B"/>
<path d="M222.255 248.323C222.218 248.323 222.185 248.308 222.159 248.283C222.134 248.257 222.119 248.22 222.119 248.183C222.119 248.146 222.134 248.113 222.159 248.087C222.211 248.036 222.303 248.036 222.355 248.087C222.381 248.113 222.396 248.146 222.396 248.183C222.396 248.22 222.381 248.257 222.355 248.283C222.329 248.308 222.292 248.323 222.255 248.323Z" fill="#1D1D1B"/>
<path d="M217.413 248.529C217.376 248.529 217.339 248.515 217.314 248.489C217.288 248.463 217.273 248.43 217.273 248.393C217.273 248.353 217.291 248.316 217.317 248.294C217.365 248.246 217.457 248.242 217.509 248.294C217.535 248.316 217.55 248.353 217.55 248.393C217.55 248.426 217.535 248.463 217.509 248.489C217.483 248.515 217.45 248.529 217.413 248.529Z" fill="#1D1D1B"/>
<path d="M219.259 249.428C219.222 249.428 219.185 249.413 219.159 249.387C219.133 249.361 219.118 249.325 219.118 249.288C219.118 249.251 219.133 249.218 219.159 249.192C219.211 249.14 219.303 249.14 219.354 249.192C219.38 249.218 219.395 249.251 219.395 249.288C219.395 249.325 219.38 249.361 219.354 249.387C219.329 249.413 219.295 249.428 219.259 249.428Z" fill="#1D1D1B"/>
<path d="M223.016 245.908C222.982 245.908 222.946 245.89 222.92 245.864C222.894 245.842 222.879 245.805 222.879 245.768C222.879 245.731 222.894 245.694 222.923 245.669C222.971 245.621 223.064 245.617 223.115 245.669C223.141 245.691 223.156 245.728 223.156 245.764C223.156 245.801 223.141 245.838 223.115 245.864C223.089 245.886 223.053 245.904 223.016 245.904V245.908Z" fill="#1D1D1B"/>
<path d="M216.096 245.146C216.062 245.146 216.025 245.131 216 245.105C215.974 245.08 215.959 245.046 215.959 245.01C215.959 244.973 215.974 244.936 216 244.91C216.055 244.859 216.144 244.859 216.195 244.91C216.221 244.936 216.236 244.973 216.236 245.01C216.236 245.046 216.221 245.08 216.195 245.105C216.169 245.131 216.136 245.146 216.096 245.146Z" fill="#1D1D1B"/>
<path d="M223.156 242.108C223.119 242.108 223.082 242.094 223.056 242.068C223.034 242.046 223.016 242.009 223.016 241.972C223.016 241.932 223.034 241.899 223.06 241.873C223.104 241.825 223.2 241.821 223.256 241.873C223.278 241.899 223.296 241.932 223.296 241.972C223.296 242.009 223.278 242.046 223.252 242.068C223.226 242.094 223.193 242.108 223.156 242.108Z" fill="#1D1D1B"/>
<path d="M217.897 241.42C217.86 241.42 217.827 241.405 217.797 241.379C217.775 241.353 217.76 241.317 217.76 241.28C217.76 241.243 217.775 241.206 217.801 241.18C217.849 241.133 217.941 241.133 217.996 241.18C218.018 241.203 218.037 241.239 218.037 241.276C218.037 241.313 218.018 241.35 217.993 241.376C217.967 241.401 217.934 241.416 217.897 241.416V241.42Z" fill="#1D1D1B"/>
<path d="M215.889 249.358C215.856 249.358 215.819 249.343 215.793 249.317C215.767 249.295 215.752 249.258 215.752 249.218C215.752 249.181 215.767 249.148 215.793 249.122C215.845 249.071 215.937 249.071 215.989 249.122C216.014 249.148 216.029 249.185 216.029 249.218C216.029 249.258 216.014 249.292 215.985 249.317C215.963 249.343 215.926 249.358 215.889 249.358Z" fill="#1D1D1B"/>
<path d="M221.148 240.452C221.115 240.452 221.078 240.437 221.052 240.411C221.026 240.389 221.012 240.352 221.012 240.315C221.012 240.275 221.026 240.242 221.052 240.216C221.104 240.164 221.196 240.164 221.248 240.216C221.274 240.242 221.288 240.279 221.288 240.315C221.288 240.352 221.274 240.389 221.244 240.411C221.222 240.437 221.185 240.452 221.148 240.452Z" fill="#1D1D1B"/>
<path d="M217.69 249.91C217.653 249.91 217.616 249.895 217.59 249.87C217.564 249.844 217.55 249.811 217.55 249.774C217.55 249.733 217.564 249.7 217.59 249.674C217.642 249.623 217.734 249.623 217.786 249.674C217.812 249.7 217.826 249.737 217.826 249.774C217.826 249.807 217.812 249.844 217.786 249.87C217.76 249.895 217.727 249.91 217.69 249.91Z" fill="#1D1D1B"/>
<path d="M221.473 242.984C221.436 242.984 221.399 242.97 221.373 242.94C221.351 242.918 221.333 242.881 221.333 242.845C221.333 242.808 221.347 242.775 221.373 242.749C221.429 242.694 221.517 242.697 221.569 242.749C221.598 242.775 221.613 242.808 221.613 242.845C221.613 242.881 221.595 242.918 221.569 242.944C221.543 242.97 221.51 242.984 221.473 242.984Z" fill="#1D1D1B"/>
<path d="M221.908 244.803C221.875 244.803 221.838 244.785 221.812 244.759C221.787 244.737 221.772 244.7 221.772 244.664C221.772 244.627 221.787 244.59 221.816 244.564C221.864 244.516 221.956 244.513 222.008 244.564C222.034 244.586 222.049 244.623 222.049 244.66C222.049 244.697 222.034 244.734 222.008 244.759C221.982 244.781 221.945 244.8 221.908 244.8V244.803Z" fill="#1D1D1B"/>
<path d="M216.926 243.147C216.893 243.147 216.856 243.132 216.83 243.106C216.804 243.08 216.789 243.044 216.789 243.007C216.789 242.97 216.804 242.933 216.83 242.907C216.882 242.856 216.974 242.856 217.026 242.907C217.051 242.933 217.066 242.97 217.066 243.007C217.066 243.044 217.051 243.08 217.026 243.106C217 243.132 216.963 243.147 216.926 243.147Z" fill="#1D1D1B"/>
<path d="M219.211 244.94C219.177 244.94 219.14 244.925 219.115 244.899C219.089 244.873 219.074 244.84 219.074 244.8C219.074 244.763 219.089 244.73 219.115 244.704C219.166 244.652 219.259 244.652 219.31 244.704C219.336 244.73 219.351 244.767 219.351 244.8C219.351 244.836 219.336 244.873 219.31 244.899C219.284 244.925 219.247 244.94 219.211 244.94Z" fill="#1D1D1B"/>
<path d="M219.834 243.699C219.797 243.699 219.764 243.684 219.735 243.658C219.709 243.629 219.698 243.596 219.698 243.559C219.698 243.522 219.709 243.485 219.735 243.46C219.786 243.408 219.879 243.408 219.934 243.46C219.956 243.485 219.971 243.522 219.971 243.559C219.971 243.596 219.956 243.633 219.93 243.658C219.904 243.684 219.871 243.699 219.834 243.699Z" fill="#1D1D1B"/>
<path d="M218.587 247.079C218.554 247.079 218.517 247.064 218.491 247.038C218.465 247.016 218.45 246.979 218.45 246.943C218.45 246.902 218.465 246.869 218.491 246.843C218.543 246.795 218.635 246.792 218.686 246.843C218.712 246.869 218.727 246.902 218.727 246.943C218.727 246.979 218.712 247.016 218.686 247.038C218.661 247.064 218.624 247.079 218.587 247.079Z" fill="#1D1D1B"/>
<path d="M220.388 247.841C220.351 247.841 220.318 247.826 220.292 247.8C220.262 247.771 220.251 247.738 220.251 247.701C220.251 247.664 220.266 247.627 220.292 247.602C220.34 247.554 220.432 247.554 220.487 247.602C220.51 247.627 220.524 247.664 220.524 247.701C220.524 247.738 220.513 247.771 220.487 247.8C220.458 247.826 220.425 247.841 220.388 247.841Z" fill="#1D1D1B"/>
<path d="M220.801 246.32C220.768 246.32 220.731 246.305 220.705 246.28C220.679 246.258 220.665 246.221 220.665 246.184C220.665 246.143 220.679 246.11 220.705 246.085C220.753 246.033 220.849 246.033 220.901 246.085C220.927 246.11 220.941 246.143 220.941 246.184C220.941 246.221 220.927 246.258 220.901 246.28C220.875 246.305 220.838 246.32 220.801 246.32Z" fill="#1D1D1B"/>
<path d="M221.565 249.704C221.528 249.704 221.491 249.689 221.466 249.663C221.443 249.638 221.425 249.601 221.425 249.564C221.425 249.527 221.443 249.49 221.469 249.465C221.517 249.417 221.609 249.417 221.661 249.465C221.687 249.487 221.702 249.524 221.702 249.56C221.702 249.597 221.687 249.634 221.661 249.66C221.635 249.686 221.602 249.7 221.565 249.7V249.704Z" fill="#1D1D1B"/>
<path d="M220.181 250.738C220.144 250.738 220.111 250.724 220.082 250.698C220.056 250.672 220.041 250.635 220.041 250.598C220.041 250.565 220.056 250.528 220.082 250.503C220.137 250.447 220.233 250.451 220.281 250.503C220.303 250.528 220.318 250.565 220.318 250.598C220.318 250.635 220.303 250.672 220.277 250.698C220.255 250.724 220.218 250.738 220.181 250.738Z" fill="#1D1D1B"/>
<path d="M216.096 240.385C216.062 240.385 216.025 240.371 216 240.345C215.974 240.315 215.959 240.282 215.959 240.245C215.959 240.209 215.974 240.172 216 240.146C216.055 240.094 216.144 240.098 216.195 240.146C216.221 240.172 216.236 240.209 216.236 240.245C216.236 240.282 216.221 240.315 216.195 240.341C216.169 240.367 216.133 240.385 216.096 240.385Z" fill="#1D1D1B"/>
<path d="M220.041 238.659C220.004 238.659 219.971 238.644 219.945 238.618C219.919 238.592 219.904 238.555 219.904 238.519C219.904 238.482 219.919 238.445 219.945 238.419C219.993 238.371 220.089 238.371 220.141 238.419C220.166 238.441 220.181 238.478 220.181 238.515C220.181 238.552 220.166 238.589 220.137 238.614C220.115 238.64 220.078 238.655 220.041 238.655V238.659Z" fill="#1D1D1B"/>
<path d="M217.273 239.623C217.236 239.623 217.203 239.608 217.177 239.582C217.151 239.557 217.136 239.524 217.136 239.487C217.136 239.45 217.151 239.413 217.177 239.387C217.229 239.336 217.321 239.336 217.373 239.387C217.398 239.413 217.413 239.45 217.413 239.487C217.413 239.52 217.398 239.557 217.373 239.582C217.347 239.608 217.31 239.623 217.273 239.623Z" fill="#1D1D1B"/>
<path d="M218.657 237.484C218.624 237.484 218.587 237.469 218.561 237.444C218.535 237.418 218.52 237.385 218.52 237.348C218.52 237.307 218.535 237.27 218.561 237.248C218.609 237.197 218.705 237.197 218.757 237.248C218.782 237.274 218.797 237.307 218.797 237.348C218.797 237.381 218.782 237.418 218.757 237.444C218.727 237.469 218.694 237.484 218.657 237.484Z" fill="#1D1D1B"/>
<path d="M219.074 239.623C219.037 239.623 219 239.608 218.974 239.582C218.948 239.557 218.934 239.524 218.934 239.487C218.934 239.45 218.948 239.413 218.974 239.387C219.026 239.336 219.118 239.336 219.17 239.387C219.196 239.413 219.211 239.45 219.211 239.487C219.211 239.524 219.196 239.557 219.17 239.582C219.144 239.608 219.111 239.623 219.074 239.623Z" fill="#1D1D1B"/>
<path d="M221.012 238.452C220.975 238.452 220.938 238.438 220.912 238.412C220.886 238.386 220.871 238.349 220.871 238.312C220.871 238.276 220.886 238.239 220.912 238.213C220.964 238.161 221.056 238.161 221.108 238.213C221.133 238.239 221.148 238.276 221.148 238.312C221.148 238.349 221.133 238.382 221.108 238.408C221.082 238.438 221.048 238.452 221.012 238.452Z" fill="#1D1D1B"/>
<path d="M216.096 238.452C216.062 238.452 216.025 238.438 216 238.412C215.974 238.386 215.959 238.349 215.959 238.312C215.959 238.276 215.974 238.239 216 238.213C216.055 238.161 216.144 238.161 216.195 238.213C216.221 238.239 216.236 238.276 216.236 238.312C216.236 238.349 216.221 238.386 216.195 238.412C216.169 238.434 216.133 238.452 216.096 238.452Z" fill="#1D1D1B"/>
<path d="M207.725 261.578C207.688 261.578 207.651 261.563 207.625 261.534C207.603 261.511 207.585 261.475 207.585 261.438C207.585 261.401 207.6 261.368 207.625 261.342C207.673 261.291 207.769 261.287 207.821 261.342C207.847 261.368 207.862 261.401 207.862 261.438C207.862 261.475 207.847 261.511 207.821 261.537C207.795 261.563 207.762 261.578 207.725 261.578Z" fill="#1D1D1B"/>
<path d="M164.61 250.359C164.053 250.359 163.496 250.322 162.942 250.245C156.059 249.303 151.298 243.872 151.091 236.737C151.021 234.237 152.402 232.871 153.738 231.553C154.265 231.03 154.812 230.492 155.262 229.885L155.856 230.323C155.373 230.975 154.804 231.534 154.258 232.072C152.977 233.338 151.767 234.531 151.83 236.711C152.025 243.478 156.532 248.621 163.042 249.512C169.586 250.407 176.686 245.555 178.233 239.122C178.587 237.646 178.129 236.564 177.594 235.312C177.41 234.881 177.222 234.432 177.063 233.957L177.764 233.725C177.915 234.174 178.1 234.609 178.277 235.025C178.812 236.284 179.366 237.583 178.953 239.295C177.454 245.529 171.003 250.356 164.61 250.356V250.359Z" fill="#3D1F42"/>
<path d="M175.424 231.744C172.309 228.743 169.331 227.282 165.769 227.002C163.042 226.788 160.639 227.646 157.875 229.001L157.55 228.338C160.425 226.932 162.931 226.041 165.828 226.269C169.571 226.56 172.689 228.084 175.937 231.214L175.424 231.744Z" fill="#3D1F42"/>
<path d="M219.812 255.959L219.14 255.654C224.363 244.207 223.573 236.177 216.653 230.386C207.596 222.805 200.702 225.507 192.719 228.633C188.725 230.198 184.596 231.818 179.838 232.3L179.764 231.567C184.422 231.092 188.5 229.495 192.449 227.948C200.307 224.87 207.732 221.958 217.125 229.822C224.237 235.776 225.116 244.325 219.812 255.959Z" fill="#3D1F42"/>
<path d="M176.638 266.132L175.937 265.9C177.557 261.047 180.2 259.07 184.765 259.28C187.135 259.391 189.862 259.681 192.497 259.961C194.989 260.226 197.565 260.499 199.868 260.628L199.827 261.364C197.502 261.235 194.918 260.963 192.42 260.694C189.796 260.414 187.079 260.127 184.732 260.017C180.503 259.821 178.159 261.592 176.638 266.132Z" fill="#3D1F42"/>
<path d="M179.495 265.506L178.779 265.326C179.591 262.082 182.529 262.454 185.928 262.881L185.839 263.614C182.204 263.157 180.119 263.017 179.495 265.506Z" fill="#3D1F42"/>
<path d="M195.642 260.804C191.036 257.034 188.497 252.877 188.294 248.772C188.12 245.275 189.637 241.906 192.796 238.754C199.181 232.388 207.415 235.617 212.992 240.761L212.49 241.302C207.164 236.39 199.332 233.279 193.317 239.277C190.309 242.274 188.866 245.459 189.028 248.739C189.22 252.627 191.667 256.603 196.107 260.237L195.638 260.808L195.642 260.804Z" fill="#3D1F42"/>
<path d="M159.698 258.687L159.086 258.279C161.038 255.37 163.909 252.215 168.796 253.625C169.674 253.879 170.571 254.391 171.519 254.932C173.188 255.886 174.911 256.872 176.701 256.545C180.384 255.875 182.861 252.373 184.607 249.395L185.245 249.766C183.418 252.878 180.813 256.545 176.834 257.266C174.778 257.638 172.852 256.537 171.15 255.569C170.242 255.05 169.383 254.56 168.589 254.328C165.09 253.316 162.429 254.619 159.698 258.684V258.687Z" fill="#3D1F42"/>
<path d="M157.462 258.632C153.287 257.137 151.402 253.537 152.767 249.678C153.118 248.688 153.631 247.679 154.129 246.703C154.306 246.357 154.48 246.015 154.642 245.683L155.306 246.007C155.14 246.346 154.967 246.688 154.79 247.038C154.302 247.992 153.8 248.979 153.468 249.925C152.247 253.371 153.955 256.596 157.716 257.94L157.465 258.632H157.462Z" fill="#3D1F42"/>
<path d="M151.656 234.148C151.619 233.633 151.457 232.819 151.265 231.877C150.601 228.57 149.689 224.045 152.081 222.944C154.277 221.936 156.646 223.843 158.55 225.378C159.277 225.967 159.968 226.52 160.54 226.829L160.189 227.477C159.558 227.138 158.842 226.56 158.085 225.953C156.251 224.472 154.17 222.794 152.387 223.615C150.527 224.469 151.405 228.839 151.988 231.733C152.184 232.701 152.35 233.533 152.391 234.097L151.652 234.148H151.656Z" fill="#3D1F42"/>
<path d="M159.79 239.483C159.403 238.11 158.466 237.536 156.845 237.679L156.779 236.946C158.761 236.77 160.012 237.558 160.499 239.284L159.79 239.483Z" fill="#3D1F42"/>
<path d="M163.16 244.778L163.038 244.711C162.972 244.674 162.891 244.634 162.798 244.586C161.831 244.085 160.783 243.489 160.591 242.716C160.518 242.429 160.573 242.145 160.746 241.887C161.285 241.096 162.536 240.967 163.522 241.11C164.544 241.258 165.847 241.784 166.161 242.767C166.249 243.047 166.22 243.327 166.076 243.574C165.688 244.229 164.566 244.498 163.548 244.7C163.452 244.719 163.367 244.737 163.3 244.752L163.164 244.781L163.16 244.778ZM162.809 241.795C162.127 241.795 161.577 241.979 161.355 242.303C161.285 242.406 161.293 242.476 161.307 242.535C161.437 243.051 162.632 243.666 163.142 243.931C163.19 243.956 163.234 243.979 163.274 244.001C163.315 243.993 163.359 243.982 163.404 243.975C163.939 243.868 165.186 243.625 165.441 243.198C165.47 243.15 165.489 243.091 165.459 242.992C165.293 242.465 164.452 241.99 163.418 241.843C163.208 241.814 163.005 241.799 162.813 241.799L162.809 241.795Z" fill="#3D1F42"/>
<path d="M167.615 240.79L167.017 240.36C168.467 238.357 170.464 237.768 172.951 238.603L172.715 239.303C170.538 238.57 168.87 239.056 167.615 240.79Z" fill="#3D1F42"/>
<path d="M161.806 247.046C160.757 247.046 160.034 246.144 159.447 245.411C159.314 245.245 159.189 245.087 159.063 244.951L159.613 244.461C159.746 244.608 159.879 244.778 160.023 244.954C160.554 245.617 161.16 246.368 161.894 246.309C162.337 246.272 162.588 245.326 162.736 244.759C162.78 244.586 162.821 244.432 162.865 244.31L163.566 244.542C163.529 244.652 163.492 244.792 163.452 244.947C163.241 245.75 162.92 246.965 161.953 247.042C161.902 247.046 161.854 247.049 161.806 247.049V247.046Z" fill="#3D1F42"/>
<path d="M164.411 247.347C164.238 247.347 164.064 247.322 163.883 247.266C162.942 246.968 162.861 245.65 162.809 244.778C162.802 244.656 162.795 244.546 162.787 244.45L163.522 244.384C163.533 244.483 163.537 244.604 163.548 244.737C163.581 245.326 163.647 246.423 164.105 246.567C164.81 246.788 165.533 246.169 166.175 245.621C166.33 245.488 166.478 245.363 166.618 245.252L167.072 245.834C166.939 245.937 166.803 246.055 166.655 246.18C166.065 246.688 165.286 247.351 164.408 247.351L164.411 247.347Z" fill="#3D1F42"/>
<path d="M157.908 228.706C156.413 227.079 154.852 226.107 153.136 225.739L153.291 225.017C155.162 225.419 156.853 226.464 158.454 228.209L157.908 228.706Z" fill="#3D1F42"/>
<path d="M155.723 229.152C155.137 228.802 154.483 228.504 153.605 228.184L153.86 227.491C154.782 227.826 155.472 228.147 156.103 228.519L155.723 229.152Z" fill="#3D1F42"/>
<path d="M178.816 236.107L178.093 235.96C178.2 235.437 178.458 234.638 178.757 233.714C179.709 230.776 181.307 225.853 179.451 224.763C177.69 223.725 175.417 225.242 173.413 226.578C172.616 227.108 171.863 227.613 171.206 227.896L170.911 227.223C171.505 226.961 172.232 226.479 173.003 225.963C175.081 224.579 177.668 222.856 179.827 224.126C182.189 225.518 180.547 230.584 179.458 233.938C179.167 234.84 178.912 235.621 178.812 236.103L178.816 236.107Z" fill="#3D1F42"/>
<path d="M173.309 229.509L172.804 228.975C174.631 227.252 176.395 226.369 178.362 226.203L178.425 226.936C176.635 227.09 175.011 227.908 173.313 229.509H173.309Z" fill="#3D1F42"/>
<path d="M162.732 254.921C161.61 253.791 160.267 252.465 158.812 251.202L159.296 250.646C160.769 251.924 162.127 253.264 163.256 254.402L162.732 254.921Z" fill="#3D1F42"/>
<path d="M162.846 236.066C162.739 236.066 162.632 236.059 162.514 236.041C162.057 235.967 161.835 235.731 161.732 235.544C161.381 234.918 161.783 233.946 162.175 233.007C162.378 232.521 162.717 231.707 162.618 231.523C162.392 231.387 162.204 231.332 162.068 231.368C161.82 231.435 161.61 231.836 161.407 232.226C161.045 232.918 160.495 233.964 159.241 233.368C158.975 233.242 158.539 232.915 158.584 232.119C158.683 230.293 161.344 226.983 162.503 226.578L162.747 227.274C161.905 227.569 159.407 230.573 159.322 232.16C159.3 232.58 159.48 232.668 159.562 232.705C160.101 232.959 160.3 232.76 160.757 231.888C161.034 231.357 161.322 230.812 161.879 230.661C162.226 230.566 162.603 230.65 163.024 230.912C163.684 231.321 163.286 232.278 162.861 233.294C162.584 233.96 162.204 234.873 162.378 235.19C162.392 235.216 162.433 235.29 162.632 235.319C163.585 235.47 164.042 234.561 164.633 233.154C165.109 232.02 165.603 230.846 166.681 230.772C166.899 230.757 167.087 230.831 167.216 230.982C167.519 231.343 167.356 231.987 167.153 232.808C167.009 233.386 166.792 234.259 166.961 234.502C166.973 234.516 166.987 234.538 167.057 234.546C167.707 234.63 168.777 233.242 169.8 229.097L170.516 229.273C169.479 233.485 168.312 235.452 166.965 235.275C166.703 235.242 166.493 235.116 166.353 234.914C165.998 234.395 166.223 233.496 166.437 232.628C166.526 232.267 166.655 231.748 166.651 231.516C166.076 231.633 165.707 232.51 165.319 233.434C164.821 234.616 164.212 236.066 162.854 236.066H162.846Z" fill="#3D1F42"/>
<path d="M184.935 279.563C184.935 279.563 176.915 281.927 173.276 281.78C162.26 281.334 145.799 274.213 141.636 279.055C138.993 282.129 141.525 287.218 145.762 289.983C152.712 294.519 168.058 294.147 175.779 293.768C183.798 293.377 190.608 291.522 190.608 291.522L184.935 279.559V279.563Z" fill="#F74847"/>
<path d="M168.002 294.257C157.148 294.257 149.582 292.902 145.46 290.211C142.61 288.352 140.525 285.451 140.149 282.822C139.924 281.25 140.307 279.836 141.252 278.735C144.013 275.524 151.586 277.225 159.61 279.029C164.286 280.079 169.124 281.165 173.188 281.331C176.727 281.47 184.751 279.151 184.832 279.129L185.039 279.836C184.706 279.931 176.819 282.218 173.158 282.067C169.025 281.901 164.157 280.808 159.447 279.747C151.649 277.995 144.282 276.342 141.813 279.214C141.009 280.149 140.688 281.36 140.879 282.719C141.226 285.145 143.182 287.844 145.862 289.593C150.763 292.792 160.791 294.048 175.66 293.319C183.551 292.932 190.342 291.106 190.412 291.087L190.608 291.798C190.538 291.816 183.669 293.665 175.701 294.055C172.977 294.187 170.409 294.254 168.006 294.254L168.002 294.257Z" fill="#3D1F42"/>
<path d="M147.032 251.431C147.032 251.431 163.426 260.694 171.977 264.103C176.923 266.077 192.21 270.771 192.21 270.771L231.438 249.199L227.74 261.103L187.685 277.299L144.415 257.841L147.032 251.431Z" fill="white"/>
<path d="M192.099 295.999C191.955 295.999 191.822 295.914 191.763 295.782L182.879 275.867C182.802 275.694 182.872 275.487 183.038 275.395L238.284 245.013L238.642 245.657L183.695 275.874L192.309 295.189C197.015 293.896 254.132 277.825 265.721 257.417C267.739 253.864 268.267 250.337 267.289 246.931C266.123 242.867 263.805 239.929 260.402 238.202C252.574 234.229 240.528 237.193 231.803 240.378L231.549 239.685C240.414 236.449 252.67 233.452 260.738 237.546C264.333 239.373 266.776 242.462 268.001 246.732C269.035 250.333 268.485 254.052 266.366 257.785C261.247 266.802 247.201 275.973 224.621 285.045C207.84 291.787 192.353 295.947 192.198 295.988C192.165 295.995 192.136 295.999 192.102 295.999H192.099Z" fill="#3D1F42"/>
<path d="M192.663 270.793C169.8 267.406 137.133 245.775 136.805 245.558L137.215 244.947C137.539 245.164 170.069 266.703 192.77 270.068L192.663 270.797V270.793Z" fill="#3D1F42"/>
<path d="M362.254 68.4593L361.726 67.9438C363.882 65.7568 365.587 63.2016 366.794 60.3482C369.333 54.3542 369.377 47.7344 366.927 41.7036C364.472 35.6728 359.811 30.96 353.803 28.427C347.794 25.8939 341.158 25.846 335.113 28.2944C329.071 30.7428 324.344 35.3929 321.804 41.3869C320.944 43.4193 320.361 45.551 320.077 47.7159L319.346 47.6202C319.638 45.3854 320.239 43.1947 321.125 41.0997C323.742 34.9253 328.61 30.1353 334.836 27.6133C341.062 25.0912 347.901 25.1391 354.09 27.7495C360.28 30.3599 365.081 35.2162 367.609 41.4274C370.138 47.6386 370.09 54.461 367.473 60.6354C366.229 63.5735 364.472 66.206 362.251 68.4593H362.254Z" fill="white"/>
<path d="M344.358 75.9885C341.051 75.9885 337.708 75.3331 334.511 73.9855C324.122 69.6079 317.885 58.765 319.35 47.6201L320.081 47.7158C318.66 58.533 324.713 69.0556 334.799 73.3081C344.089 77.2255 354.659 75.1195 361.73 67.9437L362.258 68.4592C357.408 73.3817 350.957 75.9885 344.362 75.9885H344.358Z" fill="#3D1F42"/>
<path d="M-8.94781 84.372L19.8432 34.9327L108.781 49.6747L74.1148 -15H-8.94781C-8.94781 -15 -8.94781 84.7917 -8.94781 84.372Z" fill="#3D1F42"/>
<path d="M55.4474 60.849C45.7851 60.849 37.2412 53.8573 35.6284 44.0416C35.2741 41.8767 35.2704 39.6933 35.6247 37.5505L36.3517 37.6684C36.0122 39.7339 36.0122 41.8362 36.3554 43.9201C38.0827 54.4279 48.0549 61.5743 58.5881 59.8549C66.763 58.5184 73.1811 52.1489 74.5541 44.0011L75.2811 44.1226C73.8565 52.5797 67.1948 59.1922 58.7062 60.5803C57.6101 60.7607 56.5214 60.8453 55.4437 60.8453L55.4474 60.849Z" fill="#F74847"/>
<path d="M75.2811 44.1225L74.554 44.001C74.9046 41.9135 74.9083 39.7854 74.5614 37.672C73.7236 32.5801 70.9519 28.1214 66.7519 25.1097C62.5519 22.1016 57.4292 20.9014 52.3287 21.7371C44.1169 23.081 37.6951 29.48 36.3517 37.6646L35.6246 37.5468C37.0197 29.0492 43.6851 22.4035 52.2106 21.0118C57.5067 20.1466 62.825 21.3911 67.1837 24.5132C71.5424 27.6391 74.4212 32.2671 75.2922 37.5542C75.6538 39.7449 75.6502 41.954 75.2848 44.1225H75.2811Z" fill="white"/>
<path d="M103.042 -14.1128L144.463 14.7121L149.959 -14.1128H103.042Z" fill="#3D1F42"/>
<path d="M4.51953 121.518L28.6714 89.7144L66.2574 122.398L4.51953 121.518Z" fill="#3D1F42"/>
<path d="M177.971 116.459C177.845 119.809 177.199 123.244 172.158 124.669C169.645 125.38 166.511 125.085 164.145 122.987C162.673 121.68 162.267 118.867 162.267 117.284C162.267 113.871 165.644 110.469 168.862 110.023C173.343 109.401 178.163 111.356 177.971 116.459Z" fill="#3D1F42"/>
<path d="M214.712 117.203C215.073 120.538 214.339 123.488 209.301 124.912C206.788 125.623 203.603 125.115 201.362 122.88C200.226 121.746 199.731 118.613 199.731 117.03C199.731 113.617 203.06 110.377 206.275 109.931C210.755 109.309 214.224 112.77 214.708 117.203H214.712Z" fill="#3D1F42"/>
<path d="M160.983 337.003L90.2985 303.072L31.9561 328.469L42.4672 262.248L5.27242 246.688L48.5863 211.431L-12 198.707L-7.48998 338.063L160.983 337.003Z" fill="#3D1F42"/>
<path d="M325.477 189.429L364.273 239.266L341.952 255.701L354.707 273.197L297.841 268.426L296.778 336.819L289.633 336.981C290.544 337.563 291.197 338.446 291.367 339.628L383.937 340L385 172.463L325.477 189.429Z" fill="#3D1F42"/>
<path d="M38.3225 288.455L14.5951 285.487L28.3318 256.316L28.9998 256.629L15.6949 284.88L38.4148 287.722L38.3225 288.455Z" fill="white"/>
<path d="M67.3461 292.085L38.3225 288.455L38.4148 287.722L66.8848 291.282L88.7853 239.796L38.2303 237.027L28.9999 256.629L28.3318 256.316L37.7763 236.265L89.8741 239.119L67.3461 292.085Z" fill="#F74847"/>
<path d="M339.852 221.199L308.359 208.364L321.59 176.06L342.055 184.403L341.778 185.084L321.993 177.021L309.322 207.959L339.449 220.238L342.819 212.006L343.502 212.285L339.852 221.199Z" fill="#F74847"/>
<path d="M343.502 212.285L342.819 212.006L352.12 189.3L341.778 185.084L342.055 184.403L353.083 188.895L343.502 212.285Z" fill="white"/>
<path d="M13.8791 136.127L29.332 111.908L58.0972 146.075L13.8791 136.127Z" fill="#FF6868"/>
<path d="M315.604 138.517L344.325 111.908L359.029 130.998L315.604 138.517Z" fill="#3D1F42"/>
<path d="M184.64 32.2154L173.405 -2.79492L200.347 6.52742L184.64 32.2154Z" fill="#3D1F42"/>
<path d="M271.294 21.9874L236.549 41.7108L250.511 2.26392L271.294 21.9874Z" fill="#FF6868"/>
<path d="M320.232 319.106L319.516 318.933L325.764 293.289L347.89 307.475L345.683 289.132L360.545 282.232L360.856 282.899L346.48 289.574L348.809 308.94L326.237 294.467L320.232 319.106Z" fill="#F74847"/>
<path d="M306.953 134.625L306.761 133.914L339.461 125.056L322.701 112.472L344.24 101.441L344.576 102.093L324.089 112.589L341.11 125.373L306.953 134.625Z" fill="#F74847"/>
<path d="M15.3554 210.29L14.9346 209.686L28.1879 200.522L21.2199 187.389L35.7464 174.771L36.2299 175.327L22.1462 187.558L29.1438 200.754L15.3554 210.29Z" fill="#F74847"/>
<rect x="-8" y="218" width="383" height="128" fill="url(#paint0_linear_206_336)"/>
</g>
<g clip-path="url(#clip2_206_336)">
<path d="M170.249 88.9676H167.26L166.57 83.673C166.512 83.1981 166.468 82.7839 166.442 82.4267C166.404 82.0751 166.367 81.5762 166.329 80.93C166.232 81.5099 166.084 82.1561 165.881 82.8704C165.838 83.0103 165.807 83.13 165.784 83.2294L164.19 88.9676H162.058L160.463 83.2294C160.447 83.1336 160.416 83.014 160.366 82.8704C160.142 82.1174 159.994 81.4712 159.925 80.93C159.883 81.543 159.843 82.0014 159.806 82.3015C159.79 82.458 159.765 82.6863 159.733 82.9882C159.702 83.2901 159.677 83.5184 159.661 83.6749L158.971 88.9695H156L157.811 76.7197H160.977L162.747 83.0361C162.779 83.1539 162.8 83.2294 162.811 83.2625C162.966 83.7872 163.07 84.2658 163.123 84.7021C163.133 84.5512 163.174 84.3063 163.243 83.9657C163.264 83.8829 163.345 83.5663 163.482 83.0213L165.272 76.7197H168.447L170.249 88.9676Z" fill="#FDE7EF"/>
<path d="M174.973 88.9675V80.5175H177.827V88.9675H174.973ZM175.333 78.3415H175.349C175.349 78.0285 175.453 77.7726 175.661 77.5719C175.869 77.3547 176.121 77.2461 176.414 77.2461C176.724 77.2461 176.978 77.3492 177.179 77.5554C177.38 77.7616 177.479 78.023 177.479 78.3415C177.479 78.6655 177.375 78.9324 177.167 79.1441C176.964 79.3614 176.712 79.47 176.414 79.47C176.109 79.47 175.853 79.3558 175.645 79.1276C175.437 78.9158 175.333 78.6544 175.333 78.3415Z" fill="#FDE7EF"/>
<path d="M183.424 88.9674V80.5174H186.035V82.2332C186.404 81.5631 186.841 81.0624 187.347 80.7273C187.838 80.4088 188.434 80.2505 189.134 80.2505C189.663 80.2505 190.132 80.3333 190.543 80.5009C190.95 80.6905 191.28 80.9464 191.532 81.2704C191.761 81.5944 191.915 81.9368 191.989 82.2995C192.081 82.7616 192.126 83.3728 192.126 84.1312V88.9674H189.257V84.4405C189.257 83.7538 189.153 83.2641 188.945 82.9677C188.737 82.6603 188.398 82.5075 187.929 82.5075C187.344 82.5075 186.912 82.7358 186.635 83.1942C186.363 83.6507 186.228 84.3927 186.228 85.4199V88.9674H183.424Z" fill="#FDE7EF"/>
<path d="M206.123 75.9998V88.9675H203.494V87.596C203.131 88.1704 202.72 88.5938 202.26 88.8681C201.833 89.1534 201.33 89.2952 200.754 89.2952C199.621 89.2952 198.717 88.8828 198.041 88.0562C197.366 87.2315 197.027 86.1287 197.027 84.7517C197.027 83.4133 197.366 82.3235 198.045 81.4803C198.719 80.6611 199.59 80.2505 200.657 80.2505C201.341 80.2505 201.896 80.3831 202.323 80.6445C202.734 80.8857 203.118 81.3128 203.476 81.9295C203.455 81.7785 203.434 81.5503 203.413 81.2428C203.392 80.9078 203.381 80.6335 203.381 80.4217V75.9998H206.123ZM203.591 84.7554C203.591 84.0926 203.429 83.5753 203.103 83.2016C202.755 82.8242 202.297 82.6346 201.724 82.6346C201.147 82.6346 200.692 82.8242 200.36 83.2016C200.029 83.5808 199.863 84.0981 199.863 84.7554C199.863 85.4181 200.029 85.9391 200.36 86.3165C200.687 86.6902 201.14 86.8762 201.724 86.8762C202.3 86.8762 202.76 86.6902 203.103 86.3165C203.427 85.9428 203.591 85.4218 203.591 84.7554Z" fill="#FDE7EF"/>
<path d="M214.26 80.072H215.716V83.2274H218.647V84.7039H215.716V87.8722H214.26V84.702H211.316V83.2256H214.26V80.072Z" fill="#FDE7EF" stroke="#FDE7EF" stroke-width="1.12163" stroke-miterlimit="10"/>
</g>
</g>
<defs>
<linearGradient id="paint0_linear_206_336" x1="183" y1="224.5" x2="183.048" y2="277" gradientUnits="userSpaceOnUse">
<stop stop-color="#FDE7EF" stop-opacity="0"/>
<stop offset="1" stop-color="#FDE7EF"/>
</linearGradient>
<clipPath id="clip0_206_336">
<rect width="375" height="292" fill="white"/>
</clipPath>
<clipPath id="clip1_206_336">
<rect width="397" height="355" fill="white" transform="translate(-12 -15)"/>
</clipPath>
<clipPath id="clip2_206_336">
<rect width="63" height="13.2936" fill="white" transform="translate(156 76)"/>
</clipPath>
</defs>
</svg>
